ISO-10303-21;
HEADER;
/* Generated by software containing ST-Developer
 * from STEP Tools, Inc. (www.steptools.com) 
 */
/* OPTION: using custom renumber hook */

FILE_DESCRIPTION(
/* description */ ('STEP AP242 Edition 2',
'CAx-IF Rec.Pracs.---Representation and Presentation of Product Manufa
cturing Information (PMI)---4.0---2014-10-13',
'CAx-IF Rec.Pracs.---3D Tessellated Geometry---0.4---2014-09-14','2;1',
'CAx-IF Rec.Pracs.---User Defined Attributes---1.5---2016-08-15'),
/* implementation_level */ '2;1');

FILE_NAME(
/* name */ 'BLDCMotorMount',
/* time_stamp */ '2026-07-17T11:15:25Z',
/* author */ (''),
/* organization */ (''),
/* preprocessor_version */ 'ST-DEVELOPER v20',
/* originating_system */ 'ONSHAPE BY PTC INC, 1.217',
/* authorisation */ '  ');

FILE_SCHEMA (('AP242_MANAGED_MODEL_BASED_3D_ENGINEERING_MIM_LF { 1 0 10303 442 3 1 4 }'));
ENDSEC;

DATA;
#10=SHAPE_REPRESENTATION_RELATIONSHIP('','',#547,#11);
#11=ADVANCED_BREP_SHAPE_REPRESENTATION('',(#545),#1118);
#12=CONICAL_SURFACE('',#599,0.0029,0.78539816339745);
#13=CONICAL_SURFACE('',#600,0.0029,0.78539816339745);
#14=CONICAL_SURFACE('',#601,0.0029,0.785398163397449);
#15=CONICAL_SURFACE('',#602,0.0029,0.78539816339745);
#16=PLANE('',#564);
#17=PLANE('',#565);
#18=PLANE('',#568);
#19=PLANE('',#586);
#20=PLANE('',#587);
#21=PLANE('',#589);
#22=PLANE('',#594);
#23=PLANE('',#595);
#24=PLANE('',#597);
#25=PLANE('',#603);
#26=PLANE('',#607);
#27=PLANE('',#608);
#28=PLANE('',#609);
#29=PLANE('',#610);
#30=PLANE('',#611);
#31=PLANE('',#612);
#32=LINE('',#1026,#47);
#33=LINE('',#1030,#48);
#34=LINE('',#1034,#49);
#35=LINE('',#1036,#50);
#36=LINE('',#1038,#51);
#37=LINE('',#1040,#52);
#38=LINE('',#1041,#53);
#39=LINE('',#1043,#54);
#40=LINE('',#1051,#55);
#41=LINE('',#1101,#56);
#42=LINE('',#1108,#57);
#43=LINE('',#1109,#58);
#44=LINE('',#1111,#59);
#45=LINE('',#1113,#60);
#46=LINE('',#1115,#61);
#47=VECTOR('',#639,1.);
#48=VECTOR('',#644,1.);
#49=VECTOR('',#647,1.);
#50=VECTOR('',#650,1.);
#51=VECTOR('',#651,1.);
#52=VECTOR('',#652,1.);
#53=VECTOR('',#653,1.);
#54=VECTOR('',#654,1.);
#55=VECTOR('',#665,1.);
#56=VECTOR('',#734,1.);
#57=VECTOR('',#745,1.);
#58=VECTOR('',#746,1.);
#59=VECTOR('',#749,1.);
#60=VECTOR('',#752,1.);
#61=VECTOR('',#755,1.);
#62=ELLIPSE('',#555,0.00310801204362004,0.00305);
#63=ELLIPSE('',#558,0.00310801204362004,0.00305);
#64=ELLIPSE('',#560,0.0157994925934031,0.00202053671197684);
#65=ELLIPSE('',#562,0.00205896801160671,0.00202053671197684);
#66=CYLINDRICAL_SURFACE('',#553,0.00305);
#67=CYLINDRICAL_SURFACE('',#556,0.00305);
#68=CYLINDRICAL_SURFACE('',#559,0.00202053671197684);
#69=CYLINDRICAL_SURFACE('',#561,0.00202053671197684);
#70=CYLINDRICAL_SURFACE('',#566,0.0135);
#71=CYLINDRICAL_SURFACE('',#575,0.0018);
#72=CYLINDRICAL_SURFACE('',#577,0.0018);
#73=CYLINDRICAL_SURFACE('',#579,0.0018);
#74=CYLINDRICAL_SURFACE('',#581,0.0018);
#75=CYLINDRICAL_SURFACE('',#583,0.00305);
#76=CYLINDRICAL_SURFACE('',#591,0.00305);
#77=CYLINDRICAL_SURFACE('',#604,0.0020145703197088);
#78=CYLINDRICAL_SURFACE('',#605,0.00408703414171684);
#79=CIRCLE('',#549,0.00725242288590532);
#80=CIRCLE('',#550,0.00725242288590532);
#81=CIRCLE('',#551,0.0135);
#82=CIRCLE('',#552,0.007);
#83=CIRCLE('',#554,0.00305);
#84=CIRCLE('',#557,0.00305);
#85=CIRCLE('',#563,0.00202053671197684);
#86=CIRCLE('',#567,0.0135);
#87=CIRCLE('',#569,0.00408703414171684);
#88=CIRCLE('',#570,0.0020145703197088);
#89=CIRCLE('',#571,0.0018);
#90=CIRCLE('',#572,0.0018);
#91=CIRCLE('',#573,0.0018);
#92=CIRCLE('',#574,0.0018);
#93=CIRCLE('',#576,0.0018);
#94=CIRCLE('',#578,0.0018);
#95=CIRCLE('',#580,0.0018);
#96=CIRCLE('',#582,0.0018);
#97=CIRCLE('',#584,0.00305);
#98=CIRCLE('',#585,0.00305);
#99=CIRCLE('',#588,0.0029);
#100=CIRCLE('',#590,0.0029);
#101=CIRCLE('',#592,0.00305);
#102=CIRCLE('',#593,0.00305);
#103=CIRCLE('',#596,0.0029);
#104=CIRCLE('',#598,0.0029);
#105=CIRCLE('',#606,0.00408703414171684);
#106=ORIENTED_EDGE('',*,*,#238,.F.);
#107=ORIENTED_EDGE('',*,*,#239,.T.);
#108=ORIENTED_EDGE('',*,*,#240,.F.);
#109=ORIENTED_EDGE('',*,*,#241,.T.);
#110=ORIENTED_EDGE('',*,*,#242,.F.);
#111=ORIENTED_EDGE('',*,*,#243,.F.);
#112=ORIENTED_EDGE('',*,*,#244,.F.);
#113=ORIENTED_EDGE('',*,*,#245,.T.);
#114=ORIENTED_EDGE('',*,*,#246,.F.);
#115=ORIENTED_EDGE('',*,*,#247,.T.);
#116=ORIENTED_EDGE('',*,*,#248,.T.);
#117=ORIENTED_EDGE('',*,*,#249,.F.);
#118=ORIENTED_EDGE('',*,*,#250,.T.);
#119=ORIENTED_EDGE('',*,*,#251,.F.);
#120=ORIENTED_EDGE('',*,*,#252,.T.);
#121=ORIENTED_EDGE('',*,*,#253,.F.);
#122=ORIENTED_EDGE('',*,*,#254,.T.);
#123=ORIENTED_EDGE('',*,*,#255,.F.);
#124=ORIENTED_EDGE('',*,*,#256,.T.);
#125=ORIENTED_EDGE('',*,*,#257,.T.);
#126=ORIENTED_EDGE('',*,*,#258,.F.);
#127=ORIENTED_EDGE('',*,*,#259,.T.);
#128=ORIENTED_EDGE('',*,*,#260,.F.);
#129=ORIENTED_EDGE('',*,*,#261,.F.);
#130=ORIENTED_EDGE('',*,*,#262,.T.);
#131=ORIENTED_EDGE('',*,*,#263,.F.);
#132=ORIENTED_EDGE('',*,*,#244,.T.);
#133=ORIENTED_EDGE('',*,*,#264,.T.);
#134=ORIENTED_EDGE('',*,*,#265,.F.);
#135=ORIENTED_EDGE('',*,*,#253,.T.);
#136=ORIENTED_EDGE('',*,*,#266,.F.);
#137=ORIENTED_EDGE('',*,*,#267,.F.);
#138=ORIENTED_EDGE('',*,*,#258,.T.);
#139=ORIENTED_EDGE('',*,*,#268,.F.);
#140=ORIENTED_EDGE('',*,*,#251,.T.);
#141=ORIENTED_EDGE('',*,*,#269,.T.);
#142=ORIENTED_EDGE('',*,*,#270,.T.);
#143=ORIENTED_EDGE('',*,*,#271,.F.);
#144=ORIENTED_EDGE('',*,*,#267,.T.);
#145=ORIENTED_EDGE('',*,*,#272,.T.);
#146=ORIENTED_EDGE('',*,*,#273,.F.);
#147=ORIENTED_EDGE('',*,*,#274,.T.);
#148=ORIENTED_EDGE('',*,*,#271,.T.);
#149=ORIENTED_EDGE('',*,*,#275,.F.);
#150=ORIENTED_EDGE('',*,*,#276,.F.);
#151=ORIENTED_EDGE('',*,*,#259,.F.);
#152=ORIENTED_EDGE('',*,*,#243,.T.);
#153=ORIENTED_EDGE('',*,*,#277,.F.);
#154=ORIENTED_EDGE('',*,*,#242,.T.);
#155=ORIENTED_EDGE('',*,*,#278,.F.);
#156=ORIENTED_EDGE('',*,*,#279,.F.);
#157=ORIENTED_EDGE('',*,*,#280,.F.);
#158=ORIENTED_EDGE('',*,*,#275,.T.);
#159=ORIENTED_EDGE('',*,*,#270,.F.);
#160=ORIENTED_EDGE('',*,*,#281,.F.);
#161=ORIENTED_EDGE('',*,*,#282,.F.);
#162=ORIENTED_EDGE('',*,*,#283,.F.);
#163=ORIENTED_EDGE('',*,*,#284,.F.);
#164=ORIENTED_EDGE('',*,*,#277,.T.);
#165=ORIENTED_EDGE('',*,*,#285,.T.);
#166=ORIENTED_EDGE('',*,*,#284,.T.);
#167=ORIENTED_EDGE('',*,*,#286,.T.);
#168=ORIENTED_EDGE('',*,*,#283,.T.);
#169=ORIENTED_EDGE('',*,*,#287,.T.);
#170=ORIENTED_EDGE('',*,*,#282,.T.);
#171=ORIENTED_EDGE('',*,*,#288,.T.);
#172=ORIENTED_EDGE('',*,*,#281,.T.);
#173=ORIENTED_EDGE('',*,*,#238,.T.);
#174=ORIENTED_EDGE('',*,*,#289,.F.);
#175=ORIENTED_EDGE('',*,*,#290,.T.);
#176=ORIENTED_EDGE('',*,*,#289,.T.);
#177=ORIENTED_EDGE('',*,*,#239,.F.);
#178=ORIENTED_EDGE('',*,*,#291,.T.);
#179=ORIENTED_EDGE('',*,*,#290,.F.);
#180=ORIENTED_EDGE('',*,*,#292,.T.);
#181=ORIENTED_EDGE('',*,*,#262,.F.);
#182=ORIENTED_EDGE('',*,*,#240,.T.);
#183=ORIENTED_EDGE('',*,*,#293,.F.);
#184=ORIENTED_EDGE('',*,*,#294,.T.);
#185=ORIENTED_EDGE('',*,*,#293,.T.);
#186=ORIENTED_EDGE('',*,*,#241,.F.);
#187=ORIENTED_EDGE('',*,*,#295,.T.);
#188=ORIENTED_EDGE('',*,*,#294,.F.);
#189=ORIENTED_EDGE('',*,*,#296,.T.);
#190=ORIENTED_EDGE('',*,*,#264,.F.);
#191=ORIENTED_EDGE('',*,*,#286,.F.);
#192=ORIENTED_EDGE('',*,*,#295,.F.);
#193=ORIENTED_EDGE('',*,*,#287,.F.);
#194=ORIENTED_EDGE('',*,*,#292,.F.);
#195=ORIENTED_EDGE('',*,*,#288,.F.);
#196=ORIENTED_EDGE('',*,*,#291,.F.);
#197=ORIENTED_EDGE('',*,*,#285,.F.);
#198=ORIENTED_EDGE('',*,*,#296,.F.);
#199=ORIENTED_EDGE('',*,*,#261,.T.);
#200=ORIENTED_EDGE('',*,*,#297,.T.);
#201=ORIENTED_EDGE('',*,*,#279,.T.);
#202=ORIENTED_EDGE('',*,*,#269,.F.);
#203=ORIENTED_EDGE('',*,*,#260,.T.);
#204=ORIENTED_EDGE('',*,*,#276,.T.);
#205=ORIENTED_EDGE('',*,*,#280,.T.);
#206=ORIENTED_EDGE('',*,*,#297,.F.);
#207=ORIENTED_EDGE('',*,*,#298,.F.);
#208=ORIENTED_EDGE('',*,*,#278,.T.);
#209=ORIENTED_EDGE('',*,*,#298,.T.);
#210=ORIENTED_EDGE('',*,*,#299,.F.);
#211=ORIENTED_EDGE('',*,*,#272,.F.);
#212=ORIENTED_EDGE('',*,*,#266,.T.);
#213=ORIENTED_EDGE('',*,*,#257,.F.);
#214=ORIENTED_EDGE('',*,*,#300,.T.);
#215=ORIENTED_EDGE('',*,*,#247,.F.);
#216=ORIENTED_EDGE('',*,*,#246,.T.);
#217=ORIENTED_EDGE('',*,*,#301,.F.);
#218=ORIENTED_EDGE('',*,*,#273,.T.);
#219=ORIENTED_EDGE('',*,*,#299,.T.);
#220=ORIENTED_EDGE('',*,*,#302,.F.);
#221=ORIENTED_EDGE('',*,*,#254,.F.);
#222=ORIENTED_EDGE('',*,*,#265,.T.);
#223=ORIENTED_EDGE('',*,*,#252,.F.);
#224=ORIENTED_EDGE('',*,*,#268,.T.);
#225=ORIENTED_EDGE('',*,*,#274,.F.);
#226=ORIENTED_EDGE('',*,*,#301,.T.);
#227=ORIENTED_EDGE('',*,*,#245,.F.);
#228=ORIENTED_EDGE('',*,*,#263,.T.);
#229=ORIENTED_EDGE('',*,*,#250,.F.);
#230=ORIENTED_EDGE('',*,*,#249,.T.);
#231=ORIENTED_EDGE('',*,*,#303,.F.);
#232=ORIENTED_EDGE('',*,*,#255,.T.);
#233=ORIENTED_EDGE('',*,*,#302,.T.);
#234=ORIENTED_EDGE('',*,*,#300,.F.);
#235=ORIENTED_EDGE('',*,*,#256,.F.);
#236=ORIENTED_EDGE('',*,*,#303,.T.);
#237=ORIENTED_EDGE('',*,*,#248,.F.);
#238=EDGE_CURVE('',#304,#305,#355,.T.);
#239=EDGE_CURVE('',#304,#305,#79,.T.);
#240=EDGE_CURVE('',#306,#307,#356,.T.);
#241=EDGE_CURVE('',#306,#307,#80,.T.);
#242=EDGE_CURVE('',#308,#308,#81,.T.);
#243=EDGE_CURVE('',#309,#309,#82,.T.);
#244=EDGE_CURVE('',#310,#311,#357,.T.);
#245=EDGE_CURVE('',#310,#312,#358,.T.);
#246=EDGE_CURVE('',#313,#312,#359,.T.);
#247=EDGE_CURVE('',#313,#314,#360,.T.);
#248=EDGE_CURVE('',#314,#315,#361,.T.);
#249=EDGE_CURVE('',#316,#315,#362,.T.);
#250=EDGE_CURVE('',#316,#311,#363,.T.);
#251=EDGE_CURVE('',#317,#318,#364,.T.);
#252=EDGE_CURVE('',#317,#319,#365,.T.);
#253=EDGE_CURVE('',#320,#319,#366,.T.);
#254=EDGE_CURVE('',#320,#321,#367,.T.);
#255=EDGE_CURVE('',#322,#321,#368,.T.);
#256=EDGE_CURVE('',#322,#323,#369,.T.);
#257=EDGE_CURVE('',#323,#324,#370,.T.);
#258=EDGE_CURVE('',#325,#324,#371,.T.);
#259=EDGE_CURVE('',#325,#326,#372,.T.);
#260=EDGE_CURVE('',#327,#326,#373,.T.);
#261=EDGE_CURVE('',#318,#327,#374,.T.);
#262=EDGE_CURVE('',#328,#328,#83,.T.);
#263=EDGE_CURVE('',#310,#311,#62,.F.);
#264=EDGE_CURVE('',#329,#329,#84,.T.);
#265=EDGE_CURVE('',#320,#319,#63,.F.);
#266=EDGE_CURVE('',#330,#324,#64,.F.);
#267=EDGE_CURVE('',#325,#330,#32,.T.);
#268=EDGE_CURVE('',#317,#331,#65,.F.);
#269=EDGE_CURVE('',#318,#332,#33,.T.);
#270=EDGE_CURVE('',#332,#333,#85,.T.);
#271=EDGE_CURVE('',#331,#333,#34,.T.);
#272=EDGE_CURVE('',#330,#334,#35,.T.);
#273=EDGE_CURVE('',#335,#334,#36,.T.);
#274=EDGE_CURVE('',#335,#331,#37,.T.);
#275=EDGE_CURVE('',#336,#333,#38,.T.);
#276=EDGE_CURVE('',#326,#336,#39,.T.);
#277=EDGE_CURVE('',#337,#337,#86,.T.);
#278=EDGE_CURVE('',#338,#338,#87,.T.);
#279=EDGE_CURVE('',#339,#332,#40,.T.);
#280=EDGE_CURVE('',#336,#339,#88,.T.);
#281=EDGE_CURVE('',#340,#340,#89,.T.);
#282=EDGE_CURVE('',#341,#341,#90,.T.);
#283=EDGE_CURVE('',#342,#342,#91,.T.);
#284=EDGE_CURVE('',#343,#343,#92,.T.);
#285=EDGE_CURVE('',#344,#344,#93,.F.);
#286=EDGE_CURVE('',#345,#345,#94,.F.);
#287=EDGE_CURVE('',#346,#346,#95,.F.);
#288=EDGE_CURVE('',#347,#347,#96,.F.);
#289=EDGE_CURVE('',#304,#305,#97,.T.);
#290=EDGE_CURVE('',#348,#348,#98,.T.);
#291=EDGE_CURVE('',#349,#349,#99,.T.);
#292=EDGE_CURVE('',#350,#350,#100,.T.);
#293=EDGE_CURVE('',#306,#307,#101,.T.);
#294=EDGE_CURVE('',#351,#351,#102,.T.);
#295=EDGE_CURVE('',#352,#352,#103,.T.);
#296=EDGE_CURVE('',#353,#353,#104,.T.);
#297=EDGE_CURVE('',#327,#339,#41,.T.);
#298=EDGE_CURVE('',#354,#354,#105,.T.);
#299=EDGE_CURVE('',#334,#313,#42,.T.);
#300=EDGE_CURVE('',#323,#314,#43,.T.);
#301=EDGE_CURVE('',#335,#312,#44,.T.);
#302=EDGE_CURVE('',#321,#316,#45,.T.);
#303=EDGE_CURVE('',#322,#315,#46,.T.);
#304=VERTEX_POINT('',#856);
#305=VERTEX_POINT('',#857);
#306=VERTEX_POINT('',#880);
#307=VERTEX_POINT('',#881);
#308=VERTEX_POINT('',#884);
#309=VERTEX_POINT('',#886);
#310=VERTEX_POINT('',#901);
#311=VERTEX_POINT('',#902);
#312=VERTEX_POINT('',#907);
#313=VERTEX_POINT('',#912);
#314=VERTEX_POINT('',#917);
#315=VERTEX_POINT('',#922);
#316=VERTEX_POINT('',#928);
#317=VERTEX_POINT('',#940);
#318=VERTEX_POINT('',#941);
#319=VERTEX_POINT('',#946);
#320=VERTEX_POINT('',#959);
#321=VERTEX_POINT('',#964);
#322=VERTEX_POINT('',#970);
#323=VERTEX_POINT('',#975);
#324=VERTEX_POINT('',#980);
#325=VERTEX_POINT('',#985);
#326=VERTEX_POINT('',#993);
#327=VERTEX_POINT('',#1010);
#328=VERTEX_POINT('',#1017);
#329=VERTEX_POINT('',#1021);
#330=VERTEX_POINT('',#1025);
#331=VERTEX_POINT('',#1029);
#332=VERTEX_POINT('',#1031);
#333=VERTEX_POINT('',#1033);
#334=VERTEX_POINT('',#1037);
#335=VERTEX_POINT('',#1039);
#336=VERTEX_POINT('',#1042);
#337=VERTEX_POINT('',#1047);
#338=VERTEX_POINT('',#1050);
#339=VERTEX_POINT('',#1052);
#340=VERTEX_POINT('',#1055);
#341=VERTEX_POINT('',#1057);
#342=VERTEX_POINT('',#1059);
#343=VERTEX_POINT('',#1061);
#344=VERTEX_POINT('',#1064);
#345=VERTEX_POINT('',#1067);
#346=VERTEX_POINT('',#1070);
#347=VERTEX_POINT('',#1073);
#348=VERTEX_POINT('',#1077);
#349=VERTEX_POINT('',#1081);
#350=VERTEX_POINT('',#1084);
#351=VERTEX_POINT('',#1088);
#352=VERTEX_POINT('',#1092);
#353=VERTEX_POINT('',#1095);
#354=VERTEX_POINT('',#1105);
#355=B_SPLINE_CURVE_WITH_KNOTS('',3,(#835,#836,#837,#838,#839,#840,#841,
#842,#843,#844,#845,#846,#847,#848,#849,#850,#851,#852,#853,#854,#855),
 .UNSPECIFIED.,.F.,.F.,(4,1,1,1,1,1,1,1,1,1,1,1,1,1,1,1,1,1,4),(0.,0.00489513194701143,
0.00734269792051715,0.00979026389402286,0.0122378298675286,0.0146853958410343,
0.0159091788277872,0.01713296181454,0.0183567448012929,0.0195805277880457,
0.0208043107747986,0.0220280937615514,0.0232518767483043,0.0244756597350572,
0.0269232257085629,0.0293707916820686,0.0318183576555743,0.03426592362908,
0.0391610555760915),.UNSPECIFIED.);
#356=B_SPLINE_CURVE_WITH_KNOTS('',3,(#859,#860,#861,#862,#863,#864,#865,
#866,#867,#868,#869,#870,#871,#872,#873,#874,#875,#876,#877,#878,#879),
 .UNSPECIFIED.,.F.,.F.,(4,1,1,1,1,1,1,1,1,1,1,1,1,1,1,1,1,1,4),(0.,0.00513749695007308,
0.00770624542510963,0.0102749939001462,0.0128437423751827,0.0154124908502193,
0.0166968650877375,0.0179812393252558,0.0192656135627741,0.0205499878002923,
0.0218343620378106,0.0231187362753289,0.0244031105128471,0.0256874847503654,
0.028256233225402,0.0308249817004385,0.033393730175475,0.0359624786505116,
0.0410999756005847),.UNSPECIFIED.);
#357=B_SPLINE_CURVE_WITH_KNOTS('',3,(#887,#888,#889,#890,#891,#892,#893,
#894,#895,#896,#897,#898,#899,#900),.UNSPECIFIED.,.F.,.F.,(4,1,1,1,1,1,
1,1,1,1,1,4),(0.0113815018015378,0.0129948553919849,0.0146082089824321,
0.0154148857776557,0.0162215625728793,0.0170282393681028,0.0178349161633264,
0.01864159295855,0.0194482697537736,0.0210616233442208,0.0226749769346679,
0.0242883305251151),.UNSPECIFIED.);
#358=B_SPLINE_CURVE_WITH_KNOTS('',3,(#903,#904,#905,#906),.UNSPECIFIED.,
 .F.,.F.,(4,4),(0.00891540723530725,0.0109342311342709),.UNSPECIFIED.);
#359=B_SPLINE_CURVE_WITH_KNOTS('',3,(#908,#909,#910,#911),.UNSPECIFIED.,
 .F.,.F.,(4,4),(8.67361737988404E-19,0.00203696775806403),.UNSPECIFIED.);
#360=B_SPLINE_CURVE_WITH_KNOTS('',3,(#913,#914,#915,#916),.UNSPECIFIED.,
 .F.,.F.,(4,4),(0.,0.0133204279229402),.UNSPECIFIED.);
#361=B_SPLINE_CURVE_WITH_KNOTS('',3,(#918,#919,#920,#921),.UNSPECIFIED.,
 .F.,.F.,(4,4),(0.,0.00638667677769075),.UNSPECIFIED.);
#362=B_SPLINE_CURVE_WITH_KNOTS('',3,(#923,#924,#925,#926,#927),
 .UNSPECIFIED.,.F.,.F.,(4,1,4),(3.46944695195361E-18,0.00720653204695214,
0.0144130640939043),.UNSPECIFIED.);
#363=B_SPLINE_CURVE_WITH_KNOTS('',3,(#929,#930,#931,#932),.UNSPECIFIED.,
 .F.,.F.,(4,4),(7.75791922889773E-18,0.00280153358159903),.UNSPECIFIED.);
#364=B_SPLINE_CURVE_WITH_KNOTS('',3,(#933,#934,#935,#936,#937,#938,#939),
 .UNSPECIFIED.,.F.,.F.,(4,1,1,1,4),(0.00805119320004768,0.0095530115138239,
0.0110548298276001,0.0125566481413763,0.0140584664551525),.UNSPECIFIED.);
#365=B_SPLINE_CURVE_WITH_KNOTS('',3,(#942,#943,#944,#945),.UNSPECIFIED.,
 .F.,.F.,(4,4),(0.000818181672834904,0.0020396294478725),.UNSPECIFIED.);
#366=B_SPLINE_CURVE_WITH_KNOTS('',3,(#947,#948,#949,#950,#951,#952,#953,
#954,#955,#956,#957,#958),.UNSPECIFIED.,.F.,.F.,(4,1,1,1,1,1,1,1,1,4),(0.0101629596573485,
0.0116587090848633,0.0131544585123781,0.0146502079398928,0.0161459573674076,
0.016893832081165,0.0176417067949224,0.0191374562224372,0.020633205649952,
0.0221289550774668),.UNSPECIFIED.);
#367=B_SPLINE_CURVE_WITH_KNOTS('',3,(#960,#961,#962,#963),.UNSPECIFIED.,
 .F.,.F.,(4,4),(0.0080655788789313,0.0109763152476884),.UNSPECIFIED.);
#368=B_SPLINE_CURVE_WITH_KNOTS('',3,(#965,#966,#967,#968,#969),
 .UNSPECIFIED.,.F.,.F.,(4,1,4),(0.,0.00720653204695214,0.0144130640939043),
 .UNSPECIFIED.);
#369=B_SPLINE_CURVE_WITH_KNOTS('',3,(#971,#972,#973,#974),.UNSPECIFIED.,
 .F.,.F.,(4,4),(0.,0.00638685541089963),.UNSPECIFIED.);
#370=B_SPLINE_CURVE_WITH_KNOTS('',3,(#976,#977,#978,#979),.UNSPECIFIED.,
 .F.,.F.,(4,4),(2.6379777400251E-18,0.00731776762013553),.UNSPECIFIED.);
#371=B_SPLINE_CURVE_WITH_KNOTS('',3,(#981,#982,#983,#984),.UNSPECIFIED.,
 .F.,.F.,(4,4),(3.87216548504948E-17,0.000113500764359258),
 .UNSPECIFIED.);
#372=B_SPLINE_CURVE_WITH_KNOTS('',3,(#986,#987,#988,#989,#990,#991,#992),
 .UNSPECIFIED.,.F.,.F.,(4,1,1,1,4),(0.,0.000761904397469174,0.00152380879493835,
0.00228571319240752,0.0030476175898767),.UNSPECIFIED.);
#373=B_SPLINE_CURVE_WITH_KNOTS('',3,(#994,#995,#996,#997,#998,#999,#1000,
#1001,#1002,#1003,#1004,#1005,#1006,#1007,#1008,#1009),.UNSPECIFIED.,.F.,
 .F.,(4,1,1,1,1,1,1,1,1,1,1,1,1,4),(0.,0.000890321177729355,0.00178064235545871,
0.00267096353318806,0.00356128471091742,0.00534192706637613,0.00712256942183484,
0.00890321177729355,0.0106838541327523,0.0115741753104816,0.012464496488211,
0.0133548176659403,0.013799978254805,0.0142451388436697),.UNSPECIFIED.);
#374=B_SPLINE_CURVE_WITH_KNOTS('',3,(#1011,#1012,#1013,#1014),
 .UNSPECIFIED.,.F.,.F.,(4,4),(7.35980840008019E-18,0.003460982835348),
 .UNSPECIFIED.);
#375=EDGE_LOOP('',(#106,#107));
#376=EDGE_LOOP('',(#108,#109));
#377=EDGE_LOOP('',(#110));
#378=EDGE_LOOP('',(#111));
#379=EDGE_LOOP('',(#112,#113,#114,#115,#116,#117,#118));
#380=EDGE_LOOP('',(#119,#120,#121,#122,#123,#124,#125,#126,#127,#128,#129));
#381=EDGE_LOOP('',(#130));
#382=EDGE_LOOP('',(#131,#132));
#383=EDGE_LOOP('',(#133));
#384=EDGE_LOOP('',(#134,#135));
#385=EDGE_LOOP('',(#136,#137,#138));
#386=EDGE_LOOP('',(#139,#140,#141,#142,#143));
#387=EDGE_LOOP('',(#144,#145,#146,#147,#148,#149,#150,#151));
#388=EDGE_LOOP('',(#152));
#389=EDGE_LOOP('',(#153));
#390=EDGE_LOOP('',(#154));
#391=EDGE_LOOP('',(#155));
#392=EDGE_LOOP('',(#156,#157,#158,#159));
#393=EDGE_LOOP('',(#160));
#394=EDGE_LOOP('',(#161));
#395=EDGE_LOOP('',(#162));
#396=EDGE_LOOP('',(#163));
#397=EDGE_LOOP('',(#164));
#398=EDGE_LOOP('',(#165));
#399=EDGE_LOOP('',(#166));
#400=EDGE_LOOP('',(#167));
#401=EDGE_LOOP('',(#168));
#402=EDGE_LOOP('',(#169));
#403=EDGE_LOOP('',(#170));
#404=EDGE_LOOP('',(#171));
#405=EDGE_LOOP('',(#172));
#406=EDGE_LOOP('',(#173,#174));
#407=EDGE_LOOP('',(#175));
#408=EDGE_LOOP('',(#176,#177));
#409=EDGE_LOOP('',(#178));
#410=EDGE_LOOP('',(#179));
#411=EDGE_LOOP('',(#180));
#412=EDGE_LOOP('',(#181));
#413=EDGE_LOOP('',(#182,#183));
#414=EDGE_LOOP('',(#184));
#415=EDGE_LOOP('',(#185,#186));
#416=EDGE_LOOP('',(#187));
#417=EDGE_LOOP('',(#188));
#418=EDGE_LOOP('',(#189));
#419=EDGE_LOOP('',(#190));
#420=EDGE_LOOP('',(#191));
#421=EDGE_LOOP('',(#192));
#422=EDGE_LOOP('',(#193));
#423=EDGE_LOOP('',(#194));
#424=EDGE_LOOP('',(#195));
#425=EDGE_LOOP('',(#196));
#426=EDGE_LOOP('',(#197));
#427=EDGE_LOOP('',(#198));
#428=EDGE_LOOP('',(#199,#200,#201,#202));
#429=EDGE_LOOP('',(#203,#204,#205,#206));
#430=EDGE_LOOP('',(#207));
#431=EDGE_LOOP('',(#208));
#432=EDGE_LOOP('',(#209));
#433=EDGE_LOOP('',(#210,#211,#212,#213,#214,#215));
#434=EDGE_LOOP('',(#216,#217,#218,#219));
#435=EDGE_LOOP('',(#220,#221,#222,#223,#224,#225,#226,#227,#228,#229));
#436=EDGE_LOOP('',(#230,#231,#232,#233));
#437=EDGE_LOOP('',(#234,#235,#236,#237));
#438=FACE_BOUND('',#375,.T.);
#439=FACE_BOUND('',#376,.T.);
#440=FACE_BOUND('',#377,.T.);
#441=FACE_BOUND('',#378,.T.);
#442=FACE_BOUND('',#379,.T.);
#443=FACE_BOUND('',#380,.T.);
#444=FACE_BOUND('',#381,.T.);
#445=FACE_BOUND('',#382,.T.);
#446=FACE_BOUND('',#383,.T.);
#447=FACE_BOUND('',#384,.T.);
#448=FACE_BOUND('',#385,.T.);
#449=FACE_BOUND('',#386,.T.);
#450=FACE_BOUND('',#387,.T.);
#451=FACE_BOUND('',#388,.T.);
#452=FACE_BOUND('',#389,.T.);
#453=FACE_BOUND('',#390,.T.);
#454=FACE_BOUND('',#391,.T.);
#455=FACE_BOUND('',#392,.T.);
#456=FACE_BOUND('',#393,.T.);
#457=FACE_BOUND('',#394,.T.);
#458=FACE_BOUND('',#395,.T.);
#459=FACE_BOUND('',#396,.T.);
#460=FACE_BOUND('',#397,.T.);
#461=FACE_BOUND('',#398,.T.);
#462=FACE_BOUND('',#399,.T.);
#463=FACE_BOUND('',#400,.T.);
#464=FACE_BOUND('',#401,.T.);
#465=FACE_BOUND('',#402,.T.);
#466=FACE_BOUND('',#403,.T.);
#467=FACE_BOUND('',#404,.T.);
#468=FACE_BOUND('',#405,.T.);
#469=FACE_BOUND('',#406,.T.);
#470=FACE_BOUND('',#407,.T.);
#471=FACE_BOUND('',#408,.T.);
#472=FACE_BOUND('',#409,.T.);
#473=FACE_BOUND('',#410,.T.);
#474=FACE_BOUND('',#411,.T.);
#475=FACE_BOUND('',#412,.T.);
#476=FACE_BOUND('',#413,.T.);
#477=FACE_BOUND('',#414,.T.);
#478=FACE_BOUND('',#415,.T.);
#479=FACE_BOUND('',#416,.T.);
#480=FACE_BOUND('',#417,.T.);
#481=FACE_BOUND('',#418,.T.);
#482=FACE_BOUND('',#419,.T.);
#483=FACE_BOUND('',#420,.T.);
#484=FACE_BOUND('',#421,.T.);
#485=FACE_BOUND('',#422,.T.);
#486=FACE_BOUND('',#423,.T.);
#487=FACE_BOUND('',#424,.T.);
#488=FACE_BOUND('',#425,.T.);
#489=FACE_BOUND('',#426,.T.);
#490=FACE_BOUND('',#427,.T.);
#491=FACE_BOUND('',#428,.T.);
#492=FACE_BOUND('',#429,.T.);
#493=FACE_BOUND('',#430,.T.);
#494=FACE_BOUND('',#431,.T.);
#495=FACE_BOUND('',#432,.T.);
#496=FACE_BOUND('',#433,.T.);
#497=FACE_BOUND('',#434,.T.);
#498=FACE_BOUND('',#435,.T.);
#499=FACE_BOUND('',#436,.T.);
#500=FACE_BOUND('',#437,.T.);
#501=B_SPLINE_SURFACE_WITH_KNOTS('',3,3,((#759,#760,#761,#762,#763,#764,
#765,#766,#767,#768,#769,#770,#771,#772,#773,#774,#775,#776,#777),(#778,
#779,#780,#781,#782,#783,#784,#785,#786,#787,#788,#789,#790,#791,#792,#793,
#794,#795,#796),(#797,#798,#799,#800,#801,#802,#803,#804,#805,#806,#807,
#808,#809,#810,#811,#812,#813,#814,#815),(#816,#817,#818,#819,#820,#821,
#822,#823,#824,#825,#826,#827,#828,#829,#830,#831,#832,#833,#834)),
 .UNSPECIFIED.,.F.,.T.,.F.,(4,4),(1,1,1,1,1,1,1,1,1,1,1,1,1,1,1,1,1,1,1,
1,1,1,1),(0.,1.),(-1.17809724509617,-0.785398163397448,-0.392699081698725,
0.,0.392699081698724,0.785398163397448,1.17809724509617,1.5707963267949,
1.96349540849362,2.35619449019234,2.74889357189107,3.14159265358979,3.53429173528852,
3.92699081698724,4.31968989868597,4.71238898038469,5.10508806208341,5.49778714378214,
5.89048622548086,6.28318530717959,6.67588438887831,7.06858347057703,7.46128255227576),
 .UNSPECIFIED.);
#502=ADVANCED_FACE('',(#438,#439,#440,#441,#442,#443),#501,.T.);
#503=ADVANCED_FACE('',(#444,#445),#66,.F.);
#504=ADVANCED_FACE('',(#446,#447),#67,.F.);
#505=ADVANCED_FACE('',(#448),#68,.F.);
#506=ADVANCED_FACE('',(#449),#69,.F.);
#507=ADVANCED_FACE('',(#450),#16,.T.);
#508=ADVANCED_FACE('',(#451),#17,.F.);
#509=ADVANCED_FACE('',(#452,#453),#70,.T.);
#510=ADVANCED_FACE('',(#454,#455,#456,#457,#458,#459,#460),#18,.T.);
#511=ADVANCED_FACE('',(#461,#462),#71,.F.);
#512=ADVANCED_FACE('',(#463,#464),#72,.F.);
#513=ADVANCED_FACE('',(#465,#466),#73,.F.);
#514=ADVANCED_FACE('',(#467,#468),#74,.F.);
#515=ADVANCED_FACE('',(#469,#470),#75,.F.);
#516=ADVANCED_FACE('',(#471),#19,.T.);
#517=ADVANCED_FACE('',(#472,#473),#20,.F.);
#518=ADVANCED_FACE('',(#474,#475),#21,.F.);
#519=ADVANCED_FACE('',(#476,#477),#76,.F.);
#520=ADVANCED_FACE('',(#478),#22,.T.);
#521=ADVANCED_FACE('',(#479,#480),#23,.F.);
#522=ADVANCED_FACE('',(#481,#482),#24,.F.);
#523=ADVANCED_FACE('',(#483,#484),#12,.F.);
#524=ADVANCED_FACE('',(#485,#486),#13,.F.);
#525=ADVANCED_FACE('',(#487,#488),#14,.F.);
#526=ADVANCED_FACE('',(#489,#490),#15,.F.);
#527=ADVANCED_FACE('',(#491),#25,.F.);
#528=ADVANCED_FACE('',(#492),#77,.F.);
#529=ADVANCED_FACE('',(#493,#494),#78,.F.);
#530=ADVANCED_FACE('',(#495),#26,.T.);
#531=ADVANCED_FACE('',(#496),#27,.T.);
#532=ADVANCED_FACE('',(#497),#28,.F.);
#533=ADVANCED_FACE('',(#498),#29,.T.);
#534=ADVANCED_FACE('',(#499),#30,.F.);
#535=ADVANCED_FACE('',(#500),#31,.T.);
#536=CLOSED_SHELL('',(#502,#503,#504,#505,#506,#507,#508,#509,#510,#511,
#512,#513,#514,#515,#516,#517,#518,#519,#520,#521,#522,#523,#524,#525,#526,
#527,#528,#529,#530,#531,#532,#533,#534,#535));
#537=STYLED_ITEM('',(#538),#545);
#538=PRESENTATION_STYLE_ASSIGNMENT((#539));
#539=SURFACE_STYLE_USAGE(.BOTH.,#540);
#540=SURFACE_SIDE_STYLE('',(#541));
#541=SURFACE_STYLE_FILL_AREA(#542);
#542=FILL_AREA_STYLE('',(#543));
#543=FILL_AREA_STYLE_COLOUR('',#544);
#544=COLOUR_RGB('',0.615686274509804,0.811764705882353,0.929411764705882);
#545=MANIFOLD_SOLID_BREP('Part 1',#536);
#546=SHAPE_DEFINITION_REPRESENTATION(#1123,#547);
#547=SHAPE_REPRESENTATION('Part 1',(#548),#1118);
#548=AXIS2_PLACEMENT_3D('',#758,#613,#614);
#549=AXIS2_PLACEMENT_3D('',#858,#615,#616);
#550=AXIS2_PLACEMENT_3D('',#882,#617,#618);
#551=AXIS2_PLACEMENT_3D('',#883,#619,#620);
#552=AXIS2_PLACEMENT_3D('',#885,#621,#622);
#553=AXIS2_PLACEMENT_3D('',#1015,#623,#624);
#554=AXIS2_PLACEMENT_3D('',#1016,#625,#626);
#555=AXIS2_PLACEMENT_3D('',#1018,#627,#628);
#556=AXIS2_PLACEMENT_3D('',#1019,#629,#630);
#557=AXIS2_PLACEMENT_3D('',#1020,#631,#632);
#558=AXIS2_PLACEMENT_3D('',#1022,#633,#634);
#559=AXIS2_PLACEMENT_3D('',#1023,#635,#636);
#560=AXIS2_PLACEMENT_3D('',#1024,#637,#638);
#561=AXIS2_PLACEMENT_3D('',#1027,#640,#641);
#562=AXIS2_PLACEMENT_3D('',#1028,#642,#643);
#563=AXIS2_PLACEMENT_3D('',#1032,#645,#646);
#564=AXIS2_PLACEMENT_3D('',#1035,#648,#649);
#565=AXIS2_PLACEMENT_3D('',#1044,#655,#656);
#566=AXIS2_PLACEMENT_3D('',#1045,#657,#658);
#567=AXIS2_PLACEMENT_3D('',#1046,#659,#660);
#568=AXIS2_PLACEMENT_3D('',#1048,#661,#662);
#569=AXIS2_PLACEMENT_3D('',#1049,#663,#664);
#570=AXIS2_PLACEMENT_3D('',#1053,#666,#667);
#571=AXIS2_PLACEMENT_3D('',#1054,#668,#669);
#572=AXIS2_PLACEMENT_3D('',#1056,#670,#671);
#573=AXIS2_PLACEMENT_3D('',#1058,#672,#673);
#574=AXIS2_PLACEMENT_3D('',#1060,#674,#675);
#575=AXIS2_PLACEMENT_3D('',#1062,#676,#677);
#576=AXIS2_PLACEMENT_3D('',#1063,#678,#679);
#577=AXIS2_PLACEMENT_3D('',#1065,#680,#681);
#578=AXIS2_PLACEMENT_3D('',#1066,#682,#683);
#579=AXIS2_PLACEMENT_3D('',#1068,#684,#685);
#580=AXIS2_PLACEMENT_3D('',#1069,#686,#687);
#581=AXIS2_PLACEMENT_3D('',#1071,#688,#689);
#582=AXIS2_PLACEMENT_3D('',#1072,#690,#691);
#583=AXIS2_PLACEMENT_3D('',#1074,#692,#693);
#584=AXIS2_PLACEMENT_3D('',#1075,#694,#695);
#585=AXIS2_PLACEMENT_3D('',#1076,#696,#697);
#586=AXIS2_PLACEMENT_3D('',#1078,#698,#699);
#587=AXIS2_PLACEMENT_3D('',#1079,#700,#701);
#588=AXIS2_PLACEMENT_3D('',#1080,#702,#703);
#589=AXIS2_PLACEMENT_3D('',#1082,#704,#705);
#590=AXIS2_PLACEMENT_3D('',#1083,#706,#707);
#591=AXIS2_PLACEMENT_3D('',#1085,#708,#709);
#592=AXIS2_PLACEMENT_3D('',#1086,#710,#711);
#593=AXIS2_PLACEMENT_3D('',#1087,#712,#713);
#594=AXIS2_PLACEMENT_3D('',#1089,#714,#715);
#595=AXIS2_PLACEMENT_3D('',#1090,#716,#717);
#596=AXIS2_PLACEMENT_3D('',#1091,#718,#719);
#597=AXIS2_PLACEMENT_3D('',#1093,#720,#721);
#598=AXIS2_PLACEMENT_3D('',#1094,#722,#723);
#599=AXIS2_PLACEMENT_3D('',#1096,#724,#725);
#600=AXIS2_PLACEMENT_3D('',#1097,#726,#727);
#601=AXIS2_PLACEMENT_3D('',#1098,#728,#729);
#602=AXIS2_PLACEMENT_3D('',#1099,#730,#731);
#603=AXIS2_PLACEMENT_3D('',#1100,#732,#733);
#604=AXIS2_PLACEMENT_3D('',#1102,#735,#736);
#605=AXIS2_PLACEMENT_3D('',#1103,#737,#738);
#606=AXIS2_PLACEMENT_3D('',#1104,#739,#740);
#607=AXIS2_PLACEMENT_3D('',#1106,#741,#742);
#608=AXIS2_PLACEMENT_3D('',#1107,#743,#744);
#609=AXIS2_PLACEMENT_3D('',#1110,#747,#748);
#610=AXIS2_PLACEMENT_3D('',#1112,#750,#751);
#611=AXIS2_PLACEMENT_3D('',#1114,#753,#754);
#612=AXIS2_PLACEMENT_3D('',#1116,#756,#757);
#613=DIRECTION('',(0.,0.,1.));
#614=DIRECTION('',(1.,0.,0.));
#615=DIRECTION('',(-1.,0.,0.));
#616=DIRECTION('',(0.,0.,1.));
#617=DIRECTION('',(-1.,0.,0.));
#618=DIRECTION('',(0.,0.,1.));
#619=DIRECTION('',(1.,0.,0.));
#620=DIRECTION('',(0.,0.,-1.));
#621=DIRECTION('',(-1.,0.,0.));
#622=DIRECTION('',(0.,0.,1.));
#623=DIRECTION('',(1.,0.,0.));
#624=DIRECTION('',(0.,0.,-1.));
#625=DIRECTION('',(1.,0.,0.));
#626=DIRECTION('',(0.,0.,-1.));
#627=DIRECTION('',(-0.981334678628698,0.,-0.192307692307692));
#628=DIRECTION('',(0.192307692307692,0.,-0.981334678628698));
#629=DIRECTION('',(1.,0.,0.));
#630=DIRECTION('',(0.,0.,-1.));
#631=DIRECTION('',(1.,0.,0.));
#632=DIRECTION('',(0.,0.,-1.));
#633=DIRECTION('',(-0.981334678628698,0.,-0.192307692307692));
#634=DIRECTION('',(0.192307692307692,0.,-0.981334678628698));
#635=DIRECTION('',(1.,0.,0.));
#636=DIRECTION('',(0.,0.,-1.));
#637=DIRECTION('',(0.127886177358663,0.,0.991788851339129));
#638=DIRECTION('',(0.991788851339129,0.,-0.127886177358663));
#639=DIRECTION('',(1.,0.,0.));
#640=DIRECTION('',(1.,0.,0.));
#641=DIRECTION('',(0.,0.,-1.));
#642=DIRECTION('',(-0.981334678628698,0.,-0.192307692307692));
#643=DIRECTION('',(0.192307692307692,0.,-0.981334678628698));
#644=DIRECTION('',(1.,0.,0.));
#645=DIRECTION('',(1.,0.,0.));
#646=DIRECTION('',(0.,0.,-1.));
#647=DIRECTION('',(1.,0.,0.));
#648=DIRECTION('',(0.,0.711840286475201,-0.702341374654024));
#649=DIRECTION('',(0.,0.702341374654024,0.711840286475201));
#650=DIRECTION('',(0.983986609954831,-0.125187008832833,-0.126880117627179));
#651=DIRECTION('',(-0.964132855764411,-0.186415527092232,-0.188936729342092));
#652=DIRECTION('',(-0.138158355911396,0.695606027452247,0.70501384615053));
#653=DIRECTION('',(0.,0.702341374654024,0.711840286475201));
#654=DIRECTION('',(1.,0.,0.));
#655=DIRECTION('',(1.,0.,0.));
#656=DIRECTION('',(0.,1.,0.));
#657=DIRECTION('',(-1.,0.,0.));
#658=DIRECTION('',(0.,0.,1.));
#659=DIRECTION('',(1.,0.,0.));
#660=DIRECTION('',(0.,0.,-1.));
#661=DIRECTION('',(1.,0.,0.));
#662=DIRECTION('',(0.,1.,0.));
#663=DIRECTION('',(1.,0.,0.));
#664=DIRECTION('',(0.,0.,-1.));
#665=DIRECTION('',(0.,0.702341374654024,0.711840286475201));
#666=DIRECTION('',(1.,0.,0.));
#667=DIRECTION('',(0.,0.,-1.));
#668=DIRECTION('',(1.,0.,0.));
#669=DIRECTION('',(0.,0.,-1.));
#670=DIRECTION('',(1.,0.,0.));
#671=DIRECTION('',(0.,0.,-1.));
#672=DIRECTION('',(1.,0.,0.));
#673=DIRECTION('',(0.,0.,-1.));
#674=DIRECTION('',(1.,0.,0.));
#675=DIRECTION('',(0.,0.,-1.));
#676=DIRECTION('',(1.,0.,0.));
#677=DIRECTION('',(0.,0.,-1.));
#678=DIRECTION('',(1.,0.,0.));
#679=DIRECTION('',(0.,0.,-1.));
#680=DIRECTION('',(1.,0.,0.));
#681=DIRECTION('',(0.,0.,-1.));
#682=DIRECTION('',(1.,0.,0.));
#683=DIRECTION('',(0.,0.,-1.));
#684=DIRECTION('',(1.,0.,0.));
#685=DIRECTION('',(0.,0.,-1.));
#686=DIRECTION('',(1.,0.,0.));
#687=DIRECTION('',(0.,0.,-1.));
#688=DIRECTION('',(1.,0.,0.));
#689=DIRECTION('',(0.,0.,-1.));
#690=DIRECTION('',(1.,0.,0.));
#691=DIRECTION('',(0.,0.,-1.));
#692=DIRECTION('',(1.,0.,0.));
#693=DIRECTION('',(0.,0.,-1.));
#694=DIRECTION('',(1.,0.,0.));
#695=DIRECTION('',(0.,0.,-1.));
#696=DIRECTION('',(1.,0.,0.));
#697=DIRECTION('',(0.,0.,-1.));
#698=DIRECTION('',(1.,0.,0.));
#699=DIRECTION('',(0.,1.,0.));
#700=DIRECTION('',(1.,0.,0.));
#701=DIRECTION('',(0.,1.,0.));
#702=DIRECTION('',(1.,0.,0.));
#703=DIRECTION('',(0.,0.,-1.));
#704=DIRECTION('',(1.,0.,0.));
#705=DIRECTION('',(0.,1.,0.));
#706=DIRECTION('',(1.,0.,0.));
#707=DIRECTION('',(0.,0.,-1.));
#708=DIRECTION('',(1.,0.,0.));
#709=DIRECTION('',(0.,0.,-1.));
#710=DIRECTION('',(1.,0.,0.));
#711=DIRECTION('',(0.,0.,-1.));
#712=DIRECTION('',(1.,0.,0.));
#713=DIRECTION('',(0.,0.,-1.));
#714=DIRECTION('',(1.,0.,0.));
#715=DIRECTION('',(0.,1.,0.));
#716=DIRECTION('',(1.,0.,0.));
#717=DIRECTION('',(0.,1.,0.));
#718=DIRECTION('',(1.,0.,0.));
#719=DIRECTION('',(0.,0.,-1.));
#720=DIRECTION('',(1.,0.,0.));
#721=DIRECTION('',(0.,1.,0.));
#722=DIRECTION('',(1.,0.,0.));
#723=DIRECTION('',(0.,0.,-1.));
#724=DIRECTION('',(-1.,0.,0.));
#725=DIRECTION('',(0.,0.,1.));
#726=DIRECTION('',(-1.,0.,0.));
#727=DIRECTION('',(0.,0.,1.));
#728=DIRECTION('',(-1.,0.,0.));
#729=DIRECTION('',(0.,0.,1.));
#730=DIRECTION('',(-1.,0.,0.));
#731=DIRECTION('',(0.,0.,1.));
#732=DIRECTION('',(0.,0.711840286475201,-0.702341374654024));
#733=DIRECTION('',(0.,0.702341374654024,0.711840286475201));
#734=DIRECTION('',(1.,0.,0.));
#735=DIRECTION('',(1.,0.,0.));
#736=DIRECTION('',(0.,0.,-1.));
#737=DIRECTION('',(1.,0.,0.));
#738=DIRECTION('',(0.,0.,-1.));
#739=DIRECTION('',(1.,0.,0.));
#740=DIRECTION('',(0.,0.,-1.));
#741=DIRECTION('',(1.,0.,0.));
#742=DIRECTION('',(0.,1.,0.));
#743=DIRECTION('',(0.127886177358663,0.,0.991788851339129));
#744=DIRECTION('',(0.991788851339129,0.,-0.127886177358663));
#745=DIRECTION('',(0.,-1.,0.));
#746=DIRECTION('',(0.,-1.,0.));
#747=DIRECTION('',(0.192307692307693,0.,-0.981334678628698));
#748=DIRECTION('',(-0.981334678628698,0.,-0.192307692307693));
#749=DIRECTION('',(0.,-1.,0.));
#750=DIRECTION('',(-0.981334678628698,0.,-0.192307692307692));
#751=DIRECTION('',(-0.192307692307692,0.,0.981334678628698));
#752=DIRECTION('',(0.,-1.,0.));
#753=DIRECTION('',(-0.192307692307688,0.,0.981334678628699));
#754=DIRECTION('',(0.981334678628699,0.,0.192307692307688));
#755=DIRECTION('',(0.,-1.,0.));
#756=DIRECTION('',(0.981334678628697,0.,0.192307692307698));
#757=DIRECTION('',(0.192307692307698,0.,-0.981334678628697));
#758=CARTESIAN_POINT('',(0.,0.,0.));
#759=CARTESIAN_POINT('',(0.,-0.00274852366190495,0.00663552310107433));
#760=CARTESIAN_POINT('',(0.,-5.2583805365547E-18,0.00718223844946284));
#761=CARTESIAN_POINT('',(0.,0.00274852366190496,0.00663552310107432));
#762=CARTESIAN_POINT('',(0.,0.00507860951171393,0.00507860951171393));
#763=CARTESIAN_POINT('',(0.,0.00663552310107432,0.00274852366190496));
#764=CARTESIAN_POINT('',(0.,0.00718223844946284,3.67612299108366E-19));
#765=CARTESIAN_POINT('',(0.,0.00663552310107432,-0.00274852366190496));
#766=CARTESIAN_POINT('',(0.,0.00507860951171393,-0.00507860951171393));
#767=CARTESIAN_POINT('',(0.,0.00274852366190496,-0.00663552310107432));
#768=CARTESIAN_POINT('',(0.,1.40150865546085E-18,-0.00718223844946284));
#769=CARTESIAN_POINT('',(0.,-0.00274852366190496,-0.00663552310107432));
#770=CARTESIAN_POINT('',(0.,-0.00507860951171393,-0.00507860951171393));
#771=CARTESIAN_POINT('',(0.,-0.00663552310107432,-0.00274852366190496));
#772=CARTESIAN_POINT('',(0.,-0.00718223844946284,-2.1074179727687E-18));
#773=CARTESIAN_POINT('',(0.,-0.00663552310107432,0.00274852366190496));
#774=CARTESIAN_POINT('',(0.,-0.00507860951171393,0.00507860951171393));
#775=CARTESIAN_POINT('',(0.,-0.00274852366190495,0.00663552310107433));
#776=CARTESIAN_POINT('',(0.,-5.2583805365547E-18,0.00718223844946284));
#777=CARTESIAN_POINT('',(0.,0.00274852366190496,0.00663552310107432));
#778=CARTESIAN_POINT('',(0.0114372466323744,-0.00274852366190495,0.00663552310107432));
#779=CARTESIAN_POINT('',(0.0114372466323744,-5.63785129692462E-18,0.00718223844946284));
#780=CARTESIAN_POINT('',(0.0114372466323744,0.00274852366190496,0.00663552310107432));
#781=CARTESIAN_POINT('',(0.0114372466323744,0.00507860951171393,0.00507860951171393));
#782=CARTESIAN_POINT('',(0.0114372466323744,0.00663552310107432,0.00274852366190496));
#783=CARTESIAN_POINT('',(0.0114372466323744,0.00718223844946284,-8.62279540304878E-19));
#784=CARTESIAN_POINT('',(0.0114372466323744,0.00663552310107432,-0.00274852366190496));
#785=CARTESIAN_POINT('',(0.0114372466323744,0.00507860951171393,-0.00507860951171393));
#786=CARTESIAN_POINT('',(0.0114372466323744,0.00274852366190496,-0.00663552310107431));
#787=CARTESIAN_POINT('',(0.0114372466323744,1.31433705378756E-18,-0.00718223844946284));
#788=CARTESIAN_POINT('',(0.0114372466323744,-0.00274852366190496,-0.00663552310107431));
#789=CARTESIAN_POINT('',(0.0114372466323744,-0.00507860951171393,-0.00507860951171394));
#790=CARTESIAN_POINT('',(0.0114372466323744,-0.00663552310107432,-0.00274852366190496));
#791=CARTESIAN_POINT('',(0.0114372466323744,-0.00718223844946284,-3.60836035530332E-18));
#792=CARTESIAN_POINT('',(0.0114372466323744,-0.00663552310107432,0.00274852366190496));
#793=CARTESIAN_POINT('',(0.0114372466323744,-0.00507860951171393,0.00507860951171393));
#794=CARTESIAN_POINT('',(0.0114372466323744,-0.00274852366190495,0.00663552310107432));
#795=CARTESIAN_POINT('',(0.0114372466323744,-5.63785129692462E-18,0.00718223844946284));
#796=CARTESIAN_POINT('',(0.0114372466323744,0.00274852366190496,0.00663552310107432));
#797=CARTESIAN_POINT('',(0.0197705799657078,-0.0035992571763041,0.0086893754895021));
#798=CARTESIAN_POINT('',(0.0197705799657078,-6.88468379528295E-18,0.00940531225524895));
#799=CARTESIAN_POINT('',(0.0197705799657078,0.00359925717630412,0.00868937548950208));
#800=CARTESIAN_POINT('',(0.0197705799657078,0.00665056007486348,0.00665056007486348));
#801=CARTESIAN_POINT('',(0.0197705799657078,0.00868937548950208,0.00359925717630412));
#802=CARTESIAN_POINT('',(0.0197705799657078,0.00940531225524896,4.59769483769634E-18));
#803=CARTESIAN_POINT('',(0.0197705799657078,0.00868937548950208,-0.00359925717630412));
#804=CARTESIAN_POINT('',(0.0197705799657078,0.00665056007486348,-0.00665056007486347));
#805=CARTESIAN_POINT('',(0.0197705799657078,0.00359925717630412,-0.00868937548950209));
#806=CARTESIAN_POINT('',(0.0197705799657078,9.94893136109379E-19,-0.00940531225524895));
#807=CARTESIAN_POINT('',(0.0197705799657078,-0.00359925717630411,-0.0086893754895021));
#808=CARTESIAN_POINT('',(0.0197705799657078,-0.00665056007486348,-0.00665056007486347));
#809=CARTESIAN_POINT('',(0.0197705799657078,-0.00868937548950208,-0.00359925717630412));
#810=CARTESIAN_POINT('',(0.0197705799657078,-0.00940531225524896,8.40256683676266E-19));
#811=CARTESIAN_POINT('',(0.0197705799657078,-0.00868937548950209,0.00359925717630412));
#812=CARTESIAN_POINT('',(0.0197705799657078,-0.00665056007486348,0.00665056007486348));
#813=CARTESIAN_POINT('',(0.0197705799657078,-0.0035992571763041,0.0086893754895021));
#814=CARTESIAN_POINT('',(0.0197705799657078,-6.88468379528295E-18,0.00940531225524895));
#815=CARTESIAN_POINT('',(0.0197705799657078,0.00359925717630412,0.00868937548950208));
#816=CARTESIAN_POINT('',(0.025,-0.0053007242051024,0.0127970802663576));
#817=CARTESIAN_POINT('',(0.025,-9.86623976961809E-18,0.0138514598668212));
#818=CARTESIAN_POINT('',(0.025,0.00530072420510243,0.0127970802663576));
#819=CARTESIAN_POINT('',(0.025,0.00979446120116258,0.00979446120116258));
#820=CARTESIAN_POINT('',(0.025,0.0127970802663576,0.00530072420510243));
#821=CARTESIAN_POINT('',(0.025,0.0138514598668212,5.38712954453735E-19));
#822=CARTESIAN_POINT('',(0.025,0.0127970802663576,-0.00530072420510242));
#823=CARTESIAN_POINT('',(0.025,0.00979446120116258,-0.00979446120116258));
#824=CARTESIAN_POINT('',(0.025,0.00530072420510243,-0.0127970802663576));
#825=CARTESIAN_POINT('',(0.025,1.75047299483982E-18,-0.0138514598668212));
#826=CARTESIAN_POINT('',(0.025,-0.00530072420510242,-0.0127970802663576));
#827=CARTESIAN_POINT('',(0.025,-0.00979446120116258,-0.00979446120116258));
#828=CARTESIAN_POINT('',(0.025,-0.0127970802663576,-0.00530072420510243));
#829=CARTESIAN_POINT('',(0.025,-0.0138514598668212,-4.16740210049116E-18));
#830=CARTESIAN_POINT('',(0.025,-0.0127970802663576,0.00530072420510242));
#831=CARTESIAN_POINT('',(0.025,-0.00979446120116257,0.00979446120116259));
#832=CARTESIAN_POINT('',(0.025,-0.0053007242051024,0.0127970802663576));
#833=CARTESIAN_POINT('',(0.025,-9.86623976961809E-18,0.0138514598668212));
#834=CARTESIAN_POINT('',(0.025,0.00530072420510243,0.0127970802663576));
#835=CARTESIAN_POINT('',(0.0064,-0.00201960057071607,0.00696554744803067));
#836=CARTESIAN_POINT('',(0.00802596087009011,-0.00214019321806306,0.00707212156294672));
#837=CARTESIAN_POINT('',(0.0104497765924877,-0.00238047302588636,0.00730444211892208));
#838=CARTESIAN_POINT('',(0.0136564029094921,-0.00272930770837096,0.0078543631278799));
#839=CARTESIAN_POINT('',(0.0160169667319685,-0.00296125404285066,0.00842056330216708));
#840=CARTESIAN_POINT('',(0.0183410180970417,-0.00309118124910612,0.00919534486970084));
#841=CARTESIAN_POINT('',(0.0201943947259743,-0.00299271409148022,0.0100600728739867));
#842=CARTESIAN_POINT('',(0.0215699348261561,-0.00260930394490997,0.0108889936939545));
#843=CARTESIAN_POINT('',(0.0224922230580517,-0.0020812746313705,0.0115430538563946));
#844=CARTESIAN_POINT('',(0.0232003410127264,-0.00121779837630138,0.0121264300728469));
#845=CARTESIAN_POINT('',(0.0234908161771304,1.60776000858265E-5,0.012391137189125));
#846=CARTESIAN_POINT('',(0.023187098785965,0.00124540427950281,0.0121145833306301));
#847=CARTESIAN_POINT('',(0.0224663335330504,0.00210255042906509,0.0115231132570294));
#848=CARTESIAN_POINT('',(0.0215444279584578,0.00261892781988616,0.0108725141645881));
#849=CARTESIAN_POINT('',(0.02017131147469,0.00299615350232913,0.0100477188940787));
#850=CARTESIAN_POINT('',(0.0183004691164061,0.00309082941726086,0.00917943196579571));
#851=CARTESIAN_POINT('',(0.0160005561984023,0.00295971123336406,0.00841653205166121));
#852=CARTESIAN_POINT('',(0.0136403449449495,0.00272793123106,0.00785091985241333));
#853=CARTESIAN_POINT('',(0.010440468457192,0.00237965019928926,0.00730356832271857));
#854=CARTESIAN_POINT('',(0.00802265912536129,0.00214016830378193,0.00707183858385246));
#855=CARTESIAN_POINT('',(0.0064,0.00201981722881865,0.00696548462622455));
#856=CARTESIAN_POINT('',(0.0064,-0.00201960057071607,0.00696554744803067));
#857=CARTESIAN_POINT('',(0.0064,0.00201981722881865,0.00696548462622455));
#858=CARTESIAN_POINT('',(0.0064,0.,4.28626379701574E-19));
#859=CARTESIAN_POINT('',(0.0064,0.00150286437148317,-0.00709500080316625));
#860=CARTESIAN_POINT('',(0.0081011041850325,0.00168970747173077,-0.0072008019324713));
#861=CARTESIAN_POINT('',(0.0106350681491107,0.00203842973216514,-0.00743428117369395));
#862=CARTESIAN_POINT('',(0.0139860129635394,0.00252372748633007,-0.00800069358591655));
#863=CARTESIAN_POINT('',(0.0164526248721138,0.00285533967091085,-0.00859190093913474));
#864=CARTESIAN_POINT('',(0.0188884653199731,0.00308091325363209,-0.00941731176096034));
#865=CARTESIAN_POINT('',(0.0208221075544762,0.00304890732127455,-0.0103527579907601));
#866=CARTESIAN_POINT('',(0.0222539663734971,0.00268756962378341,-0.0112638334637284));
#867=CARTESIAN_POINT('',(0.0232011857937221,0.00215508893176746,-0.0119811460824494));
#868=CARTESIAN_POINT('',(0.0239232108659861,0.00124393750476418,-0.0126227278098935));
#869=CARTESIAN_POINT('',(0.0242008978055142,-5.11473481404128E-5,-0.0128972233793846));
#870=CARTESIAN_POINT('',(0.0238786411361853,-0.00133442064572963,-0.0125802109308464));
#871=CARTESIAN_POINT('',(0.0231314810495782,-0.00220992159621731,-0.0119239361142245));
#872=CARTESIAN_POINT('',(0.0221698583054897,-0.00271828153027172,-0.0112058006214668));
#873=CARTESIAN_POINT('',(0.0207335035397993,-0.00305588953681941,-0.0103048914719905));
#874=CARTESIAN_POINT('',(0.0187969328248305,-0.00307593557541095,-0.00938067142490249));
#875=CARTESIAN_POINT('',(0.016358886019236,-0.00284379366419844,-0.00856574041515101));
#876=CARTESIAN_POINT('',(0.0139088633221787,-0.00251259638545267,-0.00798598371881248));
#877=CARTESIAN_POINT('',(0.0106024745619205,-0.00203380821443786,-0.00743168240630236));
#878=CARTESIAN_POINT('',(0.00808980047177982,-0.00168846591295558,-0.00720009889168285));
#879=CARTESIAN_POINT('',(0.0064,-0.00150286437148317,-0.00709500080316625));
#880=CARTESIAN_POINT('',(0.0064,0.00150286437148317,-0.00709500080316625));
#881=CARTESIAN_POINT('',(0.0064,-0.00150286437148317,-0.00709500080316625));
#882=CARTESIAN_POINT('',(0.0064,0.,4.28626379701574E-19));
#883=CARTESIAN_POINT('',(0.025,0.,8.26636589424463E-19));
#884=CARTESIAN_POINT('',(0.025,0.,-0.0135));
#885=CARTESIAN_POINT('',(0.,0.,4.28626379701574E-19));
#886=CARTESIAN_POINT('',(0.,0.,0.007));
#887=CARTESIAN_POINT('',(0.0174909083432822,-0.00892936671067303,-0.00302400383971024));
#888=CARTESIAN_POINT('',(0.0179871004014621,-0.00913015068783316,-0.00296706534981597));
#889=CARTESIAN_POINT('',(0.018970755591573,-0.00957207052559885,-0.00279847292290826));
#890=CARTESIAN_POINT('',(0.0200993871892106,-0.0102046738182881,-0.00234790326615869));
#891=CARTESIAN_POINT('',(0.0208562815424478,-0.0106967169096026,-0.00172789511512101));
#892=CARTESIAN_POINT('',(0.0212942901673419,-0.0110088478639095,-0.00109827457264683));
#893=CARTESIAN_POINT('',(0.0215109261699685,-0.0111776457286627,-0.000307269892018675));
#894=CARTESIAN_POINT('',(0.0214220097839707,-0.0111204009872709,0.000525068417760624));
#895=CARTESIAN_POINT('',(0.021066708319866,-0.010873274521905,0.00123581332610371));
#896=CARTESIAN_POINT('',(0.0203729550066908,-0.0104191364139337,0.00195613844790537));
#897=CARTESIAN_POINT('',(0.01928113715153,-0.00978929123999072,0.00249381637904823));
#898=CARTESIAN_POINT('',(0.017829432529456,-0.00911169180401327,0.00281116513697147));
#899=CARTESIAN_POINT('',(0.0168309495549056,-0.00873460619867538,0.00289806144763951));
#900=CARTESIAN_POINT('',(0.016325174317936,-0.00856205981879375,0.00292466733096316));
#901=CARTESIAN_POINT('',(0.0174909083432821,-0.00892936671067303,-0.00302400383971025));
#902=CARTESIAN_POINT('',(0.0163251743179359,-0.00856205981879374,0.00292466733096315));
#903=CARTESIAN_POINT('',(0.017490908343282,-0.00892936671067296,-0.00302400383971026));
#904=CARTESIAN_POINT('',(0.0176168159814567,-0.00875783460864636,-0.0036665030042648));
#905=CARTESIAN_POINT('',(0.017740627936829,-0.0085155067306358,-0.00429830802452992));
#906=CARTESIAN_POINT('',(0.0178584188028091,-0.00820606784852575,-0.00489938778491218));
#907=CARTESIAN_POINT('',(0.0178584188028091,-0.00820606784852575,-0.00489938778491218));
#908=CARTESIAN_POINT('',(0.0160786757622972,-0.00727864500155338,-0.00524815593147331));
#909=CARTESIAN_POINT('',(0.0166749167394381,-0.00758182116235596,-0.00513131329983059));
#910=CARTESIAN_POINT('',(0.0172688215462251,-0.00788965264518996,-0.00501492847686352));
#911=CARTESIAN_POINT('',(0.0178584188028091,-0.00820606784852575,-0.00489938778491218));
#912=CARTESIAN_POINT('',(0.0160786757622972,-0.00727864500155338,-0.00524815593147332));
#913=CARTESIAN_POINT('',(0.0160786757622972,-0.00727864500155338,-0.00524815593147331));
#914=CARTESIAN_POINT('',(0.0117625503302137,-0.00609513083802953,-0.00469161329463647));
#915=CARTESIAN_POINT('',(0.00735554471830968,-0.00593389546541179,-0.00412335211631851));
#916=CARTESIAN_POINT('',(0.00292037855633262,-0.00608942809585807,-0.00355145977689575));
#917=CARTESIAN_POINT('',(0.00292037855633261,-0.00608942809585805,-0.00355145977689579));
#918=CARTESIAN_POINT('',(0.00292037855633261,-0.00608942809585805,-0.00355145977689579));
#919=CARTESIAN_POINT('',(0.00255869660003774,-0.00715132204024397,-0.00170581833589442));
#920=CARTESIAN_POINT('',(0.0021148128231732,-0.0073175393989796,0.000559294090398363));
#921=CARTESIAN_POINT('',(0.00172719943055578,-0.00654214812649432,0.00253726210359557));
#922=CARTESIAN_POINT('',(0.00172719943055578,-0.00654214812649432,0.00253726210359557));
#923=CARTESIAN_POINT('',(0.0158584188028091,-0.00715567610058572,0.00530649287282629));
#924=CARTESIAN_POINT('',(0.013520132820168,-0.00664880768319023,0.00484826960703334));
#925=CARTESIAN_POINT('',(0.00881769295477139,-0.00625375950248326,0.00392675386075016));
#926=CARTESIAN_POINT('',(0.00409208337852756,-0.00641286674823595,0.00300069765164474));
#927=CARTESIAN_POINT('',(0.00172719943055578,-0.00654214812649432,0.00253726210359557));
#928=CARTESIAN_POINT('',(0.0158584188028091,-0.00715567610058572,0.0053064928728263));
#929=CARTESIAN_POINT('',(0.0158584188028091,-0.00715567610058572,0.00530649287282629));
#930=CARTESIAN_POINT('',(0.0160016512640771,-0.00774956398190492,0.00457558616981825));
#931=CARTESIAN_POINT('',(0.016157507375972,-0.00821561480018797,0.00378026173092936));
#932=CARTESIAN_POINT('',(0.0163251743179359,-0.00856205981879374,0.00292466733096315));
#933=CARTESIAN_POINT('',(0.0177139188020464,0.00854612515273943,-0.00416201290349836));
#934=CARTESIAN_POINT('',(0.0181860918617321,0.00869537542698891,-0.00423817638657883));
#935=CARTESIAN_POINT('',(0.0191293304071378,0.00899927915877482,-0.00443785408138302));
#936=CARTESIAN_POINT('',(0.0204915565585168,0.00942041697346215,-0.00494663775513146));
#937=CARTESIAN_POINT('',(0.0217415754779497,0.00972647242534313,-0.00573773162383807));
#938=CARTESIAN_POINT('',(0.0223744564955789,0.00960040852440212,-0.00663462019827255));
#939=CARTESIAN_POINT('',(0.0224358088881733,0.00932144681138402,-0.00706348247186836));
#940=CARTESIAN_POINT('',(0.0177139188020464,0.00854612515273942,-0.00416201290349836));
#941=CARTESIAN_POINT('',(0.0224358088881733,0.00932144681138401,-0.00706348247186835));
#942=CARTESIAN_POINT('',(0.0177139188020463,0.00854612515273939,-0.00416201290349837));
#943=CARTESIAN_POINT('',(0.0176410164288982,0.00869852853942159,-0.00378999644349074));
#944=CARTESIAN_POINT('',(0.0175666501500531,0.00882619469543754,-0.00341050976006392));
#945=CARTESIAN_POINT('',(0.0174908398711024,0.00892945998754229,-0.00302365443026363));
#946=CARTESIAN_POINT('',(0.0174908398711024,0.00892945998754229,-0.00302365443026363));
#947=CARTESIAN_POINT('',(0.0163464139203553,0.00860516236215375,0.00281628290720826));
#948=CARTESIAN_POINT('',(0.0168128884831809,0.00876824876815369,0.00277767942919116));
#949=CARTESIAN_POINT('',(0.0177343468660253,0.00912180446821654,0.00266759976574741));
#950=CARTESIAN_POINT('',(0.0190793323340198,0.00974869178346581,0.00231859815643508));
#951=CARTESIAN_POINT('',(0.0202836916915324,0.0104268475524672,0.00167585887092146));
#952=CARTESIAN_POINT('',(0.0210169134523064,0.0109110697076834,0.000680311366765415));
#953=CARTESIAN_POINT('',(0.0211389909333824,0.0109796953361404,-0.00034921008827732));
#954=CARTESIAN_POINT('',(0.0208908133361593,0.0107829473234464,-0.00134105195087386));
#955=CARTESIAN_POINT('',(0.0200847429795689,0.0102283533359565,-0.00221269559502217));
#956=CARTESIAN_POINT('',(0.0188503771185659,0.00953439752990724,-0.0027652959259848));
#957=CARTESIAN_POINT('',(0.01795057162903,0.00912078448314113,-0.0029552483316977));
#958=CARTESIAN_POINT('',(0.0174908398711024,0.00892945998754229,-0.00302365443026362));
#959=CARTESIAN_POINT('',(0.0163464139203553,0.00860516236215375,0.00281628290720825));
#960=CARTESIAN_POINT('',(0.0163464139203553,0.00860516236215376,0.00281628290720826));
#961=CARTESIAN_POINT('',(0.0161722211233774,0.00825806366193675,0.00370517835590545));
#962=CARTESIAN_POINT('',(0.0160064350146105,0.007769398951184,0.00455117497629829));
#963=CARTESIAN_POINT('',(0.0158584188028091,0.00715567610058571,0.0053064928728263));
#964=CARTESIAN_POINT('',(0.0158584188028091,0.00715567610058571,0.0053064928728263));
#965=CARTESIAN_POINT('',(0.00172719943055578,0.00654214812649432,0.00253726210359557));
#966=CARTESIAN_POINT('',(0.00409208337852757,0.00641286674823596,0.00300069765164475));
#967=CARTESIAN_POINT('',(0.0088176929547714,0.00625375950248327,0.00392675386075015));
#968=CARTESIAN_POINT('',(0.013520132820168,0.00664880768319022,0.00484826960703335));
#969=CARTESIAN_POINT('',(0.0158584188028091,0.00715567610058572,0.0053064928728263));
#970=CARTESIAN_POINT('',(0.00172719943055578,0.00654214812649432,0.00253726210359557));
#971=CARTESIAN_POINT('',(0.00172719943055578,0.00654214812649432,0.00253726210359557));
#972=CARTESIAN_POINT('',(0.00211484038584695,0.00731759453602355,0.000559153439718945));
#973=CARTESIAN_POINT('',(0.00255870604192996,0.00715129431896015,-0.00170586651730698));
#974=CARTESIAN_POINT('',(0.00292037855633261,0.00608942809585805,-0.00355145977689579));
#975=CARTESIAN_POINT('',(0.00292037855633261,0.00608942809585805,-0.00355145977689579));
#976=CARTESIAN_POINT('',(0.00292037855633262,0.00608942809585807,-0.00355145977689575));
#977=CARTESIAN_POINT('',(0.0053569005297853,0.00600398402052216,-0.00386563701413181));
#978=CARTESIAN_POINT('',(0.0077841979861821,0.00602230325376672,-0.00417862479635164));
#979=CARTESIAN_POINT('',(0.0101934072420275,0.00624409021590345,-0.00448928019620935));
#980=CARTESIAN_POINT('',(0.0101934072420275,0.00624409021590345,-0.00448928019620936));
#981=CARTESIAN_POINT('',(0.0101070685630728,0.00618940452113692,-0.00454264832660643));
#982=CARTESIAN_POINT('',(0.0101343679393457,0.00620901256431575,-0.00452277509177029));
#983=CARTESIAN_POINT('',(0.0101634009369932,0.00622700109633706,-0.00450533802130743));
#984=CARTESIAN_POINT('',(0.0101934072420275,0.00624409021590345,-0.00448928019620936));
#985=CARTESIAN_POINT('',(0.0101070685630728,0.00618940452113691,-0.00454264832660643));
#986=CARTESIAN_POINT('',(0.0101070685630728,0.00618940452113691,-0.00454264832660643));
#987=CARTESIAN_POINT('',(0.0099280854315466,0.00606084814182009,-0.00467294338422877));
#988=CARTESIAN_POINT('',(0.00959209723596231,0.00578231374117353,-0.00495524486140875));
#989=CARTESIAN_POINT('',(0.00947708066888885,0.00521824476299043,-0.00552694266750685));
#990=CARTESIAN_POINT('',(0.00990694552748127,0.00474665059877436,-0.00600491497138965));
#991=CARTESIAN_POINT('',(0.0102776252677945,0.00450440620629156,-0.00625043563123532));
#992=CARTESIAN_POINT('',(0.0104742804554534,0.00438968393652371,-0.00636670947800515));
#993=CARTESIAN_POINT('',(0.0104742804554534,0.00438968393652371,-0.00636670947800515));
#994=CARTESIAN_POINT('',(0.0225371177107579,0.00689731631427927,-0.00952039845287695));
#995=CARTESIAN_POINT('',(0.0225594387670095,0.00666133198735774,-0.00970803963865855));
#996=CARTESIAN_POINT('',(0.0224047323106021,0.00610820688184116,-0.00995942203600488));
#997=CARTESIAN_POINT('',(0.0218231168147885,0.00539718142126759,-0.00997396316561773));
#998=CARTESIAN_POINT('',(0.0211190120646853,0.00486440026277958,-0.00982339621908069));
#999=CARTESIAN_POINT('',(0.0201033444185244,0.00433490807655333,-0.00952103380890463));
#1000=CARTESIAN_POINT('',(0.0187455209567574,0.00392519152783784,-0.00905956000147902));
#1001=CARTESIAN_POINT('',(0.0170919600691349,0.00368466061567053,-0.00851258055344277));
#1002=CARTESIAN_POINT('',(0.0153984989109908,0.00360828693981537,-0.00798708316221858));
#1003=CARTESIAN_POINT('',(0.013984781745369,0.003650819829174,-0.00757583555208279));
#1004=CARTESIAN_POINT('',(0.0128583058068777,0.00374481501281069,-0.00725351018408066));
#1005=CARTESIAN_POINT('',(0.012019067958058,0.0038525906298482,-0.00700792804421252));
#1006=CARTESIAN_POINT('',(0.0113240302610054,0.00398238189908493,-0.00679175823650657));
#1007=CARTESIAN_POINT('',(0.0107917013766218,0.00415173421276328,-0.00658435025040326));
#1008=CARTESIAN_POINT('',(0.0105352565539995,0.00428059758736919,-0.00645344867876039));
#1009=CARTESIAN_POINT('',(0.0104742804554534,0.00438968393652371,-0.00636670947800515));
#1010=CARTESIAN_POINT('',(0.0225371177107579,0.00689731631427927,-0.00952039845287695));
#1011=CARTESIAN_POINT('',(0.0224358088881733,0.00932144681138402,-0.00706348247186835));
#1012=CARTESIAN_POINT('',(0.0221872902973029,0.00851796598767028,-0.00787783008169194));
#1013=CARTESIAN_POINT('',(0.022229916464427,0.00769132756375186,-0.00871564848984617));
#1014=CARTESIAN_POINT('',(0.0225371177107627,0.00689731631428065,-0.00952039845287739));
#1015=CARTESIAN_POINT('',(0.0064,-0.00809725658505184,-8.97078868727205E-5));
#1016=CARTESIAN_POINT('',(0.033,-0.00809725658505184,-8.97078868727205E-5));
#1017=CARTESIAN_POINT('',(0.033,-0.00809725658505184,-0.00313970788687272));
#1018=CARTESIAN_POINT('',(0.0169158877152262,-0.00809725658505184,-8.97078868727205E-5));
#1019=CARTESIAN_POINT('',(0.0064,0.00790262330939021,-0.000151702753023631));
#1020=CARTESIAN_POINT('',(0.033,0.00790262330939021,-0.000151702753023631));
#1021=CARTESIAN_POINT('',(0.033,0.00790262330939021,-0.00320170275302363));
#1022=CARTESIAN_POINT('',(0.0169280365670951,0.00790262330939021,-0.000151702753023631));
#1023=CARTESIAN_POINT('',(-0.025,0.00762770395302417,-0.00596175485843517));
#1024=CARTESIAN_POINT('',(0.0216128114656692,0.00762770395302417,-0.00596175485843517));
#1025=CARTESIAN_POINT('',(0.0106072902576734,0.00618940452113691,-0.00454264832660643));
#1026=CARTESIAN_POINT('',(-0.025,0.00618940452113691,-0.00454264832660643));
#1027=CARTESIAN_POINT('',(-0.025,0.00762770395302417,-0.00596175485843517));
#1028=CARTESIAN_POINT('',(0.0180666060448806,0.00762770395302417,-0.00596175485843517));
#1029=CARTESIAN_POINT('',(0.0177885101941805,0.00618940452113691,-0.00454264832660643));
#1030=CARTESIAN_POINT('',(-0.025,0.00932144681138401,-0.00706348247186835));
#1031=CARTESIAN_POINT('',(0.035,0.00932144681138401,-0.00706348247186835));
#1032=CARTESIAN_POINT('',(0.035,0.00762770395302417,-0.00596175485843517));
#1033=CARTESIAN_POINT('',(0.035,0.00618940452113691,-0.00454264832660643));
#1034=CARTESIAN_POINT('',(-0.025,0.00618940452113691,-0.00454264832660643));
#1035=CARTESIAN_POINT('',(-0.025,0.00528954422883031,-0.00545467890230579));
#1036=CARTESIAN_POINT('',(-0.0236440314776899,0.0105470049937876,-0.000126112891364355));
#1037=CARTESIAN_POINT('',(0.0160786757622972,0.00549331132376441,-0.00524815593147331));
#1038=CARTESIAN_POINT('',(-0.0221803393400305,-0.0019040866838737,-0.0127456010585273));
#1039=CARTESIAN_POINT('',(0.0178584188028091,0.00583742545181443,-0.00489938778491218));
#1040=CARTESIAN_POINT('',(0.0171470896080029,0.00941885830939122,-0.00126951734963416));
#1041=CARTESIAN_POINT('',(0.035,0.00540739319768425,-0.00533523606898116));
#1042=CARTESIAN_POINT('',(0.035,0.00438968393652371,-0.00636670947800515));
#1043=CARTESIAN_POINT('',(-0.025,0.00438968393652371,-0.00636670947800515));
#1044=CARTESIAN_POINT('',(0.,0.,0.));
#1045=CARTESIAN_POINT('',(0.035,0.,8.26636589424463E-19));
#1046=CARTESIAN_POINT('',(0.035,0.,8.26636589424463E-19));
#1047=CARTESIAN_POINT('',(0.035,0.,-0.0135));
#1048=CARTESIAN_POINT('',(0.035,0.,0.));
#1049=CARTESIAN_POINT('',(0.035,0.,2.50258663982974E-19));
#1050=CARTESIAN_POINT('',(0.035,0.,-0.00408703414171684));
#1051=CARTESIAN_POINT('',(0.035,0.00825475434358505,-0.00814460156759726));
#1052=CARTESIAN_POINT('',(0.035,0.00689731631428004,-0.00952039845287801));
#1053=CARTESIAN_POINT('',(0.035,0.00564350012540188,-0.00794355396544158));
#1054=CARTESIAN_POINT('',(0.035,1.43872791735886E-7,0.00925096478036175));
#1055=CARTESIAN_POINT('',(0.035,1.43872791735886E-7,0.00745096478036175));
#1056=CARTESIAN_POINT('',(0.035,-0.00809725658505184,-8.97078868727208E-5));
#1057=CARTESIAN_POINT('',(0.035,-0.00809725658505184,-0.00188970788687272));
#1058=CARTESIAN_POINT('',(0.035,1.0842021724855E-19,-0.00974903521909353));
#1059=CARTESIAN_POINT('',(0.035,1.0842021724855E-19,-0.0115490352190935));
#1060=CARTESIAN_POINT('',(0.035,0.00790262330939021,-0.000151702753023631));
#1061=CARTESIAN_POINT('',(0.035,0.00790262330939021,-0.00195170275302363));
#1062=CARTESIAN_POINT('',(0.0062,0.00790262330939021,-0.000151702753023631));
#1063=CARTESIAN_POINT('',(0.0341,0.00790262330939021,-0.000151702753023631));
#1064=CARTESIAN_POINT('',(0.0341,0.00790262330939021,-0.00195170275302363));
#1065=CARTESIAN_POINT('',(0.0062,1.0842021724855E-19,-0.00974903521909353));
#1066=CARTESIAN_POINT('',(0.0341,1.0842021724855E-19,-0.00974903521909353));
#1067=CARTESIAN_POINT('',(0.0341,1.0842021724855E-19,-0.0115490352190935));
#1068=CARTESIAN_POINT('',(0.0062,-0.00809725658505184,-8.97078868727208E-5));
#1069=CARTESIAN_POINT('',(0.0341,-0.00809725658505184,-8.97078868727208E-5));
#1070=CARTESIAN_POINT('',(0.0341,-0.00809725658505184,-0.00188970788687272));
#1071=CARTESIAN_POINT('',(0.0062,1.43872791735886E-7,0.00925096478036175));
#1072=CARTESIAN_POINT('',(0.0341,1.43872791735886E-7,0.00925096478036175));
#1073=CARTESIAN_POINT('',(0.0341,1.43872791735886E-7,0.00745096478036175));
#1074=CARTESIAN_POINT('',(0.0064,1.43872791735777E-7,0.00925096478036175));
#1075=CARTESIAN_POINT('',(0.0064,1.43872791735777E-7,0.00925096478036175));
#1076=CARTESIAN_POINT('',(0.033,1.43872791735777E-7,0.00925096478036175));
#1077=CARTESIAN_POINT('',(0.033,1.43872791735777E-7,0.00620096478036175));
#1078=CARTESIAN_POINT('',(0.0064,-9.7316637830816E-5,-0.000249035219365888));
#1079=CARTESIAN_POINT('',(0.033,-9.7316637830816E-5,-0.000249035219365888));
#1080=CARTESIAN_POINT('',(0.033,1.43872791735886E-7,0.00925096478036175));
#1081=CARTESIAN_POINT('',(0.033,1.43872791735886E-7,0.00635096478036175));
#1082=CARTESIAN_POINT('',(0.033,-9.7316637830816E-5,-0.000249035219365888));
#1083=CARTESIAN_POINT('',(0.033,-0.00809725658505184,-8.97078868727208E-5));
#1084=CARTESIAN_POINT('',(0.033,-0.00809725658505184,-0.00298970788687272));
#1085=CARTESIAN_POINT('',(0.0064,0.,-0.00974903521909353));
#1086=CARTESIAN_POINT('',(0.0064,0.,-0.00974903521909353));
#1087=CARTESIAN_POINT('',(0.033,0.,-0.00974903521909353));
#1088=CARTESIAN_POINT('',(0.033,0.,-0.0127990352190935));
#1089=CARTESIAN_POINT('',(0.0064,-9.7316637830816E-5,-0.000249035219365888));
#1090=CARTESIAN_POINT('',(0.033,-9.7316637830816E-5,-0.000249035219365888));
#1091=CARTESIAN_POINT('',(0.033,1.0842021724855E-19,-0.00974903521909353));
#1092=CARTESIAN_POINT('',(0.033,1.0842021724855E-19,-0.0126490352190935));
#1093=CARTESIAN_POINT('',(0.033,-9.7316637830816E-5,-0.000249035219365888));
#1094=CARTESIAN_POINT('',(0.033,0.00790262330939021,-0.000151702753023631));
#1095=CARTESIAN_POINT('',(0.033,0.00790262330939021,-0.00305170275302363));
#1096=CARTESIAN_POINT('',(0.033,1.0842021724855E-19,-0.00974903521909353));
#1097=CARTESIAN_POINT('',(0.033,-0.00809725658505184,-8.97078868727208E-5));
#1098=CARTESIAN_POINT('',(0.033,1.43872791735886E-7,0.00925096478036175));
#1099=CARTESIAN_POINT('',(0.033,0.00790262330939021,-0.000151702753023631));
#1100=CARTESIAN_POINT('',(-0.025,0.00810938156283203,-0.00829194046237318));
#1101=CARTESIAN_POINT('',(-0.025,0.00689731631428004,-0.00952039845287801));
#1102=CARTESIAN_POINT('',(-0.025,0.00564350012540188,-0.00794355396544158));
#1103=CARTESIAN_POINT('',(0.032,0.,2.50258663982974E-19));
#1104=CARTESIAN_POINT('',(0.032,0.,2.50258663982974E-19));
#1105=CARTESIAN_POINT('',(0.032,0.,-0.00408703414171684));
#1106=CARTESIAN_POINT('',(0.032,0.,0.));
#1107=CARTESIAN_POINT('',(0.00949952715931492,0.0125,-0.00439980785418453));
#1108=CARTESIAN_POINT('',(0.0160786757622972,0.0125,-0.00524815593147332));
#1109=CARTESIAN_POINT('',(0.00292037855633261,0.0125,-0.00355145977689579));
#1110=CARTESIAN_POINT('',(0.0169685472825531,0.0125,-0.00507377185819275));
#1111=CARTESIAN_POINT('',(0.0178584188028091,0.0125,-0.00489938778491218));
#1112=CARTESIAN_POINT('',(0.0168584188028091,0.0125,0.000203552543957057));
#1113=CARTESIAN_POINT('',(0.0158584188028091,0.0125,0.0053064928728263));
#1114=CARTESIAN_POINT('',(0.00879280911668242,0.0125,0.00392187748821094));
#1115=CARTESIAN_POINT('',(0.00172719943055578,0.0125,0.00253726210359557));
#1116=CARTESIAN_POINT('',(0.0023237889934442,0.0125,-0.000507098836650114));
#1117=MECHANICAL_DESIGN_GEOMETRIC_PRESENTATION_REPRESENTATION('',(#537),
#1118);
#1118=(
GEOMETRIC_REPRESENTATION_CONTEXT(3)
GLOBAL_UNCERTAINTY_ASSIGNED_CONTEXT((#1119))
GLOBAL_UNIT_ASSIGNED_CONTEXT((#1122,#1121,#1120))
REPRESENTATION_CONTEXT('Part 1','TOP_LEVEL_ASSEMBLY_PART')
);
#1119=UNCERTAINTY_MEASURE_WITH_UNIT(LENGTH_MEASURE(2.E-5),#1122,
'DISTANCE_ACCURACY_VALUE','Maximum Tolerance applied to model');
#1120=(
NAMED_UNIT(*)
SI_UNIT($,.STERADIAN.)
SOLID_ANGLE_UNIT()
);
#1121=(
NAMED_UNIT(*)
PLANE_ANGLE_UNIT()
SI_UNIT($,.RADIAN.)
);
#1122=(
LENGTH_UNIT()
NAMED_UNIT(*)
SI_UNIT($,.METRE.)
);
#1123=PRODUCT_DEFINITION_SHAPE('','',#1124);
#1124=PRODUCT_DEFINITION('','',#1126,#1125);
#1125=PRODUCT_DEFINITION_CONTEXT('',#1132,'design');
#1126=PRODUCT_DEFINITION_FORMATION_WITH_SPECIFIED_SOURCE('','',#1128,
 .NOT_KNOWN.);
#1127=PRODUCT_RELATED_PRODUCT_CATEGORY('','',(#1128));
#1128=PRODUCT('Part 1','Part 1','Part 1',(#1130));
#1129=PRODUCT_CATEGORY('','');
#1130=PRODUCT_CONTEXT('',#1132,'mechanical');
#1131=APPLICATION_PROTOCOL_DEFINITION('international standard',
'ap242_managed_model_based_3d_engineering',2020,#1132);
#1132=APPLICATION_CONTEXT('managed model based 3d engineering');
ENDSEC;
END-ISO-10303-21;
