ISO-10303-21;
HEADER;
/* Generated by software containing ST-Developer
 * from STEP Tools, Inc. (www.steptools.com) 
 */
/* OPTION: using custom renumber hook */

FILE_DESCRIPTION(
/* description */ ('STEP AP242 Edition 2',
'CAx-IF Rec.Pracs.---Representation and Presentation of Product Manufa
cturing Information (PMI)---4.0---2014-10-13',
'CAx-IF Rec.Pracs.---3D Tessellated Geometry---0.4---2014-09-14','2;1',
'CAx-IF Rec.Pracs.---User Defined Attributes---1.5---2016-08-15'),
/* implementation_level */ '2;1');

FILE_NAME(
/* name */ 'SimpliFLyTelemetry',
/* time_stamp */ '2026-08-30T06:31:52Z',
/* author */ (''),
/* organization */ (''),
/* preprocessor_version */ 'ST-DEVELOPER v20',
/* originating_system */ 'ONSHAPE BY PTC INC, 1.220',
/* authorisation */ '  ');

FILE_SCHEMA (('AP242_MANAGED_MODEL_BASED_3D_ENGINEERING_MIM_LF { 1 0 10303 442 3 1 4 }'));
ENDSEC;

DATA;
#10=SHAPE_REPRESENTATION_RELATIONSHIP('','',#713,#11);
#11=ADVANCED_BREP_SHAPE_REPRESENTATION('',(#711),#1123);
#12=CIRCLE('',#722,0.0059999999999992);
#13=CIRCLE('',#723,0.0059999999999992);
#14=CIRCLE('',#726,0.005);
#15=CIRCLE('',#727,0.005);
#16=CIRCLE('',#730,0.006);
#17=CIRCLE('',#731,0.006);
#18=CYLINDRICAL_SURFACE('',#721,0.0059999999999992);
#19=CYLINDRICAL_SURFACE('',#725,0.005);
#20=CYLINDRICAL_SURFACE('',#729,0.006);
#21=ORIENTED_EDGE('',*,*,#213,.F.);
#22=ORIENTED_EDGE('',*,*,#214,.F.);
#23=ORIENTED_EDGE('',*,*,#215,.T.);
#24=ORIENTED_EDGE('',*,*,#216,.T.);
#25=ORIENTED_EDGE('',*,*,#217,.F.);
#26=ORIENTED_EDGE('',*,*,#218,.T.);
#27=ORIENTED_EDGE('',*,*,#219,.T.);
#28=ORIENTED_EDGE('',*,*,#220,.F.);
#29=ORIENTED_EDGE('',*,*,#221,.F.);
#30=ORIENTED_EDGE('',*,*,#222,.T.);
#31=ORIENTED_EDGE('',*,*,#223,.T.);
#32=ORIENTED_EDGE('',*,*,#224,.F.);
#33=ORIENTED_EDGE('',*,*,#225,.F.);
#34=ORIENTED_EDGE('',*,*,#226,.F.);
#35=ORIENTED_EDGE('',*,*,#227,.T.);
#36=ORIENTED_EDGE('',*,*,#228,.T.);
#37=ORIENTED_EDGE('',*,*,#229,.T.);
#38=ORIENTED_EDGE('',*,*,#230,.T.);
#39=ORIENTED_EDGE('',*,*,#231,.F.);
#40=ORIENTED_EDGE('',*,*,#232,.F.);
#41=ORIENTED_EDGE('',*,*,#233,.T.);
#42=ORIENTED_EDGE('',*,*,#234,.T.);
#43=ORIENTED_EDGE('',*,*,#235,.F.);
#44=ORIENTED_EDGE('',*,*,#236,.F.);
#45=ORIENTED_EDGE('',*,*,#237,.F.);
#46=ORIENTED_EDGE('',*,*,#238,.F.);
#47=ORIENTED_EDGE('',*,*,#239,.T.);
#48=ORIENTED_EDGE('',*,*,#240,.T.);
#49=ORIENTED_EDGE('',*,*,#241,.T.);
#50=ORIENTED_EDGE('',*,*,#242,.F.);
#51=ORIENTED_EDGE('',*,*,#243,.F.);
#52=ORIENTED_EDGE('',*,*,#244,.T.);
#53=ORIENTED_EDGE('',*,*,#245,.F.);
#54=ORIENTED_EDGE('',*,*,#246,.F.);
#55=ORIENTED_EDGE('',*,*,#247,.T.);
#56=ORIENTED_EDGE('',*,*,#248,.T.);
#57=ORIENTED_EDGE('',*,*,#249,.F.);
#58=ORIENTED_EDGE('',*,*,#250,.T.);
#59=ORIENTED_EDGE('',*,*,#251,.T.);
#60=ORIENTED_EDGE('',*,*,#252,.F.);
#61=ORIENTED_EDGE('',*,*,#253,.T.);
#62=ORIENTED_EDGE('',*,*,#254,.F.);
#63=ORIENTED_EDGE('',*,*,#255,.F.);
#64=ORIENTED_EDGE('',*,*,#256,.T.);
#65=ORIENTED_EDGE('',*,*,#257,.F.);
#66=ORIENTED_EDGE('',*,*,#258,.T.);
#67=ORIENTED_EDGE('',*,*,#259,.T.);
#68=ORIENTED_EDGE('',*,*,#260,.F.);
#69=ORIENTED_EDGE('',*,*,#261,.F.);
#70=ORIENTED_EDGE('',*,*,#262,.F.);
#71=ORIENTED_EDGE('',*,*,#263,.T.);
#72=ORIENTED_EDGE('',*,*,#264,.T.);
#73=ORIENTED_EDGE('',*,*,#265,.F.);
#74=ORIENTED_EDGE('',*,*,#266,.F.);
#75=ORIENTED_EDGE('',*,*,#267,.T.);
#76=ORIENTED_EDGE('',*,*,#262,.T.);
#77=ORIENTED_EDGE('',*,*,#268,.T.);
#78=ORIENTED_EDGE('',*,*,#216,.F.);
#79=ORIENTED_EDGE('',*,*,#269,.F.);
#80=ORIENTED_EDGE('',*,*,#266,.T.);
#81=ORIENTED_EDGE('',*,*,#270,.F.);
#82=ORIENTED_EDGE('',*,*,#228,.F.);
#83=ORIENTED_EDGE('',*,*,#271,.T.);
#84=ORIENTED_EDGE('',*,*,#214,.T.);
#85=ORIENTED_EDGE('',*,*,#272,.F.);
#86=ORIENTED_EDGE('',*,*,#244,.F.);
#87=ORIENTED_EDGE('',*,*,#273,.T.);
#88=ORIENTED_EDGE('',*,*,#226,.T.);
#89=ORIENTED_EDGE('',*,*,#274,.T.);
#90=ORIENTED_EDGE('',*,*,#256,.F.);
#91=ORIENTED_EDGE('',*,*,#275,.F.);
#92=ORIENTED_EDGE('',*,*,#242,.T.);
#93=ORIENTED_EDGE('',*,*,#276,.T.);
#94=ORIENTED_EDGE('',*,*,#277,.F.);
#95=ORIENTED_EDGE('',*,*,#278,.F.);
#96=ORIENTED_EDGE('',*,*,#254,.T.);
#97=ORIENTED_EDGE('',*,*,#279,.T.);
#98=ORIENTED_EDGE('',*,*,#280,.F.);
#99=ORIENTED_EDGE('',*,*,#281,.F.);
#100=ORIENTED_EDGE('',*,*,#277,.T.);
#101=ORIENTED_EDGE('',*,*,#282,.F.);
#102=ORIENTED_EDGE('',*,*,#283,.F.);
#103=ORIENTED_EDGE('',*,*,#284,.T.);
#104=ORIENTED_EDGE('',*,*,#280,.T.);
#105=ORIENTED_EDGE('',*,*,#285,.T.);
#106=ORIENTED_EDGE('',*,*,#286,.F.);
#107=ORIENTED_EDGE('',*,*,#287,.F.);
#108=ORIENTED_EDGE('',*,*,#283,.T.);
#109=ORIENTED_EDGE('',*,*,#288,.T.);
#110=ORIENTED_EDGE('',*,*,#289,.F.);
#111=ORIENTED_EDGE('',*,*,#290,.F.);
#112=ORIENTED_EDGE('',*,*,#286,.T.);
#113=ORIENTED_EDGE('',*,*,#291,.F.);
#114=ORIENTED_EDGE('',*,*,#264,.F.);
#115=ORIENTED_EDGE('',*,*,#292,.T.);
#116=ORIENTED_EDGE('',*,*,#289,.T.);
#117=ORIENTED_EDGE('',*,*,#263,.F.);
#118=ORIENTED_EDGE('',*,*,#267,.F.);
#119=ORIENTED_EDGE('',*,*,#269,.T.);
#120=ORIENTED_EDGE('',*,*,#215,.F.);
#121=ORIENTED_EDGE('',*,*,#271,.F.);
#122=ORIENTED_EDGE('',*,*,#227,.F.);
#123=ORIENTED_EDGE('',*,*,#273,.F.);
#124=ORIENTED_EDGE('',*,*,#243,.T.);
#125=ORIENTED_EDGE('',*,*,#275,.T.);
#126=ORIENTED_EDGE('',*,*,#255,.T.);
#127=ORIENTED_EDGE('',*,*,#278,.T.);
#128=ORIENTED_EDGE('',*,*,#281,.T.);
#129=ORIENTED_EDGE('',*,*,#284,.F.);
#130=ORIENTED_EDGE('',*,*,#287,.T.);
#131=ORIENTED_EDGE('',*,*,#290,.T.);
#132=ORIENTED_EDGE('',*,*,#292,.F.);
#133=ORIENTED_EDGE('',*,*,#261,.T.);
#134=ORIENTED_EDGE('',*,*,#291,.T.);
#135=ORIENTED_EDGE('',*,*,#288,.F.);
#136=ORIENTED_EDGE('',*,*,#285,.F.);
#137=ORIENTED_EDGE('',*,*,#282,.T.);
#138=ORIENTED_EDGE('',*,*,#279,.F.);
#139=ORIENTED_EDGE('',*,*,#276,.F.);
#140=ORIENTED_EDGE('',*,*,#253,.F.);
#141=ORIENTED_EDGE('',*,*,#274,.F.);
#142=ORIENTED_EDGE('',*,*,#241,.F.);
#143=ORIENTED_EDGE('',*,*,#272,.T.);
#144=ORIENTED_EDGE('',*,*,#225,.T.);
#145=ORIENTED_EDGE('',*,*,#270,.T.);
#146=ORIENTED_EDGE('',*,*,#213,.T.);
#147=ORIENTED_EDGE('',*,*,#268,.F.);
#148=ORIENTED_EDGE('',*,*,#265,.T.);
#149=ORIENTED_EDGE('',*,*,#238,.T.);
#150=ORIENTED_EDGE('',*,*,#293,.F.);
#151=ORIENTED_EDGE('',*,*,#252,.T.);
#152=ORIENTED_EDGE('',*,*,#294,.T.);
#153=ORIENTED_EDGE('',*,*,#294,.F.);
#154=ORIENTED_EDGE('',*,*,#251,.F.);
#155=ORIENTED_EDGE('',*,*,#295,.T.);
#156=ORIENTED_EDGE('',*,*,#239,.F.);
#157=ORIENTED_EDGE('',*,*,#295,.F.);
#158=ORIENTED_EDGE('',*,*,#250,.F.);
#159=ORIENTED_EDGE('',*,*,#296,.T.);
#160=ORIENTED_EDGE('',*,*,#240,.F.);
#161=ORIENTED_EDGE('',*,*,#237,.T.);
#162=ORIENTED_EDGE('',*,*,#296,.F.);
#163=ORIENTED_EDGE('',*,*,#249,.T.);
#164=ORIENTED_EDGE('',*,*,#293,.T.);
#165=ORIENTED_EDGE('',*,*,#246,.T.);
#166=ORIENTED_EDGE('',*,*,#297,.F.);
#167=ORIENTED_EDGE('',*,*,#260,.T.);
#168=ORIENTED_EDGE('',*,*,#298,.T.);
#169=ORIENTED_EDGE('',*,*,#298,.F.);
#170=ORIENTED_EDGE('',*,*,#259,.F.);
#171=ORIENTED_EDGE('',*,*,#299,.T.);
#172=ORIENTED_EDGE('',*,*,#247,.F.);
#173=ORIENTED_EDGE('',*,*,#299,.F.);
#174=ORIENTED_EDGE('',*,*,#258,.F.);
#175=ORIENTED_EDGE('',*,*,#300,.T.);
#176=ORIENTED_EDGE('',*,*,#248,.F.);
#177=ORIENTED_EDGE('',*,*,#245,.T.);
#178=ORIENTED_EDGE('',*,*,#300,.F.);
#179=ORIENTED_EDGE('',*,*,#257,.T.);
#180=ORIENTED_EDGE('',*,*,#297,.T.);
#181=ORIENTED_EDGE('',*,*,#301,.F.);
#182=ORIENTED_EDGE('',*,*,#230,.F.);
#183=ORIENTED_EDGE('',*,*,#302,.T.);
#184=ORIENTED_EDGE('',*,*,#218,.F.);
#185=ORIENTED_EDGE('',*,*,#217,.T.);
#186=ORIENTED_EDGE('',*,*,#303,.F.);
#187=ORIENTED_EDGE('',*,*,#231,.T.);
#188=ORIENTED_EDGE('',*,*,#301,.T.);
#189=ORIENTED_EDGE('',*,*,#220,.T.);
#190=ORIENTED_EDGE('',*,*,#304,.F.);
#191=ORIENTED_EDGE('',*,*,#232,.T.);
#192=ORIENTED_EDGE('',*,*,#303,.T.);
#193=ORIENTED_EDGE('',*,*,#302,.F.);
#194=ORIENTED_EDGE('',*,*,#229,.F.);
#195=ORIENTED_EDGE('',*,*,#304,.T.);
#196=ORIENTED_EDGE('',*,*,#219,.F.);
#197=ORIENTED_EDGE('',*,*,#305,.F.);
#198=ORIENTED_EDGE('',*,*,#234,.F.);
#199=ORIENTED_EDGE('',*,*,#306,.T.);
#200=ORIENTED_EDGE('',*,*,#222,.F.);
#201=ORIENTED_EDGE('',*,*,#221,.T.);
#202=ORIENTED_EDGE('',*,*,#307,.F.);
#203=ORIENTED_EDGE('',*,*,#235,.T.);
#204=ORIENTED_EDGE('',*,*,#305,.T.);
#205=ORIENTED_EDGE('',*,*,#224,.T.);
#206=ORIENTED_EDGE('',*,*,#308,.F.);
#207=ORIENTED_EDGE('',*,*,#236,.T.);
#208=ORIENTED_EDGE('',*,*,#307,.T.);
#209=ORIENTED_EDGE('',*,*,#306,.F.);
#210=ORIENTED_EDGE('',*,*,#233,.F.);
#211=ORIENTED_EDGE('',*,*,#308,.T.);
#212=ORIENTED_EDGE('',*,*,#223,.F.);
#213=EDGE_CURVE('',#309,#310,#373,.T.);
#214=EDGE_CURVE('',#311,#309,#374,.T.);
#215=EDGE_CURVE('',#311,#312,#375,.T.);
#216=EDGE_CURVE('',#312,#310,#376,.T.);
#217=EDGE_CURVE('',#313,#314,#377,.T.);
#218=EDGE_CURVE('',#313,#315,#378,.T.);
#219=EDGE_CURVE('',#315,#316,#379,.T.);
#220=EDGE_CURVE('',#314,#316,#380,.T.);
#221=EDGE_CURVE('',#317,#318,#381,.T.);
#222=EDGE_CURVE('',#317,#319,#382,.T.);
#223=EDGE_CURVE('',#319,#320,#383,.T.);
#224=EDGE_CURVE('',#318,#320,#384,.T.);
#225=EDGE_CURVE('',#321,#322,#385,.T.);
#226=EDGE_CURVE('',#323,#321,#386,.T.);
#227=EDGE_CURVE('',#323,#324,#387,.T.);
#228=EDGE_CURVE('',#324,#322,#388,.T.);
#229=EDGE_CURVE('',#325,#326,#389,.T.);
#230=EDGE_CURVE('',#326,#327,#390,.T.);
#231=EDGE_CURVE('',#328,#327,#391,.T.);
#232=EDGE_CURVE('',#325,#328,#392,.T.);
#233=EDGE_CURVE('',#329,#330,#393,.T.);
#234=EDGE_CURVE('',#330,#331,#394,.T.);
#235=EDGE_CURVE('',#332,#331,#395,.T.);
#236=EDGE_CURVE('',#329,#332,#396,.T.);
#237=EDGE_CURVE('',#333,#334,#397,.T.);
#238=EDGE_CURVE('',#335,#333,#398,.T.);
#239=EDGE_CURVE('',#335,#336,#399,.T.);
#240=EDGE_CURVE('',#336,#334,#400,.T.);
#241=EDGE_CURVE('',#337,#338,#401,.T.);
#242=EDGE_CURVE('',#339,#338,#402,.T.);
#243=EDGE_CURVE('',#340,#339,#403,.T.);
#244=EDGE_CURVE('',#340,#337,#404,.T.);
#245=EDGE_CURVE('',#341,#342,#405,.T.);
#246=EDGE_CURVE('',#343,#341,#406,.T.);
#247=EDGE_CURVE('',#343,#344,#407,.T.);
#248=EDGE_CURVE('',#344,#342,#408,.T.);
#249=EDGE_CURVE('',#345,#346,#409,.T.);
#250=EDGE_CURVE('',#345,#347,#410,.T.);
#251=EDGE_CURVE('',#347,#348,#411,.T.);
#252=EDGE_CURVE('',#346,#348,#412,.T.);
#253=EDGE_CURVE('',#349,#350,#413,.T.);
#254=EDGE_CURVE('',#351,#350,#414,.T.);
#255=EDGE_CURVE('',#352,#351,#415,.T.);
#256=EDGE_CURVE('',#352,#349,#416,.T.);
#257=EDGE_CURVE('',#353,#354,#417,.T.);
#258=EDGE_CURVE('',#353,#355,#418,.T.);
#259=EDGE_CURVE('',#355,#356,#419,.T.);
#260=EDGE_CURVE('',#354,#356,#420,.T.);
#261=EDGE_CURVE('',#357,#358,#421,.T.);
#262=EDGE_CURVE('',#359,#357,#422,.T.);
#263=EDGE_CURVE('',#359,#360,#423,.T.);
#264=EDGE_CURVE('',#360,#358,#424,.T.);
#265=EDGE_CURVE('',#361,#357,#425,.T.);
#266=EDGE_CURVE('',#362,#361,#426,.T.);
#267=EDGE_CURVE('',#362,#359,#427,.T.);
#268=EDGE_CURVE('',#361,#310,#12,.T.);
#269=EDGE_CURVE('',#362,#312,#13,.T.);
#270=EDGE_CURVE('',#322,#309,#428,.T.);
#271=EDGE_CURVE('',#324,#311,#429,.T.);
#272=EDGE_CURVE('',#337,#321,#14,.T.);
#273=EDGE_CURVE('',#340,#323,#15,.T.);
#274=EDGE_CURVE('',#338,#349,#430,.T.);
#275=EDGE_CURVE('',#339,#352,#431,.T.);
#276=EDGE_CURVE('',#350,#363,#16,.T.);
#277=EDGE_CURVE('',#364,#363,#432,.T.);
#278=EDGE_CURVE('',#351,#364,#17,.T.);
#279=EDGE_CURVE('',#363,#365,#433,.T.);
#280=EDGE_CURVE('',#366,#365,#434,.T.);
#281=EDGE_CURVE('',#364,#366,#435,.T.);
#282=EDGE_CURVE('',#367,#365,#436,.T.);
#283=EDGE_CURVE('',#368,#367,#437,.T.);
#284=EDGE_CURVE('',#368,#366,#438,.T.);
#285=EDGE_CURVE('',#367,#369,#439,.T.);
#286=EDGE_CURVE('',#370,#369,#440,.T.);
#287=EDGE_CURVE('',#368,#370,#441,.T.);
#288=EDGE_CURVE('',#369,#371,#442,.T.);
#289=EDGE_CURVE('',#372,#371,#443,.T.);
#290=EDGE_CURVE('',#370,#372,#444,.T.);
#291=EDGE_CURVE('',#358,#371,#445,.T.);
#292=EDGE_CURVE('',#360,#372,#446,.T.);
#293=EDGE_CURVE('',#346,#333,#447,.T.);
#294=EDGE_CURVE('',#348,#335,#448,.T.);
#295=EDGE_CURVE('',#347,#336,#449,.T.);
#296=EDGE_CURVE('',#345,#334,#450,.T.);
#297=EDGE_CURVE('',#354,#341,#451,.T.);
#298=EDGE_CURVE('',#356,#343,#452,.T.);
#299=EDGE_CURVE('',#355,#344,#453,.T.);
#300=EDGE_CURVE('',#353,#342,#454,.T.);
#301=EDGE_CURVE('',#327,#313,#455,.T.);
#302=EDGE_CURVE('',#326,#315,#456,.T.);
#303=EDGE_CURVE('',#328,#314,#457,.T.);
#304=EDGE_CURVE('',#325,#316,#458,.T.);
#305=EDGE_CURVE('',#331,#317,#459,.T.);
#306=EDGE_CURVE('',#330,#319,#460,.T.);
#307=EDGE_CURVE('',#332,#318,#461,.T.);
#308=EDGE_CURVE('',#329,#320,#462,.T.);
#309=VERTEX_POINT('',#930);
#310=VERTEX_POINT('',#931);
#311=VERTEX_POINT('',#933);
#312=VERTEX_POINT('',#935);
#313=VERTEX_POINT('',#938);
#314=VERTEX_POINT('',#939);
#315=VERTEX_POINT('',#941);
#316=VERTEX_POINT('',#943);
#317=VERTEX_POINT('',#946);
#318=VERTEX_POINT('',#947);
#319=VERTEX_POINT('',#949);
#320=VERTEX_POINT('',#951);
#321=VERTEX_POINT('',#955);
#322=VERTEX_POINT('',#956);
#323=VERTEX_POINT('',#958);
#324=VERTEX_POINT('',#960);
#325=VERTEX_POINT('',#963);
#326=VERTEX_POINT('',#964);
#327=VERTEX_POINT('',#966);
#328=VERTEX_POINT('',#968);
#329=VERTEX_POINT('',#971);
#330=VERTEX_POINT('',#972);
#331=VERTEX_POINT('',#974);
#332=VERTEX_POINT('',#976);
#333=VERTEX_POINT('',#980);
#334=VERTEX_POINT('',#981);
#335=VERTEX_POINT('',#983);
#336=VERTEX_POINT('',#985);
#337=VERTEX_POINT('',#988);
#338=VERTEX_POINT('',#989);
#339=VERTEX_POINT('',#991);
#340=VERTEX_POINT('',#993);
#341=VERTEX_POINT('',#996);
#342=VERTEX_POINT('',#997);
#343=VERTEX_POINT('',#999);
#344=VERTEX_POINT('',#1001);
#345=VERTEX_POINT('',#1005);
#346=VERTEX_POINT('',#1006);
#347=VERTEX_POINT('',#1008);
#348=VERTEX_POINT('',#1010);
#349=VERTEX_POINT('',#1013);
#350=VERTEX_POINT('',#1014);
#351=VERTEX_POINT('',#1016);
#352=VERTEX_POINT('',#1018);
#353=VERTEX_POINT('',#1021);
#354=VERTEX_POINT('',#1022);
#355=VERTEX_POINT('',#1024);
#356=VERTEX_POINT('',#1026);
#357=VERTEX_POINT('',#1030);
#358=VERTEX_POINT('',#1031);
#359=VERTEX_POINT('',#1033);
#360=VERTEX_POINT('',#1035);
#361=VERTEX_POINT('',#1039);
#362=VERTEX_POINT('',#1041);
#363=VERTEX_POINT('',#1057);
#364=VERTEX_POINT('',#1059);
#365=VERTEX_POINT('',#1063);
#366=VERTEX_POINT('',#1065);
#367=VERTEX_POINT('',#1069);
#368=VERTEX_POINT('',#1071);
#369=VERTEX_POINT('',#1075);
#370=VERTEX_POINT('',#1077);
#371=VERTEX_POINT('',#1081);
#372=VERTEX_POINT('',#1083);
#373=LINE('',#929,#463);
#374=LINE('',#932,#464);
#375=LINE('',#934,#465);
#376=LINE('',#936,#466);
#377=LINE('',#937,#467);
#378=LINE('',#940,#468);
#379=LINE('',#942,#469);
#380=LINE('',#944,#470);
#381=LINE('',#945,#471);
#382=LINE('',#948,#472);
#383=LINE('',#950,#473);
#384=LINE('',#952,#474);
#385=LINE('',#954,#475);
#386=LINE('',#957,#476);
#387=LINE('',#959,#477);
#388=LINE('',#961,#478);
#389=LINE('',#962,#479);
#390=LINE('',#965,#480);
#391=LINE('',#967,#481);
#392=LINE('',#969,#482);
#393=LINE('',#970,#483);
#394=LINE('',#973,#484);
#395=LINE('',#975,#485);
#396=LINE('',#977,#486);
#397=LINE('',#979,#487);
#398=LINE('',#982,#488);
#399=LINE('',#984,#489);
#400=LINE('',#986,#490);
#401=LINE('',#987,#491);
#402=LINE('',#990,#492);
#403=LINE('',#992,#493);
#404=LINE('',#994,#494);
#405=LINE('',#995,#495);
#406=LINE('',#998,#496);
#407=LINE('',#1000,#497);
#408=LINE('',#1002,#498);
#409=LINE('',#1004,#499);
#410=LINE('',#1007,#500);
#411=LINE('',#1009,#501);
#412=LINE('',#1011,#502);
#413=LINE('',#1012,#503);
#414=LINE('',#1015,#504);
#415=LINE('',#1017,#505);
#416=LINE('',#1019,#506);
#417=LINE('',#1020,#507);
#418=LINE('',#1023,#508);
#419=LINE('',#1025,#509);
#420=LINE('',#1027,#510);
#421=LINE('',#1029,#511);
#422=LINE('',#1032,#512);
#423=LINE('',#1034,#513);
#424=LINE('',#1036,#514);
#425=LINE('',#1038,#515);
#426=LINE('',#1040,#516);
#427=LINE('',#1042,#517);
#428=LINE('',#1047,#518);
#429=LINE('',#1048,#519);
#430=LINE('',#1053,#520);
#431=LINE('',#1054,#521);
#432=LINE('',#1058,#522);
#433=LINE('',#1062,#523);
#434=LINE('',#1064,#524);
#435=LINE('',#1066,#525);
#436=LINE('',#1068,#526);
#437=LINE('',#1070,#527);
#438=LINE('',#1072,#528);
#439=LINE('',#1074,#529);
#440=LINE('',#1076,#530);
#441=LINE('',#1078,#531);
#442=LINE('',#1080,#532);
#443=LINE('',#1082,#533);
#444=LINE('',#1084,#534);
#445=LINE('',#1086,#535);
#446=LINE('',#1087,#536);
#447=LINE('',#1091,#537);
#448=LINE('',#1092,#538);
#449=LINE('',#1094,#539);
#450=LINE('',#1096,#540);
#451=LINE('',#1099,#541);
#452=LINE('',#1100,#542);
#453=LINE('',#1102,#543);
#454=LINE('',#1104,#544);
#455=LINE('',#1107,#545);
#456=LINE('',#1108,#546);
#457=LINE('',#1110,#547);
#458=LINE('',#1112,#548);
#459=LINE('',#1115,#549);
#460=LINE('',#1116,#550);
#461=LINE('',#1118,#551);
#462=LINE('',#1120,#552);
#463=VECTOR('',#759,1.);
#464=VECTOR('',#760,1.);
#465=VECTOR('',#761,1.);
#466=VECTOR('',#762,1.);
#467=VECTOR('',#763,1.);
#468=VECTOR('',#764,1.);
#469=VECTOR('',#765,1.);
#470=VECTOR('',#766,1.);
#471=VECTOR('',#767,1.);
#472=VECTOR('',#768,1.);
#473=VECTOR('',#769,1.);
#474=VECTOR('',#770,1.);
#475=VECTOR('',#773,1.);
#476=VECTOR('',#774,1.);
#477=VECTOR('',#775,1.);
#478=VECTOR('',#776,1.);
#479=VECTOR('',#777,1.);
#480=VECTOR('',#778,1.);
#481=VECTOR('',#779,1.);
#482=VECTOR('',#780,1.);
#483=VECTOR('',#781,1.);
#484=VECTOR('',#782,1.);
#485=VECTOR('',#783,1.);
#486=VECTOR('',#784,1.);
#487=VECTOR('',#787,1.);
#488=VECTOR('',#788,1.);
#489=VECTOR('',#789,1.);
#490=VECTOR('',#790,1.);
#491=VECTOR('',#791,1.);
#492=VECTOR('',#792,1.);
#493=VECTOR('',#793,1.);
#494=VECTOR('',#794,1.);
#495=VECTOR('',#795,1.);
#496=VECTOR('',#796,1.);
#497=VECTOR('',#797,1.);
#498=VECTOR('',#798,1.);
#499=VECTOR('',#801,1.);
#500=VECTOR('',#802,1.);
#501=VECTOR('',#803,1.);
#502=VECTOR('',#804,1.);
#503=VECTOR('',#805,1.);
#504=VECTOR('',#806,1.);
#505=VECTOR('',#807,1.);
#506=VECTOR('',#808,1.);
#507=VECTOR('',#809,1.);
#508=VECTOR('',#810,1.);
#509=VECTOR('',#811,1.);
#510=VECTOR('',#812,1.);
#511=VECTOR('',#815,1.);
#512=VECTOR('',#816,1.);
#513=VECTOR('',#817,1.);
#514=VECTOR('',#818,1.);
#515=VECTOR('',#821,1.);
#516=VECTOR('',#822,1.);
#517=VECTOR('',#823,1.);
#518=VECTOR('',#832,1.);
#519=VECTOR('',#833,1.);
#520=VECTOR('',#842,1.);
#521=VECTOR('',#843,1.);
#522=VECTOR('',#848,1.);
#523=VECTOR('',#853,1.);
#524=VECTOR('',#854,1.);
#525=VECTOR('',#855,1.);
#526=VECTOR('',#858,1.);
#527=VECTOR('',#859,1.);
#528=VECTOR('',#860,1.);
#529=VECTOR('',#863,1.);
#530=VECTOR('',#864,1.);
#531=VECTOR('',#865,1.);
#532=VECTOR('',#868,1.);
#533=VECTOR('',#869,1.);
#534=VECTOR('',#870,1.);
#535=VECTOR('',#873,1.);
#536=VECTOR('',#874,1.);
#537=VECTOR('',#881,1.);
#538=VECTOR('',#882,1.);
#539=VECTOR('',#885,1.);
#540=VECTOR('',#888,1.);
#541=VECTOR('',#893,1.);
#542=VECTOR('',#894,1.);
#543=VECTOR('',#897,1.);
#544=VECTOR('',#900,1.);
#545=VECTOR('',#905,1.);
#546=VECTOR('',#906,1.);
#547=VECTOR('',#909,1.);
#548=VECTOR('',#912,1.);
#549=VECTOR('',#917,1.);
#550=VECTOR('',#918,1.);
#551=VECTOR('',#921,1.);
#552=VECTOR('',#924,1.);
#553=EDGE_LOOP('',(#21,#22,#23,#24));
#554=EDGE_LOOP('',(#25,#26,#27,#28));
#555=EDGE_LOOP('',(#29,#30,#31,#32));
#556=EDGE_LOOP('',(#33,#34,#35,#36));
#557=EDGE_LOOP('',(#37,#38,#39,#40));
#558=EDGE_LOOP('',(#41,#42,#43,#44));
#559=EDGE_LOOP('',(#45,#46,#47,#48));
#560=EDGE_LOOP('',(#49,#50,#51,#52));
#561=EDGE_LOOP('',(#53,#54,#55,#56));
#562=EDGE_LOOP('',(#57,#58,#59,#60));
#563=EDGE_LOOP('',(#61,#62,#63,#64));
#564=EDGE_LOOP('',(#65,#66,#67,#68));
#565=EDGE_LOOP('',(#69,#70,#71,#72));
#566=EDGE_LOOP('',(#73,#74,#75,#76));
#567=EDGE_LOOP('',(#77,#78,#79,#80));
#568=EDGE_LOOP('',(#81,#82,#83,#84));
#569=EDGE_LOOP('',(#85,#86,#87,#88));
#570=EDGE_LOOP('',(#89,#90,#91,#92));
#571=EDGE_LOOP('',(#93,#94,#95,#96));
#572=EDGE_LOOP('',(#97,#98,#99,#100));
#573=EDGE_LOOP('',(#101,#102,#103,#104));
#574=EDGE_LOOP('',(#105,#106,#107,#108));
#575=EDGE_LOOP('',(#109,#110,#111,#112));
#576=EDGE_LOOP('',(#113,#114,#115,#116));
#577=EDGE_LOOP('',(#117,#118,#119,#120,#121,#122,#123,#124,#125,#126,#127,
#128,#129,#130,#131,#132));
#578=EDGE_LOOP('',(#133,#134,#135,#136,#137,#138,#139,#140,#141,#142,#143,
#144,#145,#146,#147,#148));
#579=EDGE_LOOP('',(#149,#150,#151,#152));
#580=EDGE_LOOP('',(#153,#154,#155,#156));
#581=EDGE_LOOP('',(#157,#158,#159,#160));
#582=EDGE_LOOP('',(#161,#162,#163,#164));
#583=EDGE_LOOP('',(#165,#166,#167,#168));
#584=EDGE_LOOP('',(#169,#170,#171,#172));
#585=EDGE_LOOP('',(#173,#174,#175,#176));
#586=EDGE_LOOP('',(#177,#178,#179,#180));
#587=EDGE_LOOP('',(#181,#182,#183,#184));
#588=EDGE_LOOP('',(#185,#186,#187,#188));
#589=EDGE_LOOP('',(#189,#190,#191,#192));
#590=EDGE_LOOP('',(#193,#194,#195,#196));
#591=EDGE_LOOP('',(#197,#198,#199,#200));
#592=EDGE_LOOP('',(#201,#202,#203,#204));
#593=EDGE_LOOP('',(#205,#206,#207,#208));
#594=EDGE_LOOP('',(#209,#210,#211,#212));
#595=FACE_BOUND('',#553,.T.);
#596=FACE_BOUND('',#554,.T.);
#597=FACE_BOUND('',#555,.T.);
#598=FACE_BOUND('',#556,.T.);
#599=FACE_BOUND('',#557,.T.);
#600=FACE_BOUND('',#558,.T.);
#601=FACE_BOUND('',#559,.T.);
#602=FACE_BOUND('',#560,.T.);
#603=FACE_BOUND('',#561,.T.);
#604=FACE_BOUND('',#562,.T.);
#605=FACE_BOUND('',#563,.T.);
#606=FACE_BOUND('',#564,.T.);
#607=FACE_BOUND('',#565,.T.);
#608=FACE_BOUND('',#566,.T.);
#609=FACE_BOUND('',#567,.T.);
#610=FACE_BOUND('',#568,.T.);
#611=FACE_BOUND('',#569,.T.);
#612=FACE_BOUND('',#570,.T.);
#613=FACE_BOUND('',#571,.T.);
#614=FACE_BOUND('',#572,.T.);
#615=FACE_BOUND('',#573,.T.);
#616=FACE_BOUND('',#574,.T.);
#617=FACE_BOUND('',#575,.T.);
#618=FACE_BOUND('',#576,.T.);
#619=FACE_BOUND('',#577,.T.);
#620=FACE_BOUND('',#578,.T.);
#621=FACE_BOUND('',#579,.T.);
#622=FACE_BOUND('',#580,.T.);
#623=FACE_BOUND('',#581,.T.);
#624=FACE_BOUND('',#582,.T.);
#625=FACE_BOUND('',#583,.T.);
#626=FACE_BOUND('',#584,.T.);
#627=FACE_BOUND('',#585,.T.);
#628=FACE_BOUND('',#586,.T.);
#629=FACE_BOUND('',#587,.T.);
#630=FACE_BOUND('',#588,.T.);
#631=FACE_BOUND('',#589,.T.);
#632=FACE_BOUND('',#590,.T.);
#633=FACE_BOUND('',#591,.T.);
#634=FACE_BOUND('',#592,.T.);
#635=FACE_BOUND('',#593,.T.);
#636=FACE_BOUND('',#594,.T.);
#637=PLANE('',#715);
#638=PLANE('',#716);
#639=PLANE('',#717);
#640=PLANE('',#718);
#641=PLANE('',#719);
#642=PLANE('',#720);
#643=PLANE('',#724);
#644=PLANE('',#728);
#645=PLANE('',#732);
#646=PLANE('',#733);
#647=PLANE('',#734);
#648=PLANE('',#735);
#649=PLANE('',#736);
#650=PLANE('',#737);
#651=PLANE('',#738);
#652=PLANE('',#739);
#653=PLANE('',#740);
#654=PLANE('',#741);
#655=PLANE('',#742);
#656=PLANE('',#743);
#657=PLANE('',#744);
#658=PLANE('',#745);
#659=PLANE('',#746);
#660=PLANE('',#747);
#661=PLANE('',#748);
#662=PLANE('',#749);
#663=PLANE('',#750);
#664=PLANE('',#751);
#665=PLANE('',#752);
#666=PLANE('',#753);
#667=PLANE('',#754);
#668=ADVANCED_FACE('',(#595,#596,#597),#637,.T.);
#669=ADVANCED_FACE('',(#598,#599,#600),#638,.T.);
#670=ADVANCED_FACE('',(#601,#602,#603),#639,.F.);
#671=ADVANCED_FACE('',(#604,#605,#606),#640,.F.);
#672=ADVANCED_FACE('',(#607),#641,.T.);
#673=ADVANCED_FACE('',(#608),#642,.T.);
#674=ADVANCED_FACE('',(#609),#18,.T.);
#675=ADVANCED_FACE('',(#610),#643,.T.);
#676=ADVANCED_FACE('',(#611),#19,.F.);
#677=ADVANCED_FACE('',(#612),#644,.F.);
#678=ADVANCED_FACE('',(#613),#20,.T.);
#679=ADVANCED_FACE('',(#614),#645,.F.);
#680=ADVANCED_FACE('',(#615),#646,.T.);
#681=ADVANCED_FACE('',(#616),#647,.F.);
#682=ADVANCED_FACE('',(#617),#648,.F.);
#683=ADVANCED_FACE('',(#618),#649,.T.);
#684=ADVANCED_FACE('',(#619),#650,.T.);
#685=ADVANCED_FACE('',(#620),#651,.F.);
#686=ADVANCED_FACE('',(#621),#652,.T.);
#687=ADVANCED_FACE('',(#622),#653,.F.);
#688=ADVANCED_FACE('',(#623),#654,.F.);
#689=ADVANCED_FACE('',(#624),#655,.T.);
#690=ADVANCED_FACE('',(#625),#656,.T.);
#691=ADVANCED_FACE('',(#626),#657,.F.);
#692=ADVANCED_FACE('',(#627),#658,.F.);
#693=ADVANCED_FACE('',(#628),#659,.T.);
#694=ADVANCED_FACE('',(#629),#660,.T.);
#695=ADVANCED_FACE('',(#630),#661,.F.);
#696=ADVANCED_FACE('',(#631),#662,.F.);
#697=ADVANCED_FACE('',(#632),#663,.T.);
#698=ADVANCED_FACE('',(#633),#664,.T.);
#699=ADVANCED_FACE('',(#634),#665,.F.);
#700=ADVANCED_FACE('',(#635),#666,.F.);
#701=ADVANCED_FACE('',(#636),#667,.T.);
#702=CLOSED_SHELL('',(#668,#669,#670,#671,#672,#673,#674,#675,#676,#677,
#678,#679,#680,#681,#682,#683,#684,#685,#686,#687,#688,#689,#690,#691,#692,
#693,#694,#695,#696,#697,#698,#699,#700,#701));
#703=STYLED_ITEM('',(#704),#711);
#704=PRESENTATION_STYLE_ASSIGNMENT((#705));
#705=SURFACE_STYLE_USAGE(.BOTH.,#706);
#706=SURFACE_SIDE_STYLE('',(#707));
#707=SURFACE_STYLE_FILL_AREA(#708);
#708=FILL_AREA_STYLE('',(#709));
#709=FILL_AREA_STYLE_COLOUR('',#710);
#710=COLOUR_RGB('',0.615686274509804,0.811764705882353,0.929411764705882);
#711=MANIFOLD_SOLID_BREP('Part 1',#702);
#712=SHAPE_DEFINITION_REPRESENTATION(#1128,#713);
#713=SHAPE_REPRESENTATION('Part 1',(#714),#1123);
#714=AXIS2_PLACEMENT_3D('',#927,#755,#756);
#715=AXIS2_PLACEMENT_3D('',#928,#757,#758);
#716=AXIS2_PLACEMENT_3D('',#953,#771,#772);
#717=AXIS2_PLACEMENT_3D('',#978,#785,#786);
#718=AXIS2_PLACEMENT_3D('',#1003,#799,#800);
#719=AXIS2_PLACEMENT_3D('',#1028,#813,#814);
#720=AXIS2_PLACEMENT_3D('',#1037,#819,#820);
#721=AXIS2_PLACEMENT_3D('',#1043,#824,#825);
#722=AXIS2_PLACEMENT_3D('',#1044,#826,#827);
#723=AXIS2_PLACEMENT_3D('',#1045,#828,#829);
#724=AXIS2_PLACEMENT_3D('',#1046,#830,#831);
#725=AXIS2_PLACEMENT_3D('',#1049,#834,#835);
#726=AXIS2_PLACEMENT_3D('',#1050,#836,#837);
#727=AXIS2_PLACEMENT_3D('',#1051,#838,#839);
#728=AXIS2_PLACEMENT_3D('',#1052,#840,#841);
#729=AXIS2_PLACEMENT_3D('',#1055,#844,#845);
#730=AXIS2_PLACEMENT_3D('',#1056,#846,#847);
#731=AXIS2_PLACEMENT_3D('',#1060,#849,#850);
#732=AXIS2_PLACEMENT_3D('',#1061,#851,#852);
#733=AXIS2_PLACEMENT_3D('',#1067,#856,#857);
#734=AXIS2_PLACEMENT_3D('',#1073,#861,#862);
#735=AXIS2_PLACEMENT_3D('',#1079,#866,#867);
#736=AXIS2_PLACEMENT_3D('',#1085,#871,#872);
#737=AXIS2_PLACEMENT_3D('',#1088,#875,#876);
#738=AXIS2_PLACEMENT_3D('',#1089,#877,#878);
#739=AXIS2_PLACEMENT_3D('',#1090,#879,#880);
#740=AXIS2_PLACEMENT_3D('',#1093,#883,#884);
#741=AXIS2_PLACEMENT_3D('',#1095,#886,#887);
#742=AXIS2_PLACEMENT_3D('',#1097,#889,#890);
#743=AXIS2_PLACEMENT_3D('',#1098,#891,#892);
#744=AXIS2_PLACEMENT_3D('',#1101,#895,#896);
#745=AXIS2_PLACEMENT_3D('',#1103,#898,#899);
#746=AXIS2_PLACEMENT_3D('',#1105,#901,#902);
#747=AXIS2_PLACEMENT_3D('',#1106,#903,#904);
#748=AXIS2_PLACEMENT_3D('',#1109,#907,#908);
#749=AXIS2_PLACEMENT_3D('',#1111,#910,#911);
#750=AXIS2_PLACEMENT_3D('',#1113,#913,#914);
#751=AXIS2_PLACEMENT_3D('',#1114,#915,#916);
#752=AXIS2_PLACEMENT_3D('',#1117,#919,#920);
#753=AXIS2_PLACEMENT_3D('',#1119,#922,#923);
#754=AXIS2_PLACEMENT_3D('',#1121,#925,#926);
#755=DIRECTION('',(0.,0.,1.));
#756=DIRECTION('',(1.,0.,0.));
#757=DIRECTION('',(0.999900476708557,0.0141080359370103,0.));
#758=DIRECTION('',(-0.0141080359370103,0.999900476708557,0.));
#759=DIRECTION('',(0.0141080359370103,-0.999900476708557,0.));
#760=DIRECTION('',(0.,0.,-1.));
#761=DIRECTION('',(0.0141080359370103,-0.999900476708557,0.));
#762=DIRECTION('',(0.,0.,-1.));
#763=DIRECTION('',(0.0141080359370103,-0.999900476708557,0.));
#764=DIRECTION('',(0.,0.,-1.));
#765=DIRECTION('',(0.0141080359370103,-0.999900476708557,0.));
#766=DIRECTION('',(0.,0.,-1.));
#767=DIRECTION('',(0.0141080359370103,-0.999900476708557,0.));
#768=DIRECTION('',(0.,0.,-1.));
#769=DIRECTION('',(0.0141080359370103,-0.999900476708557,0.));
#770=DIRECTION('',(0.,0.,-1.));
#771=DIRECTION('',(-0.999980636156366,-0.00622312721307796,0.));
#772=DIRECTION('',(0.00622312721307796,-0.999980636156366,0.));
#773=DIRECTION('',(-0.00622312721307796,0.999980636156366,0.));
#774=DIRECTION('',(0.,0.,-1.));
#775=DIRECTION('',(-0.00622312721307796,0.999980636156366,0.));
#776=DIRECTION('',(0.,0.,-1.));
#777=DIRECTION('',(-0.00622312721307796,0.999980636156366,0.));
#778=DIRECTION('',(0.,0.,1.));
#779=DIRECTION('',(-0.00622312721307796,0.999980636156366,0.));
#780=DIRECTION('',(0.,0.,1.));
#781=DIRECTION('',(-0.00622312721307796,0.999980636156366,0.));
#782=DIRECTION('',(0.,0.,1.));
#783=DIRECTION('',(-0.00622312721307796,0.999980636156366,0.));
#784=DIRECTION('',(0.,0.,1.));
#785=DIRECTION('',(-1.,0.,0.));
#786=DIRECTION('',(0.,0.,1.));
#787=DIRECTION('',(0.,0.,1.));
#788=DIRECTION('',(0.,1.,0.));
#789=DIRECTION('',(0.,0.,1.));
#790=DIRECTION('',(0.,1.,0.));
#791=DIRECTION('',(0.,1.,0.));
#792=DIRECTION('',(0.,0.,-1.));
#793=DIRECTION('',(0.,1.,0.));
#794=DIRECTION('',(0.,0.,-1.));
#795=DIRECTION('',(0.,0.,1.));
#796=DIRECTION('',(0.,1.,0.));
#797=DIRECTION('',(0.,0.,1.));
#798=DIRECTION('',(0.,1.,0.));
#799=DIRECTION('',(1.,2.02152120226593E-16,0.));
#800=DIRECTION('',(-2.02152120226593E-16,1.,0.));
#801=DIRECTION('',(0.,0.,-1.));
#802=DIRECTION('',(2.02152120226593E-16,-1.,0.));
#803=DIRECTION('',(0.,0.,-1.));
#804=DIRECTION('',(2.02152120226593E-16,-1.,0.));
#805=DIRECTION('',(2.02152120226593E-16,-1.,0.));
#806=DIRECTION('',(0.,0.,-1.));
#807=DIRECTION('',(2.02152120226593E-16,-1.,0.));
#808=DIRECTION('',(0.,0.,-1.));
#809=DIRECTION('',(0.,0.,-1.));
#810=DIRECTION('',(2.02152120226593E-16,-1.,0.));
#811=DIRECTION('',(0.,0.,-1.));
#812=DIRECTION('',(2.02152120226593E-16,-1.,0.));
#813=DIRECTION('',(0.,1.,0.));
#814=DIRECTION('',(0.,0.,1.));
#815=DIRECTION('',(1.,0.,0.));
#816=DIRECTION('',(0.,0.,-1.));
#817=DIRECTION('',(1.,0.,0.));
#818=DIRECTION('',(0.,0.,-1.));
#819=DIRECTION('',(1.,0.,0.));
#820=DIRECTION('',(0.,0.,-1.));
#821=DIRECTION('',(0.,-1.,0.));
#822=DIRECTION('',(0.,0.,-1.));
#823=DIRECTION('',(0.,-1.,0.));
#824=DIRECTION('',(0.,0.,-1.));
#825=DIRECTION('',(-1.,0.,0.));
#826=DIRECTION('',(0.,0.,1.));
#827=DIRECTION('',(1.,0.,0.));
#828=DIRECTION('',(0.,0.,1.));
#829=DIRECTION('',(1.,0.,0.));
#830=DIRECTION('',(0.,1.,0.));
#831=DIRECTION('',(0.,0.,1.));
#832=DIRECTION('',(1.,0.,0.));
#833=DIRECTION('',(1.,0.,0.));
#834=DIRECTION('',(0.,0.,-1.));
#835=DIRECTION('',(-1.,0.,0.));
#836=DIRECTION('',(0.,0.,1.));
#837=DIRECTION('',(1.,0.,0.));
#838=DIRECTION('',(0.,0.,1.));
#839=DIRECTION('',(1.,0.,0.));
#840=DIRECTION('',(0.,-1.,0.));
#841=DIRECTION('',(0.,0.,-1.));
#842=DIRECTION('',(-1.,0.,0.));
#843=DIRECTION('',(-1.,0.,0.));
#844=DIRECTION('',(0.,0.,-1.));
#845=DIRECTION('',(-1.,0.,0.));
#846=DIRECTION('',(0.,0.,1.));
#847=DIRECTION('',(1.,0.,0.));
#848=DIRECTION('',(0.,0.,-1.));
#849=DIRECTION('',(0.,0.,1.));
#850=DIRECTION('',(1.,0.,0.));
#851=DIRECTION('',(1.,0.,0.));
#852=DIRECTION('',(0.,0.,-1.));
#853=DIRECTION('',(0.,-1.,0.));
#854=DIRECTION('',(0.,0.,-1.));
#855=DIRECTION('',(0.,-1.,0.));
#856=DIRECTION('',(0.,1.,0.));
#857=DIRECTION('',(0.,0.,1.));
#858=DIRECTION('',(1.,0.,0.));
#859=DIRECTION('',(0.,0.,-1.));
#860=DIRECTION('',(1.,0.,0.));
#861=DIRECTION('',(1.,0.,0.));
#862=DIRECTION('',(0.,0.,-1.));
#863=DIRECTION('',(0.,-1.,0.));
#864=DIRECTION('',(0.,0.,-1.));
#865=DIRECTION('',(0.,-1.,0.));
#866=DIRECTION('',(-1.87928376564154E-16,1.,0.));
#867=DIRECTION('',(-1.,-1.87928376564154E-16,0.));
#868=DIRECTION('',(1.,1.87928376564154E-16,0.));
#869=DIRECTION('',(0.,0.,-1.));
#870=DIRECTION('',(1.,1.87928376564154E-16,0.));
#871=DIRECTION('',(1.,0.,0.));
#872=DIRECTION('',(0.,0.,-1.));
#873=DIRECTION('',(0.,-1.,0.));
#874=DIRECTION('',(0.,-1.,0.));
#875=DIRECTION('',(0.,0.,1.));
#876=DIRECTION('',(1.,0.,0.));
#877=DIRECTION('',(0.,0.,1.));
#878=DIRECTION('',(1.,0.,0.));
#879=DIRECTION('',(0.,0.,1.));
#880=DIRECTION('',(1.,0.,0.));
#881=DIRECTION('',(1.,0.,0.));
#882=DIRECTION('',(1.,0.,0.));
#883=DIRECTION('',(0.,-1.,0.));
#884=DIRECTION('',(0.,0.,-1.));
#885=DIRECTION('',(1.,0.,0.));
#886=DIRECTION('',(0.,0.,1.));
#887=DIRECTION('',(1.,0.,0.));
#888=DIRECTION('',(1.,0.,0.));
#889=DIRECTION('',(0.,-1.,0.));
#890=DIRECTION('',(0.,0.,-1.));
#891=DIRECTION('',(0.,0.,1.));
#892=DIRECTION('',(1.,0.,0.));
#893=DIRECTION('',(1.,0.,0.));
#894=DIRECTION('',(1.,0.,0.));
#895=DIRECTION('',(0.,-1.,0.));
#896=DIRECTION('',(0.,0.,-1.));
#897=DIRECTION('',(1.,0.,0.));
#898=DIRECTION('',(0.,0.,1.));
#899=DIRECTION('',(1.,0.,0.));
#900=DIRECTION('',(1.,0.,0.));
#901=DIRECTION('',(0.,-1.,0.));
#902=DIRECTION('',(0.,0.,-1.));
#903=DIRECTION('',(0.,-1.,0.));
#904=DIRECTION('',(0.,0.,-1.));
#905=DIRECTION('',(1.,0.,0.));
#906=DIRECTION('',(1.,0.,0.));
#907=DIRECTION('',(0.,0.,1.));
#908=DIRECTION('',(1.,0.,0.));
#909=DIRECTION('',(1.,0.,0.));
#910=DIRECTION('',(0.,-1.,0.));
#911=DIRECTION('',(0.,0.,-1.));
#912=DIRECTION('',(1.,0.,0.));
#913=DIRECTION('',(0.,0.,1.));
#914=DIRECTION('',(1.,0.,0.));
#915=DIRECTION('',(0.,-1.,0.));
#916=DIRECTION('',(0.,0.,-1.));
#917=DIRECTION('',(1.,0.,0.));
#918=DIRECTION('',(1.,0.,0.));
#919=DIRECTION('',(0.,0.,1.));
#920=DIRECTION('',(1.,0.,0.));
#921=DIRECTION('',(1.,0.,0.));
#922=DIRECTION('',(0.,-1.,0.));
#923=DIRECTION('',(0.,0.,-1.));
#924=DIRECTION('',(1.,0.,0.));
#925=DIRECTION('',(0.,0.,1.));
#926=DIRECTION('',(1.,0.,0.));
#927=CARTESIAN_POINT('',(0.,0.,0.));
#928=CARTESIAN_POINT('',(0.00374181193788942,0.0139646532316922,0.03));
#929=CARTESIAN_POINT('',(0.00374181193788942,0.0139646532316922,0.));
#930=CARTESIAN_POINT('',(0.00371137862148548,0.0161216003585631,0.));
#931=CARTESIAN_POINT('',(0.00377224525429337,0.0118077061048213,0.));
#932=CARTESIAN_POINT('',(0.00371137862148548,0.0161216003585631,0.03));
#933=CARTESIAN_POINT('',(0.00371137862148548,0.0161216003585631,0.03));
#934=CARTESIAN_POINT('',(0.00374181193788942,0.0139646532316922,0.03));
#935=CARTESIAN_POINT('',(0.00377224525429337,0.0118077061048213,0.03));
#936=CARTESIAN_POINT('',(0.00377224525429337,0.0118077061048213,0.03));
#937=CARTESIAN_POINT('',(0.00374181193788942,0.0139646532316922,0.0150436842814088));
#938=CARTESIAN_POINT('',(0.00373027994324727,0.014781977981329,0.0150436842814088));
#939=CARTESIAN_POINT('',(0.0037540612752693,0.0130964871495962,0.0150436842814088));
#940=CARTESIAN_POINT('',(0.00373027994324727,0.014781977981329,0.03));
#941=CARTESIAN_POINT('',(0.00373027994324727,0.014781977981329,0.00219181901775301));
#942=CARTESIAN_POINT('',(0.00374181193788942,0.0139646532316922,0.00219181901775301));
#943=CARTESIAN_POINT('',(0.0037540612752693,0.0130964871495962,0.00219181901775301));
#944=CARTESIAN_POINT('',(0.0037540612752693,0.0130964871495962,0.03));
#945=CARTESIAN_POINT('',(0.00374181193788942,0.0139646532316922,0.0282642506062985));
#946=CARTESIAN_POINT('',(0.00372879361492356,0.0148873208090663,0.0282642506062985));
#947=CARTESIAN_POINT('',(0.00375629076118464,0.0129384733736515,0.0282642506062985));
#948=CARTESIAN_POINT('',(0.00372879361492356,0.0148873208090663,0.03));
#949=CARTESIAN_POINT('',(0.00372879361492356,0.0148873208090663,0.0190993957221508));
#950=CARTESIAN_POINT('',(0.00374181193788942,0.0139646532316922,0.0190993957221508));
#951=CARTESIAN_POINT('',(0.00375629076118464,0.0129384733736515,0.0190993957221508));
#952=CARTESIAN_POINT('',(0.00375629076118464,0.0129384733736515,0.03));
#953=CARTESIAN_POINT('',(0.000996301917670815,0.0145698573906237,0.03));
#954=CARTESIAN_POINT('',(0.000996301917670815,0.0145698573906237,0.));
#955=CARTESIAN_POINT('',(0.00101228434422859,0.0120016763894411,0.));
#956=CARTESIAN_POINT('',(0.000986645036784998,0.0161216003585631,0.));
#957=CARTESIAN_POINT('',(0.00101228434422859,0.0120016763894411,0.03));
#958=CARTESIAN_POINT('',(0.00101228434422859,0.0120016763894411,0.03));
#959=CARTESIAN_POINT('',(0.000996301917670815,0.0145698573906237,0.03));
#960=CARTESIAN_POINT('',(0.000986645036784998,0.0161216003585631,0.03));
#961=CARTESIAN_POINT('',(0.000986645036784998,0.0161216003585631,0.03));
#962=CARTESIAN_POINT('',(0.000996301917670815,0.0145698573906237,0.00219181901775301));
#963=CARTESIAN_POINT('',(0.00100547106566264,0.0130964871495962,0.00219181901775301));
#964=CARTESIAN_POINT('',(0.00099498183868854,0.014781977981329,0.00219181901775301));
#965=CARTESIAN_POINT('',(0.00099498183868854,0.014781977981329,0.03));
#966=CARTESIAN_POINT('',(0.000994981838688539,0.014781977981329,0.0150436842814088));
#967=CARTESIAN_POINT('',(0.000996301917670815,0.0145698573906237,0.0150436842814088));
#968=CARTESIAN_POINT('',(0.00100547106566264,0.0130964871495962,0.0150436842814088));
#969=CARTESIAN_POINT('',(0.00100547106566264,0.0130964871495962,0.03));
#970=CARTESIAN_POINT('',(0.000996301917670815,0.0145698573906237,0.0190993957221508));
#971=CARTESIAN_POINT('',(0.00100645442453337,0.0129384733736515,0.0190993957221508));
#972=CARTESIAN_POINT('',(0.000994326264176103,0.0148873208090663,0.0190993957221508));
#973=CARTESIAN_POINT('',(0.000994326264176103,0.0148873208090663,0.03));
#974=CARTESIAN_POINT('',(0.000994326264176102,0.0148873208090663,0.0282642506062985));
#975=CARTESIAN_POINT('',(0.000996301917670815,0.0145698573906237,0.0282642506062985));
#976=CARTESIAN_POINT('',(0.00100645442453337,0.0129384733736515,0.0282642506062985));
#977=CARTESIAN_POINT('',(0.00100645442453337,0.0129384733736515,0.03));
#978=CARTESIAN_POINT('',(-0.000996116008484545,0.0145289963446223,0.03));
#979=CARTESIAN_POINT('',(-0.000996116008484545,0.014781977981329,0.03));
#980=CARTESIAN_POINT('',(-0.000996116008484545,0.014781977981329,0.00219181901775301));
#981=CARTESIAN_POINT('',(-0.000996116008484545,0.014781977981329,0.0150436842814088));
#982=CARTESIAN_POINT('',(-0.000996116008484545,0.0145289963446223,0.00219181901775301));
#983=CARTESIAN_POINT('',(-0.000996116008484545,0.0130964871495962,0.00219181901775301));
#984=CARTESIAN_POINT('',(-0.000996116008484545,0.0130964871495962,0.03));
#985=CARTESIAN_POINT('',(-0.000996116008484545,0.0130964871495962,0.0150436842814088));
#986=CARTESIAN_POINT('',(-0.000996116008484545,0.0145289963446223,0.0150436842814088));
#987=CARTESIAN_POINT('',(-0.000996116008484545,0.0145289963446223,0.));
#988=CARTESIAN_POINT('',(-0.000996116008484545,0.0119798493855122,0.));
#989=CARTESIAN_POINT('',(-0.000996116008484545,0.0160589633274847,0.));
#990=CARTESIAN_POINT('',(-0.000996116008484545,0.0160589633274847,0.03));
#991=CARTESIAN_POINT('',(-0.000996116008484545,0.0160589633274847,0.03));
#992=CARTESIAN_POINT('',(-0.000996116008484545,0.0145289963446223,0.03));
#993=CARTESIAN_POINT('',(-0.000996116008484545,0.0119798493855122,0.03));
#994=CARTESIAN_POINT('',(-0.000996116008484545,0.0119798493855122,0.03));
#995=CARTESIAN_POINT('',(-0.000996116008484545,0.0148873208090663,0.03));
#996=CARTESIAN_POINT('',(-0.000996116008484545,0.0148873208090663,0.0190993957221508));
#997=CARTESIAN_POINT('',(-0.000996116008484545,0.0148873208090663,0.0282642506062985));
#998=CARTESIAN_POINT('',(-0.000996116008484545,0.0145289963446223,0.0190993957221508));
#999=CARTESIAN_POINT('',(-0.000996116008484545,0.0129384733736515,0.0190993957221508));
#1000=CARTESIAN_POINT('',(-0.000996116008484545,0.0129384733736515,0.03));
#1001=CARTESIAN_POINT('',(-0.000996116008484545,0.0129384733736515,0.0282642506062985));
#1002=CARTESIAN_POINT('',(-0.000996116008484545,0.0145289963446223,0.0282642506062985));
#1003=CARTESIAN_POINT('',(-0.0036991148830318,0.013913643909078,0.03));
#1004=CARTESIAN_POINT('',(-0.0036991148830318,0.014781977981329,0.03));
#1005=CARTESIAN_POINT('',(-0.0036991148830318,0.014781977981329,0.0150436842814088));
#1006=CARTESIAN_POINT('',(-0.0036991148830318,0.014781977981329,0.00219181901775301));
#1007=CARTESIAN_POINT('',(-0.0036991148830318,0.013913643909078,0.0150436842814088));
#1008=CARTESIAN_POINT('',(-0.0036991148830318,0.0130964871495962,0.0150436842814088));
#1009=CARTESIAN_POINT('',(-0.0036991148830318,0.0130964871495962,0.03));
#1010=CARTESIAN_POINT('',(-0.0036991148830318,0.0130964871495962,0.00219181901775301));
#1011=CARTESIAN_POINT('',(-0.0036991148830318,0.013913643909078,0.00219181901775301));
#1012=CARTESIAN_POINT('',(-0.0036991148830318,0.013913643909078,0.));
#1013=CARTESIAN_POINT('',(-0.0036991148830318,0.0160589633274847,0.));
#1014=CARTESIAN_POINT('',(-0.0036991148830318,0.0117683244906712,0.));
#1015=CARTESIAN_POINT('',(-0.0036991148830318,0.0117683244906712,0.03));
#1016=CARTESIAN_POINT('',(-0.0036991148830318,0.0117683244906712,0.03));
#1017=CARTESIAN_POINT('',(-0.0036991148830318,0.013913643909078,0.03));
#1018=CARTESIAN_POINT('',(-0.0036991148830318,0.0160589633274847,0.03));
#1019=CARTESIAN_POINT('',(-0.0036991148830318,0.0160589633274847,0.03));
#1020=CARTESIAN_POINT('',(-0.0036991148830318,0.0148873208090663,0.03));
#1021=CARTESIAN_POINT('',(-0.0036991148830318,0.0148873208090663,0.0282642506062985));
#1022=CARTESIAN_POINT('',(-0.0036991148830318,0.0148873208090663,0.0190993957221508));
#1023=CARTESIAN_POINT('',(-0.0036991148830318,0.013913643909078,0.0282642506062985));
#1024=CARTESIAN_POINT('',(-0.0036991148830318,0.0129384733736515,0.0282642506062985));
#1025=CARTESIAN_POINT('',(-0.0036991148830318,0.0129384733736515,0.03));
#1026=CARTESIAN_POINT('',(-0.0036991148830318,0.0129384733736515,0.0190993957221508));
#1027=CARTESIAN_POINT('',(-0.0036991148830318,0.013913643909078,0.0190993957221508));
#1028=CARTESIAN_POINT('',(0.00799334436762512,0.,0.03));
#1029=CARTESIAN_POINT('',(0.00799334436762512,0.,0.));
#1030=CARTESIAN_POINT('',(0.000986688735250232,0.,0.));
#1031=CARTESIAN_POINT('',(0.015,0.,0.));
#1032=CARTESIAN_POINT('',(0.000986688735250232,0.,0.03));
#1033=CARTESIAN_POINT('',(0.000986688735250232,0.,0.03));
#1034=CARTESIAN_POINT('',(0.00799334436762512,0.,0.03));
#1035=CARTESIAN_POINT('',(0.015,0.,0.03));
#1036=CARTESIAN_POINT('',(0.015,0.,0.03));
#1037=CARTESIAN_POINT('',(0.000986688735250232,0.000582366766063843,0.03));
#1038=CARTESIAN_POINT('',(0.000986688735250232,0.000582366766063843,0.));
#1039=CARTESIAN_POINT('',(0.000986688735250235,0.00116473353212769,0.));
#1040=CARTESIAN_POINT('',(0.000986688735250235,0.00116473353212769,0.03));
#1041=CARTESIAN_POINT('',(0.000986688735250235,0.00116473353212769,0.03));
#1042=CARTESIAN_POINT('',(0.000986688735250232,0.000582366766063843,0.03));
#1043=CARTESIAN_POINT('',(6.13129533496996E-5,0.00709294402621967,0.03));
#1044=CARTESIAN_POINT('',(6.13129533496996E-5,0.00709294402621967,0.));
#1045=CARTESIAN_POINT('',(6.13129533496996E-5,0.00709294402621967,0.03));
#1046=CARTESIAN_POINT('',(0.00234901182913524,0.0161216003585631,0.03));
#1047=CARTESIAN_POINT('',(0.00234901182913524,0.0161216003585631,0.));
#1048=CARTESIAN_POINT('',(0.00234901182913524,0.0161216003585631,0.03));
#1049=CARTESIAN_POINT('',(6.13129533495857E-5,0.00709294402622047,0.03));
#1050=CARTESIAN_POINT('',(6.13129533495857E-5,0.00709294402622047,0.));
#1051=CARTESIAN_POINT('',(6.13129533495857E-5,0.00709294402622047,0.03));
#1052=CARTESIAN_POINT('',(-0.00234761544575818,0.0160589633274847,0.03));
#1053=CARTESIAN_POINT('',(-0.00234761544575818,0.0160589633274847,0.));
#1054=CARTESIAN_POINT('',(-0.00234761544575818,0.0160589633274847,0.03));
#1055=CARTESIAN_POINT('',(6.13129533495871E-5,0.00709294402622047,0.03));
#1056=CARTESIAN_POINT('',(6.13129533495871E-5,0.00709294402622047,0.));
#1057=CARTESIAN_POINT('',(-0.000870454121892626,0.00116573472356423,0.));
#1058=CARTESIAN_POINT('',(-0.000870454121892626,0.00116573472356423,0.03));
#1059=CARTESIAN_POINT('',(-0.000870454121892626,0.00116573472356423,0.03));
#1060=CARTESIAN_POINT('',(6.13129533495871E-5,0.00709294402622047,0.03));
#1061=CARTESIAN_POINT('',(-0.000870454121892627,0.000582867361782117,0.03));
#1062=CARTESIAN_POINT('',(-0.000870454121892627,0.000582867361782117,0.));
#1063=CARTESIAN_POINT('',(-0.000870454121892626,0.,0.));
#1064=CARTESIAN_POINT('',(-0.000870454121892626,0.,0.03));
#1065=CARTESIAN_POINT('',(-0.000870454121892626,0.,0.03));
#1066=CARTESIAN_POINT('',(-0.000870454121892627,0.000582867361782117,0.03));
#1067=CARTESIAN_POINT('',(-0.00793522706094631,0.,0.03));
#1068=CARTESIAN_POINT('',(-0.00793522706094631,0.,0.));
#1069=CARTESIAN_POINT('',(-0.015,0.,0.));
#1070=CARTESIAN_POINT('',(-0.015,0.,0.03));
#1071=CARTESIAN_POINT('',(-0.015,0.,0.03));
#1072=CARTESIAN_POINT('',(-0.00793522706094631,0.,0.03));
#1073=CARTESIAN_POINT('',(-0.015,-0.0005,0.03));
#1074=CARTESIAN_POINT('',(-0.015,-0.0005,0.));
#1075=CARTESIAN_POINT('',(-0.015,-0.001,0.));
#1076=CARTESIAN_POINT('',(-0.015,-0.001,0.03));
#1077=CARTESIAN_POINT('',(-0.015,-0.001,0.03));
#1078=CARTESIAN_POINT('',(-0.015,-0.0005,0.03));
#1079=CARTESIAN_POINT('',(0.,-0.001,0.03));
#1080=CARTESIAN_POINT('',(0.,-0.001,0.));
#1081=CARTESIAN_POINT('',(0.015,-0.001,0.));
#1082=CARTESIAN_POINT('',(0.015,-0.001,0.03));
#1083=CARTESIAN_POINT('',(0.015,-0.001,0.03));
#1084=CARTESIAN_POINT('',(0.,-0.001,0.03));
#1085=CARTESIAN_POINT('',(0.015,-0.0005,0.03));
#1086=CARTESIAN_POINT('',(0.015,-0.0005,0.));
#1087=CARTESIAN_POINT('',(0.015,-0.0005,0.03));
#1088=CARTESIAN_POINT('',(0.,0.00756080017928152,0.03));
#1089=CARTESIAN_POINT('',(0.,0.00756080017928152,0.));
#1090=CARTESIAN_POINT('',(-0.0125,0.0139392325654626,0.00219181901775301));
#1091=CARTESIAN_POINT('',(-0.0125,0.014781977981329,0.00219181901775301));
#1092=CARTESIAN_POINT('',(-0.0125,0.0130964871495962,0.00219181901775301));
#1093=CARTESIAN_POINT('',(-0.0125,0.0130964871495962,0.0086177516495809));
#1094=CARTESIAN_POINT('',(-0.0125,0.0130964871495962,0.0150436842814088));
#1095=CARTESIAN_POINT('',(-0.0125,0.0139392325654626,0.0150436842814088));
#1096=CARTESIAN_POINT('',(-0.0125,0.014781977981329,0.0150436842814088));
#1097=CARTESIAN_POINT('',(-0.0125,0.014781977981329,0.0086177516495809));
#1098=CARTESIAN_POINT('',(-0.0125,0.0139128970913589,0.0190993957221508));
#1099=CARTESIAN_POINT('',(-0.0125,0.0148873208090663,0.0190993957221508));
#1100=CARTESIAN_POINT('',(-0.0125,0.0129384733736515,0.0190993957221508));
#1101=CARTESIAN_POINT('',(-0.0125,0.0129384733736515,0.0236818231642246));
#1102=CARTESIAN_POINT('',(-0.0125,0.0129384733736515,0.0282642506062985));
#1103=CARTESIAN_POINT('',(-0.0125,0.0139128970913589,0.0282642506062985));
#1104=CARTESIAN_POINT('',(-0.0125,0.0148873208090663,0.0282642506062985));
#1105=CARTESIAN_POINT('',(-0.0125,0.0148873208090663,0.0236818231642246));
#1106=CARTESIAN_POINT('',(-0.0125,0.014781977981329,0.0086177516495809));
#1107=CARTESIAN_POINT('',(-0.0125,0.014781977981329,0.0150436842814088));
#1108=CARTESIAN_POINT('',(-0.0125,0.014781977981329,0.00219181901775301));
#1109=CARTESIAN_POINT('',(-0.0125,0.0139392325654626,0.0150436842814088));
#1110=CARTESIAN_POINT('',(-0.0125,0.0130964871495962,0.0150436842814088));
#1111=CARTESIAN_POINT('',(-0.0125,0.0130964871495962,0.0086177516495809));
#1112=CARTESIAN_POINT('',(-0.0125,0.0130964871495962,0.00219181901775301));
#1113=CARTESIAN_POINT('',(-0.0125,0.0139392325654626,0.00219181901775301));
#1114=CARTESIAN_POINT('',(-0.0125,0.0148873208090663,0.0236818231642246));
#1115=CARTESIAN_POINT('',(-0.0125,0.0148873208090663,0.0282642506062985));
#1116=CARTESIAN_POINT('',(-0.0125,0.0148873208090663,0.0190993957221508));
#1117=CARTESIAN_POINT('',(-0.0125,0.0139128970913589,0.0282642506062985));
#1118=CARTESIAN_POINT('',(-0.0125,0.0129384733736515,0.0282642506062985));
#1119=CARTESIAN_POINT('',(-0.0125,0.0129384733736515,0.0236818231642246));
#1120=CARTESIAN_POINT('',(-0.0125,0.0129384733736515,0.0190993957221508));
#1121=CARTESIAN_POINT('',(-0.0125,0.0139128970913589,0.0190993957221508));
#1122=MECHANICAL_DESIGN_GEOMETRIC_PRESENTATION_REPRESENTATION('',(#703),
#1123);
#1123=(
GEOMETRIC_REPRESENTATION_CONTEXT(3)
GLOBAL_UNCERTAINTY_ASSIGNED_CONTEXT((#1124))
GLOBAL_UNIT_ASSIGNED_CONTEXT((#1127,#1126,#1125))
REPRESENTATION_CONTEXT('Part 1','TOP_LEVEL_ASSEMBLY_PART')
);
#1124=UNCERTAINTY_MEASURE_WITH_UNIT(LENGTH_MEASURE(1.E-8),#1127,
'DISTANCE_ACCURACY_VALUE','Maximum Tolerance applied to model');
#1125=(
NAMED_UNIT(*)
SI_UNIT($,.STERADIAN.)
SOLID_ANGLE_UNIT()
);
#1126=(
NAMED_UNIT(*)
PLANE_ANGLE_UNIT()
SI_UNIT($,.RADIAN.)
);
#1127=(
LENGTH_UNIT()
NAMED_UNIT(*)
SI_UNIT($,.METRE.)
);
#1128=PRODUCT_DEFINITION_SHAPE('','',#1129);
#1129=PRODUCT_DEFINITION('','',#1131,#1130);
#1130=PRODUCT_DEFINITION_CONTEXT('',#1137,'design');
#1131=PRODUCT_DEFINITION_FORMATION_WITH_SPECIFIED_SOURCE('','',#1133,
 .NOT_KNOWN.);
#1132=PRODUCT_RELATED_PRODUCT_CATEGORY('','',(#1133));
#1133=PRODUCT('Part 1','Part 1','Part 1',(#1135));
#1134=PRODUCT_CATEGORY('','');
#1135=PRODUCT_CONTEXT('',#1137,'mechanical');
#1136=APPLICATION_PROTOCOL_DEFINITION('international standard',
'ap242_managed_model_based_3d_engineering',2020,#1137);
#1137=APPLICATION_CONTEXT('managed model based 3d engineering');
ENDSEC;
END-ISO-10303-21;
