ISO-10303-21;
HEADER;
/* Generated by software containing ST-Developer
 * from STEP Tools, Inc. (www.steptools.com) 
 */
/* OPTION: using custom renumber hook */

FILE_DESCRIPTION(
/* description */ ('STEP AP242 Edition 2',
'CAx-IF Rec.Pracs.---Representation and Presentation of Product Manufa
cturing Information (PMI)---4.0---2014-10-13',
'CAx-IF Rec.Pracs.---3D Tessellated Geometry---0.4---2014-09-14','2;1',
'CAx-IF Rec.Pracs.---User Defined Attributes---1.5---2016-08-15'),
/* implementation_level */ '2;1');

FILE_NAME(
/* name */ 'WingSparHolder',
/* time_stamp */ '2026-07-17T10:35:01Z',
/* author */ (''),
/* organization */ (''),
/* preprocessor_version */ 'ST-DEVELOPER v20',
/* originating_system */ 'ONSHAPE BY PTC INC, 1.217',
/* authorisation */ '  ');

FILE_SCHEMA (('AP242_MANAGED_MODEL_BASED_3D_ENGINEERING_MIM_LF { 1 0 10303 442 3 1 4 }'));
ENDSEC;

DATA;
#10=SHAPE_REPRESENTATION_RELATIONSHIP('','',#906,#11);
#11=ADVANCED_BREP_SHAPE_REPRESENTATION('',(#904),#1424);
#12=CYLINDRICAL_SURFACE('',#934,0.005);
#13=CYLINDRICAL_SURFACE('',#936,0.007);
#14=CYLINDRICAL_SURFACE('',#937,0.007);
#15=CIRCLE('',#919,0.007);
#16=CIRCLE('',#920,0.005);
#17=CIRCLE('',#921,0.007);
#18=CIRCLE('',#925,0.007);
#19=CIRCLE('',#926,0.005);
#20=CIRCLE('',#927,0.007);
#21=ORIENTED_EDGE('',*,*,#267,.F.);
#22=ORIENTED_EDGE('',*,*,#268,.T.);
#23=ORIENTED_EDGE('',*,*,#269,.T.);
#24=ORIENTED_EDGE('',*,*,#270,.F.);
#25=ORIENTED_EDGE('',*,*,#271,.T.);
#26=ORIENTED_EDGE('',*,*,#272,.F.);
#27=ORIENTED_EDGE('',*,*,#273,.F.);
#28=ORIENTED_EDGE('',*,*,#274,.T.);
#29=ORIENTED_EDGE('',*,*,#275,.F.);
#30=ORIENTED_EDGE('',*,*,#276,.F.);
#31=ORIENTED_EDGE('',*,*,#277,.T.);
#32=ORIENTED_EDGE('',*,*,#278,.T.);
#33=ORIENTED_EDGE('',*,*,#279,.F.);
#34=ORIENTED_EDGE('',*,*,#280,.F.);
#35=ORIENTED_EDGE('',*,*,#281,.T.);
#36=ORIENTED_EDGE('',*,*,#282,.T.);
#37=ORIENTED_EDGE('',*,*,#283,.T.);
#38=ORIENTED_EDGE('',*,*,#284,.F.);
#39=ORIENTED_EDGE('',*,*,#285,.F.);
#40=ORIENTED_EDGE('',*,*,#286,.T.);
#41=ORIENTED_EDGE('',*,*,#287,.F.);
#42=ORIENTED_EDGE('',*,*,#288,.T.);
#43=ORIENTED_EDGE('',*,*,#289,.T.);
#44=ORIENTED_EDGE('',*,*,#290,.F.);
#45=ORIENTED_EDGE('',*,*,#291,.F.);
#46=ORIENTED_EDGE('',*,*,#292,.F.);
#47=ORIENTED_EDGE('',*,*,#293,.T.);
#48=ORIENTED_EDGE('',*,*,#294,.T.);
#49=ORIENTED_EDGE('',*,*,#295,.T.);
#50=ORIENTED_EDGE('',*,*,#296,.T.);
#51=ORIENTED_EDGE('',*,*,#297,.F.);
#52=ORIENTED_EDGE('',*,*,#298,.F.);
#53=ORIENTED_EDGE('',*,*,#299,.F.);
#54=ORIENTED_EDGE('',*,*,#300,.T.);
#55=ORIENTED_EDGE('',*,*,#301,.T.);
#56=ORIENTED_EDGE('',*,*,#302,.F.);
#57=ORIENTED_EDGE('',*,*,#303,.F.);
#58=ORIENTED_EDGE('',*,*,#304,.F.);
#59=ORIENTED_EDGE('',*,*,#305,.T.);
#60=ORIENTED_EDGE('',*,*,#306,.T.);
#61=ORIENTED_EDGE('',*,*,#307,.F.);
#62=ORIENTED_EDGE('',*,*,#308,.T.);
#63=ORIENTED_EDGE('',*,*,#309,.T.);
#64=ORIENTED_EDGE('',*,*,#310,.F.);
#65=ORIENTED_EDGE('',*,*,#311,.T.);
#66=ORIENTED_EDGE('',*,*,#312,.T.);
#67=ORIENTED_EDGE('',*,*,#313,.F.);
#68=ORIENTED_EDGE('',*,*,#314,.F.);
#69=ORIENTED_EDGE('',*,*,#315,.F.);
#70=ORIENTED_EDGE('',*,*,#316,.T.);
#71=ORIENTED_EDGE('',*,*,#317,.T.);
#72=ORIENTED_EDGE('',*,*,#318,.F.);
#73=ORIENTED_EDGE('',*,*,#319,.T.);
#74=ORIENTED_EDGE('',*,*,#320,.T.);
#75=ORIENTED_EDGE('',*,*,#321,.F.);
#76=ORIENTED_EDGE('',*,*,#322,.F.);
#77=ORIENTED_EDGE('',*,*,#323,.T.);
#78=ORIENTED_EDGE('',*,*,#324,.F.);
#79=ORIENTED_EDGE('',*,*,#325,.F.);
#80=ORIENTED_EDGE('',*,*,#326,.T.);
#81=ORIENTED_EDGE('',*,*,#327,.T.);
#82=ORIENTED_EDGE('',*,*,#328,.T.);
#83=ORIENTED_EDGE('',*,*,#329,.F.);
#84=ORIENTED_EDGE('',*,*,#330,.F.);
#85=ORIENTED_EDGE('',*,*,#331,.F.);
#86=ORIENTED_EDGE('',*,*,#332,.T.);
#87=ORIENTED_EDGE('',*,*,#326,.F.);
#88=ORIENTED_EDGE('',*,*,#333,.T.);
#89=ORIENTED_EDGE('',*,*,#334,.T.);
#90=ORIENTED_EDGE('',*,*,#335,.T.);
#91=ORIENTED_EDGE('',*,*,#336,.T.);
#92=ORIENTED_EDGE('',*,*,#337,.F.);
#93=ORIENTED_EDGE('',*,*,#338,.T.);
#94=ORIENTED_EDGE('',*,*,#339,.F.);
#95=ORIENTED_EDGE('',*,*,#340,.T.);
#96=ORIENTED_EDGE('',*,*,#341,.F.);
#97=ORIENTED_EDGE('',*,*,#342,.F.);
#98=ORIENTED_EDGE('',*,*,#324,.T.);
#99=ORIENTED_EDGE('',*,*,#329,.T.);
#100=ORIENTED_EDGE('',*,*,#343,.T.);
#101=ORIENTED_EDGE('',*,*,#344,.F.);
#102=ORIENTED_EDGE('',*,*,#345,.F.);
#103=ORIENTED_EDGE('',*,*,#344,.T.);
#104=ORIENTED_EDGE('',*,*,#346,.T.);
#105=ORIENTED_EDGE('',*,*,#319,.F.);
#106=ORIENTED_EDGE('',*,*,#347,.F.);
#107=ORIENTED_EDGE('',*,*,#283,.F.);
#108=ORIENTED_EDGE('',*,*,#348,.F.);
#109=ORIENTED_EDGE('',*,*,#271,.F.);
#110=ORIENTED_EDGE('',*,*,#349,.F.);
#111=ORIENTED_EDGE('',*,*,#303,.T.);
#112=ORIENTED_EDGE('',*,*,#350,.T.);
#113=ORIENTED_EDGE('',*,*,#291,.T.);
#114=ORIENTED_EDGE('',*,*,#351,.F.);
#115=ORIENTED_EDGE('',*,*,#317,.F.);
#116=ORIENTED_EDGE('',*,*,#352,.T.);
#117=ORIENTED_EDGE('',*,*,#353,.F.);
#118=ORIENTED_EDGE('',*,*,#354,.T.);
#119=ORIENTED_EDGE('',*,*,#353,.T.);
#120=ORIENTED_EDGE('',*,*,#355,.T.);
#121=ORIENTED_EDGE('',*,*,#335,.F.);
#122=ORIENTED_EDGE('',*,*,#356,.T.);
#123=ORIENTED_EDGE('',*,*,#337,.T.);
#124=ORIENTED_EDGE('',*,*,#357,.T.);
#125=ORIENTED_EDGE('',*,*,#358,.F.);
#126=ORIENTED_EDGE('',*,*,#359,.F.);
#127=ORIENTED_EDGE('',*,*,#321,.T.);
#128=ORIENTED_EDGE('',*,*,#360,.T.);
#129=ORIENTED_EDGE('',*,*,#361,.F.);
#130=ORIENTED_EDGE('',*,*,#362,.F.);
#131=ORIENTED_EDGE('',*,*,#358,.T.);
#132=ORIENTED_EDGE('',*,*,#363,.T.);
#133=ORIENTED_EDGE('',*,*,#315,.T.);
#134=ORIENTED_EDGE('',*,*,#364,.T.);
#135=ORIENTED_EDGE('',*,*,#293,.F.);
#136=ORIENTED_EDGE('',*,*,#365,.F.);
#137=ORIENTED_EDGE('',*,*,#305,.F.);
#138=ORIENTED_EDGE('',*,*,#366,.T.);
#139=ORIENTED_EDGE('',*,*,#273,.T.);
#140=ORIENTED_EDGE('',*,*,#367,.T.);
#141=ORIENTED_EDGE('',*,*,#285,.T.);
#142=ORIENTED_EDGE('',*,*,#368,.T.);
#143=ORIENTED_EDGE('',*,*,#361,.T.);
#144=ORIENTED_EDGE('',*,*,#369,.T.);
#145=ORIENTED_EDGE('',*,*,#327,.F.);
#146=ORIENTED_EDGE('',*,*,#370,.T.);
#147=ORIENTED_EDGE('',*,*,#330,.T.);
#148=ORIENTED_EDGE('',*,*,#345,.T.);
#149=ORIENTED_EDGE('',*,*,#354,.F.);
#150=ORIENTED_EDGE('',*,*,#356,.F.);
#151=ORIENTED_EDGE('',*,*,#338,.F.);
#152=ORIENTED_EDGE('',*,*,#359,.T.);
#153=ORIENTED_EDGE('',*,*,#362,.T.);
#154=ORIENTED_EDGE('',*,*,#370,.F.);
#155=ORIENTED_EDGE('',*,*,#371,.T.);
#156=ORIENTED_EDGE('',*,*,#340,.F.);
#157=ORIENTED_EDGE('',*,*,#372,.F.);
#158=ORIENTED_EDGE('',*,*,#331,.T.);
#159=ORIENTED_EDGE('',*,*,#372,.T.);
#160=ORIENTED_EDGE('',*,*,#339,.T.);
#161=ORIENTED_EDGE('',*,*,#323,.F.);
#162=ORIENTED_EDGE('',*,*,#332,.F.);
#163=ORIENTED_EDGE('',*,*,#325,.T.);
#164=ORIENTED_EDGE('',*,*,#342,.T.);
#165=ORIENTED_EDGE('',*,*,#373,.F.);
#166=ORIENTED_EDGE('',*,*,#333,.F.);
#167=ORIENTED_EDGE('',*,*,#373,.T.);
#168=ORIENTED_EDGE('',*,*,#341,.T.);
#169=ORIENTED_EDGE('',*,*,#371,.F.);
#170=ORIENTED_EDGE('',*,*,#334,.F.);
#171=ORIENTED_EDGE('',*,*,#349,.T.);
#172=ORIENTED_EDGE('',*,*,#274,.F.);
#173=ORIENTED_EDGE('',*,*,#366,.F.);
#174=ORIENTED_EDGE('',*,*,#304,.T.);
#175=ORIENTED_EDGE('',*,*,#348,.T.);
#176=ORIENTED_EDGE('',*,*,#286,.F.);
#177=ORIENTED_EDGE('',*,*,#367,.F.);
#178=ORIENTED_EDGE('',*,*,#272,.T.);
#179=ORIENTED_EDGE('',*,*,#347,.T.);
#180=ORIENTED_EDGE('',*,*,#322,.T.);
#181=ORIENTED_EDGE('',*,*,#368,.F.);
#182=ORIENTED_EDGE('',*,*,#284,.T.);
#183=ORIENTED_EDGE('',*,*,#364,.F.);
#184=ORIENTED_EDGE('',*,*,#318,.T.);
#185=ORIENTED_EDGE('',*,*,#351,.T.);
#186=ORIENTED_EDGE('',*,*,#294,.F.);
#187=ORIENTED_EDGE('',*,*,#350,.F.);
#188=ORIENTED_EDGE('',*,*,#306,.F.);
#189=ORIENTED_EDGE('',*,*,#365,.T.);
#190=ORIENTED_EDGE('',*,*,#292,.T.);
#191=ORIENTED_EDGE('',*,*,#297,.T.);
#192=ORIENTED_EDGE('',*,*,#374,.F.);
#193=ORIENTED_EDGE('',*,*,#307,.T.);
#194=ORIENTED_EDGE('',*,*,#375,.T.);
#195=ORIENTED_EDGE('',*,*,#298,.T.);
#196=ORIENTED_EDGE('',*,*,#375,.F.);
#197=ORIENTED_EDGE('',*,*,#310,.T.);
#198=ORIENTED_EDGE('',*,*,#376,.T.);
#199=ORIENTED_EDGE('',*,*,#376,.F.);
#200=ORIENTED_EDGE('',*,*,#309,.F.);
#201=ORIENTED_EDGE('',*,*,#377,.T.);
#202=ORIENTED_EDGE('',*,*,#295,.F.);
#203=ORIENTED_EDGE('',*,*,#377,.F.);
#204=ORIENTED_EDGE('',*,*,#308,.F.);
#205=ORIENTED_EDGE('',*,*,#374,.T.);
#206=ORIENTED_EDGE('',*,*,#296,.F.);
#207=ORIENTED_EDGE('',*,*,#378,.F.);
#208=ORIENTED_EDGE('',*,*,#311,.F.);
#209=ORIENTED_EDGE('',*,*,#379,.T.);
#210=ORIENTED_EDGE('',*,*,#301,.F.);
#211=ORIENTED_EDGE('',*,*,#302,.T.);
#212=ORIENTED_EDGE('',*,*,#379,.F.);
#213=ORIENTED_EDGE('',*,*,#314,.T.);
#214=ORIENTED_EDGE('',*,*,#380,.T.);
#215=ORIENTED_EDGE('',*,*,#299,.T.);
#216=ORIENTED_EDGE('',*,*,#380,.F.);
#217=ORIENTED_EDGE('',*,*,#313,.T.);
#218=ORIENTED_EDGE('',*,*,#381,.T.);
#219=ORIENTED_EDGE('',*,*,#381,.F.);
#220=ORIENTED_EDGE('',*,*,#312,.F.);
#221=ORIENTED_EDGE('',*,*,#378,.T.);
#222=ORIENTED_EDGE('',*,*,#300,.F.);
#223=ORIENTED_EDGE('',*,*,#267,.T.);
#224=ORIENTED_EDGE('',*,*,#382,.F.);
#225=ORIENTED_EDGE('',*,*,#279,.T.);
#226=ORIENTED_EDGE('',*,*,#383,.T.);
#227=ORIENTED_EDGE('',*,*,#270,.T.);
#228=ORIENTED_EDGE('',*,*,#384,.F.);
#229=ORIENTED_EDGE('',*,*,#280,.T.);
#230=ORIENTED_EDGE('',*,*,#382,.T.);
#231=ORIENTED_EDGE('',*,*,#385,.F.);
#232=ORIENTED_EDGE('',*,*,#281,.F.);
#233=ORIENTED_EDGE('',*,*,#384,.T.);
#234=ORIENTED_EDGE('',*,*,#269,.F.);
#235=ORIENTED_EDGE('',*,*,#383,.F.);
#236=ORIENTED_EDGE('',*,*,#282,.F.);
#237=ORIENTED_EDGE('',*,*,#385,.T.);
#238=ORIENTED_EDGE('',*,*,#268,.F.);
#239=ORIENTED_EDGE('',*,*,#275,.T.);
#240=ORIENTED_EDGE('',*,*,#386,.F.);
#241=ORIENTED_EDGE('',*,*,#287,.T.);
#242=ORIENTED_EDGE('',*,*,#387,.T.);
#243=ORIENTED_EDGE('',*,*,#388,.F.);
#244=ORIENTED_EDGE('',*,*,#288,.F.);
#245=ORIENTED_EDGE('',*,*,#386,.T.);
#246=ORIENTED_EDGE('',*,*,#278,.F.);
#247=ORIENTED_EDGE('',*,*,#389,.F.);
#248=ORIENTED_EDGE('',*,*,#289,.F.);
#249=ORIENTED_EDGE('',*,*,#388,.T.);
#250=ORIENTED_EDGE('',*,*,#277,.F.);
#251=ORIENTED_EDGE('',*,*,#276,.T.);
#252=ORIENTED_EDGE('',*,*,#387,.F.);
#253=ORIENTED_EDGE('',*,*,#290,.T.);
#254=ORIENTED_EDGE('',*,*,#389,.T.);
#255=ORIENTED_EDGE('',*,*,#357,.F.);
#256=ORIENTED_EDGE('',*,*,#336,.F.);
#257=ORIENTED_EDGE('',*,*,#355,.F.);
#258=ORIENTED_EDGE('',*,*,#352,.F.);
#259=ORIENTED_EDGE('',*,*,#316,.F.);
#260=ORIENTED_EDGE('',*,*,#363,.F.);
#261=ORIENTED_EDGE('',*,*,#360,.F.);
#262=ORIENTED_EDGE('',*,*,#320,.F.);
#263=ORIENTED_EDGE('',*,*,#346,.F.);
#264=ORIENTED_EDGE('',*,*,#343,.F.);
#265=ORIENTED_EDGE('',*,*,#328,.F.);
#266=ORIENTED_EDGE('',*,*,#369,.F.);
#267=EDGE_CURVE('',#390,#391,#472,.T.);
#268=EDGE_CURVE('',#390,#392,#473,.T.);
#269=EDGE_CURVE('',#392,#393,#474,.T.);
#270=EDGE_CURVE('',#391,#393,#475,.T.);
#271=EDGE_CURVE('',#394,#395,#476,.T.);
#272=EDGE_CURVE('',#396,#395,#477,.T.);
#273=EDGE_CURVE('',#397,#396,#478,.T.);
#274=EDGE_CURVE('',#397,#394,#479,.T.);
#275=EDGE_CURVE('',#398,#399,#480,.T.);
#276=EDGE_CURVE('',#400,#398,#481,.T.);
#277=EDGE_CURVE('',#400,#401,#482,.T.);
#278=EDGE_CURVE('',#401,#399,#483,.T.);
#279=EDGE_CURVE('',#402,#403,#484,.T.);
#280=EDGE_CURVE('',#404,#402,#485,.T.);
#281=EDGE_CURVE('',#404,#405,#486,.T.);
#282=EDGE_CURVE('',#405,#403,#487,.T.);
#283=EDGE_CURVE('',#406,#407,#488,.T.);
#284=EDGE_CURVE('',#408,#407,#489,.T.);
#285=EDGE_CURVE('',#409,#408,#490,.T.);
#286=EDGE_CURVE('',#409,#406,#491,.T.);
#287=EDGE_CURVE('',#410,#411,#492,.T.);
#288=EDGE_CURVE('',#410,#412,#493,.T.);
#289=EDGE_CURVE('',#412,#413,#494,.T.);
#290=EDGE_CURVE('',#411,#413,#495,.T.);
#291=EDGE_CURVE('',#414,#415,#496,.T.);
#292=EDGE_CURVE('',#416,#414,#497,.T.);
#293=EDGE_CURVE('',#416,#417,#498,.T.);
#294=EDGE_CURVE('',#417,#415,#499,.T.);
#295=EDGE_CURVE('',#418,#419,#500,.T.);
#296=EDGE_CURVE('',#419,#420,#501,.T.);
#297=EDGE_CURVE('',#421,#420,#502,.T.);
#298=EDGE_CURVE('',#418,#421,#503,.T.);
#299=EDGE_CURVE('',#422,#423,#504,.T.);
#300=EDGE_CURVE('',#422,#424,#505,.T.);
#301=EDGE_CURVE('',#424,#425,#506,.T.);
#302=EDGE_CURVE('',#423,#425,#507,.T.);
#303=EDGE_CURVE('',#426,#427,#508,.T.);
#304=EDGE_CURVE('',#428,#426,#509,.T.);
#305=EDGE_CURVE('',#428,#429,#510,.T.);
#306=EDGE_CURVE('',#429,#427,#511,.T.);
#307=EDGE_CURVE('',#430,#431,#512,.T.);
#308=EDGE_CURVE('',#430,#432,#513,.T.);
#309=EDGE_CURVE('',#432,#433,#514,.T.);
#310=EDGE_CURVE('',#431,#433,#515,.T.);
#311=EDGE_CURVE('',#434,#435,#516,.T.);
#312=EDGE_CURVE('',#435,#436,#517,.T.);
#313=EDGE_CURVE('',#437,#436,#518,.T.);
#314=EDGE_CURVE('',#434,#437,#519,.T.);
#315=EDGE_CURVE('',#438,#439,#520,.T.);
#316=EDGE_CURVE('',#438,#440,#521,.T.);
#317=EDGE_CURVE('',#440,#441,#522,.T.);
#318=EDGE_CURVE('',#439,#441,#523,.T.);
#319=EDGE_CURVE('',#442,#443,#524,.T.);
#320=EDGE_CURVE('',#443,#444,#525,.T.);
#321=EDGE_CURVE('',#445,#444,#526,.T.);
#322=EDGE_CURVE('',#442,#445,#527,.F.);
#323=EDGE_CURVE('',#446,#447,#528,.T.);
#324=EDGE_CURVE('',#448,#447,#529,.T.);
#325=EDGE_CURVE('',#449,#448,#530,.T.);
#326=EDGE_CURVE('',#449,#446,#531,.T.);
#327=EDGE_CURVE('',#450,#451,#532,.T.);
#328=EDGE_CURVE('',#451,#452,#533,.T.);
#329=EDGE_CURVE('',#453,#452,#534,.T.);
#330=EDGE_CURVE('',#450,#453,#535,.T.);
#331=EDGE_CURVE('',#454,#455,#536,.T.);
#332=EDGE_CURVE('',#454,#446,#537,.T.);
#333=EDGE_CURVE('',#449,#456,#538,.T.);
#334=EDGE_CURVE('',#456,#455,#539,.T.);
#335=EDGE_CURVE('',#457,#458,#540,.T.);
#336=EDGE_CURVE('',#458,#459,#541,.T.);
#337=EDGE_CURVE('',#460,#459,#542,.T.);
#338=EDGE_CURVE('',#460,#457,#543,.T.);
#339=EDGE_CURVE('',#461,#447,#544,.T.);
#340=EDGE_CURVE('',#461,#462,#545,.T.);
#341=EDGE_CURVE('',#463,#462,#546,.T.);
#342=EDGE_CURVE('',#448,#463,#547,.T.);
#343=EDGE_CURVE('',#452,#464,#548,.F.);
#344=EDGE_CURVE('',#465,#464,#549,.T.);
#345=EDGE_CURVE('',#453,#465,#550,.T.);
#346=EDGE_CURVE('',#464,#443,#551,.F.);
#347=EDGE_CURVE('',#407,#442,#15,.T.);
#348=EDGE_CURVE('',#395,#406,#552,.T.);
#349=EDGE_CURVE('',#426,#394,#16,.T.);
#350=EDGE_CURVE('',#427,#414,#553,.T.);
#351=EDGE_CURVE('',#441,#415,#17,.T.);
#352=EDGE_CURVE('',#440,#466,#554,.T.);
#353=EDGE_CURVE('',#467,#466,#555,.T.);
#354=EDGE_CURVE('',#467,#465,#556,.T.);
#355=EDGE_CURVE('',#466,#458,#557,.T.);
#356=EDGE_CURVE('',#457,#467,#558,.T.);
#357=EDGE_CURVE('',#459,#468,#559,.T.);
#358=EDGE_CURVE('',#469,#468,#560,.T.);
#359=EDGE_CURVE('',#460,#469,#561,.T.);
#360=EDGE_CURVE('',#444,#470,#562,.F.);
#361=EDGE_CURVE('',#471,#470,#563,.T.);
#362=EDGE_CURVE('',#469,#471,#564,.T.);
#363=EDGE_CURVE('',#468,#438,#565,.T.);
#364=EDGE_CURVE('',#439,#417,#18,.T.);
#365=EDGE_CURVE('',#429,#416,#566,.T.);
#366=EDGE_CURVE('',#428,#397,#19,.T.);
#367=EDGE_CURVE('',#396,#409,#567,.T.);
#368=EDGE_CURVE('',#408,#445,#20,.T.);
#369=EDGE_CURVE('',#470,#451,#568,.F.);
#370=EDGE_CURVE('',#450,#471,#569,.T.);
#371=EDGE_CURVE('',#455,#462,#570,.T.);
#372=EDGE_CURVE('',#454,#461,#571,.T.);
#373=EDGE_CURVE('',#456,#463,#572,.T.);
#374=EDGE_CURVE('',#430,#420,#573,.T.);
#375=EDGE_CURVE('',#431,#421,#574,.T.);
#376=EDGE_CURVE('',#433,#418,#575,.T.);
#377=EDGE_CURVE('',#432,#419,#576,.T.);
#378=EDGE_CURVE('',#435,#424,#577,.T.);
#379=EDGE_CURVE('',#434,#425,#578,.T.);
#380=EDGE_CURVE('',#437,#423,#579,.T.);
#381=EDGE_CURVE('',#436,#422,#580,.T.);
#382=EDGE_CURVE('',#402,#391,#581,.T.);
#383=EDGE_CURVE('',#403,#390,#582,.T.);
#384=EDGE_CURVE('',#404,#393,#583,.T.);
#385=EDGE_CURVE('',#405,#392,#584,.T.);
#386=EDGE_CURVE('',#410,#399,#585,.T.);
#387=EDGE_CURVE('',#411,#398,#586,.T.);
#388=EDGE_CURVE('',#412,#401,#587,.T.);
#389=EDGE_CURVE('',#413,#400,#588,.T.);
#390=VERTEX_POINT('',#1177);
#391=VERTEX_POINT('',#1178);
#392=VERTEX_POINT('',#1180);
#393=VERTEX_POINT('',#1182);
#394=VERTEX_POINT('',#1185);
#395=VERTEX_POINT('',#1186);
#396=VERTEX_POINT('',#1188);
#397=VERTEX_POINT('',#1190);
#398=VERTEX_POINT('',#1193);
#399=VERTEX_POINT('',#1194);
#400=VERTEX_POINT('',#1196);
#401=VERTEX_POINT('',#1198);
#402=VERTEX_POINT('',#1202);
#403=VERTEX_POINT('',#1203);
#404=VERTEX_POINT('',#1205);
#405=VERTEX_POINT('',#1207);
#406=VERTEX_POINT('',#1210);
#407=VERTEX_POINT('',#1211);
#408=VERTEX_POINT('',#1213);
#409=VERTEX_POINT('',#1215);
#410=VERTEX_POINT('',#1218);
#411=VERTEX_POINT('',#1219);
#412=VERTEX_POINT('',#1221);
#413=VERTEX_POINT('',#1223);
#414=VERTEX_POINT('',#1227);
#415=VERTEX_POINT('',#1228);
#416=VERTEX_POINT('',#1230);
#417=VERTEX_POINT('',#1232);
#418=VERTEX_POINT('',#1235);
#419=VERTEX_POINT('',#1236);
#420=VERTEX_POINT('',#1238);
#421=VERTEX_POINT('',#1240);
#422=VERTEX_POINT('',#1243);
#423=VERTEX_POINT('',#1244);
#424=VERTEX_POINT('',#1246);
#425=VERTEX_POINT('',#1248);
#426=VERTEX_POINT('',#1252);
#427=VERTEX_POINT('',#1253);
#428=VERTEX_POINT('',#1255);
#429=VERTEX_POINT('',#1257);
#430=VERTEX_POINT('',#1260);
#431=VERTEX_POINT('',#1261);
#432=VERTEX_POINT('',#1263);
#433=VERTEX_POINT('',#1265);
#434=VERTEX_POINT('',#1268);
#435=VERTEX_POINT('',#1269);
#436=VERTEX_POINT('',#1271);
#437=VERTEX_POINT('',#1273);
#438=VERTEX_POINT('',#1277);
#439=VERTEX_POINT('',#1278);
#440=VERTEX_POINT('',#1280);
#441=VERTEX_POINT('',#1282);
#442=VERTEX_POINT('',#1286);
#443=VERTEX_POINT('',#1287);
#444=VERTEX_POINT('',#1289);
#445=VERTEX_POINT('',#1291);
#446=VERTEX_POINT('',#1295);
#447=VERTEX_POINT('',#1296);
#448=VERTEX_POINT('',#1298);
#449=VERTEX_POINT('',#1300);
#450=VERTEX_POINT('',#1304);
#451=VERTEX_POINT('',#1305);
#452=VERTEX_POINT('',#1307);
#453=VERTEX_POINT('',#1309);
#454=VERTEX_POINT('',#1312);
#455=VERTEX_POINT('',#1313);
#456=VERTEX_POINT('',#1316);
#457=VERTEX_POINT('',#1320);
#458=VERTEX_POINT('',#1321);
#459=VERTEX_POINT('',#1323);
#460=VERTEX_POINT('',#1325);
#461=VERTEX_POINT('',#1328);
#462=VERTEX_POINT('',#1330);
#463=VERTEX_POINT('',#1332);
#464=VERTEX_POINT('',#1336);
#465=VERTEX_POINT('',#1338);
#466=VERTEX_POINT('',#1348);
#467=VERTEX_POINT('',#1350);
#468=VERTEX_POINT('',#1357);
#469=VERTEX_POINT('',#1359);
#470=VERTEX_POINT('',#1363);
#471=VERTEX_POINT('',#1365);
#472=LINE('',#1176,#589);
#473=LINE('',#1179,#590);
#474=LINE('',#1181,#591);
#475=LINE('',#1183,#592);
#476=LINE('',#1184,#593);
#477=LINE('',#1187,#594);
#478=LINE('',#1189,#595);
#479=LINE('',#1191,#596);
#480=LINE('',#1192,#597);
#481=LINE('',#1195,#598);
#482=LINE('',#1197,#599);
#483=LINE('',#1199,#600);
#484=LINE('',#1201,#601);
#485=LINE('',#1204,#602);
#486=LINE('',#1206,#603);
#487=LINE('',#1208,#604);
#488=LINE('',#1209,#605);
#489=LINE('',#1212,#606);
#490=LINE('',#1214,#607);
#491=LINE('',#1216,#608);
#492=LINE('',#1217,#609);
#493=LINE('',#1220,#610);
#494=LINE('',#1222,#611);
#495=LINE('',#1224,#612);
#496=LINE('',#1226,#613);
#497=LINE('',#1229,#614);
#498=LINE('',#1231,#615);
#499=LINE('',#1233,#616);
#500=LINE('',#1234,#617);
#501=LINE('',#1237,#618);
#502=LINE('',#1239,#619);
#503=LINE('',#1241,#620);
#504=LINE('',#1242,#621);
#505=LINE('',#1245,#622);
#506=LINE('',#1247,#623);
#507=LINE('',#1249,#624);
#508=LINE('',#1251,#625);
#509=LINE('',#1254,#626);
#510=LINE('',#1256,#627);
#511=LINE('',#1258,#628);
#512=LINE('',#1259,#629);
#513=LINE('',#1262,#630);
#514=LINE('',#1264,#631);
#515=LINE('',#1266,#632);
#516=LINE('',#1267,#633);
#517=LINE('',#1270,#634);
#518=LINE('',#1272,#635);
#519=LINE('',#1274,#636);
#520=LINE('',#1276,#637);
#521=LINE('',#1279,#638);
#522=LINE('',#1281,#639);
#523=LINE('',#1283,#640);
#524=LINE('',#1285,#641);
#525=LINE('',#1288,#642);
#526=LINE('',#1290,#643);
#527=LINE('',#1292,#644);
#528=LINE('',#1294,#645);
#529=LINE('',#1297,#646);
#530=LINE('',#1299,#647);
#531=LINE('',#1301,#648);
#532=LINE('',#1303,#649);
#533=LINE('',#1306,#650);
#534=LINE('',#1308,#651);
#535=LINE('',#1310,#652);
#536=LINE('',#1311,#653);
#537=LINE('',#1314,#654);
#538=LINE('',#1315,#655);
#539=LINE('',#1317,#656);
#540=LINE('',#1319,#657);
#541=LINE('',#1322,#658);
#542=LINE('',#1324,#659);
#543=LINE('',#1326,#660);
#544=LINE('',#1327,#661);
#545=LINE('',#1329,#662);
#546=LINE('',#1331,#663);
#547=LINE('',#1333,#664);
#548=LINE('',#1335,#665);
#549=LINE('',#1337,#666);
#550=LINE('',#1339,#667);
#551=LINE('',#1341,#668);
#552=LINE('',#1343,#669);
#553=LINE('',#1345,#670);
#554=LINE('',#1347,#671);
#555=LINE('',#1349,#672);
#556=LINE('',#1351,#673);
#557=LINE('',#1353,#674);
#558=LINE('',#1354,#675);
#559=LINE('',#1356,#676);
#560=LINE('',#1358,#677);
#561=LINE('',#1360,#678);
#562=LINE('',#1362,#679);
#563=LINE('',#1364,#680);
#564=LINE('',#1366,#681);
#565=LINE('',#1367,#682);
#566=LINE('',#1369,#683);
#567=LINE('',#1371,#684);
#568=LINE('',#1374,#685);
#569=LINE('',#1375,#686);
#570=LINE('',#1378,#687);
#571=LINE('',#1379,#688);
#572=LINE('',#1382,#689);
#573=LINE('',#1390,#690);
#574=LINE('',#1391,#691);
#575=LINE('',#1393,#692);
#576=LINE('',#1395,#693);
#577=LINE('',#1398,#694);
#578=LINE('',#1399,#695);
#579=LINE('',#1401,#696);
#580=LINE('',#1403,#697);
#581=LINE('',#1406,#698);
#582=LINE('',#1407,#699);
#583=LINE('',#1409,#700);
#584=LINE('',#1411,#701);
#585=LINE('',#1414,#702);
#586=LINE('',#1415,#703);
#587=LINE('',#1417,#704);
#588=LINE('',#1419,#705);
#589=VECTOR('',#961,1.);
#590=VECTOR('',#962,1.);
#591=VECTOR('',#963,1.);
#592=VECTOR('',#964,1.);
#593=VECTOR('',#965,1.);
#594=VECTOR('',#966,1.);
#595=VECTOR('',#967,1.);
#596=VECTOR('',#968,1.);
#597=VECTOR('',#969,1.);
#598=VECTOR('',#970,1.);
#599=VECTOR('',#971,1.);
#600=VECTOR('',#972,1.);
#601=VECTOR('',#975,1.);
#602=VECTOR('',#976,1.);
#603=VECTOR('',#977,1.);
#604=VECTOR('',#978,1.);
#605=VECTOR('',#979,1.);
#606=VECTOR('',#980,1.);
#607=VECTOR('',#981,1.);
#608=VECTOR('',#982,1.);
#609=VECTOR('',#983,1.);
#610=VECTOR('',#984,1.);
#611=VECTOR('',#985,1.);
#612=VECTOR('',#986,1.);
#613=VECTOR('',#989,1.);
#614=VECTOR('',#990,1.);
#615=VECTOR('',#991,1.);
#616=VECTOR('',#992,1.);
#617=VECTOR('',#993,1.);
#618=VECTOR('',#994,1.);
#619=VECTOR('',#995,1.);
#620=VECTOR('',#996,1.);
#621=VECTOR('',#997,1.);
#622=VECTOR('',#998,1.);
#623=VECTOR('',#999,1.);
#624=VECTOR('',#1000,1.);
#625=VECTOR('',#1003,1.);
#626=VECTOR('',#1004,1.);
#627=VECTOR('',#1005,1.);
#628=VECTOR('',#1006,1.);
#629=VECTOR('',#1007,1.);
#630=VECTOR('',#1008,1.);
#631=VECTOR('',#1009,1.);
#632=VECTOR('',#1010,1.);
#633=VECTOR('',#1011,1.);
#634=VECTOR('',#1012,1.);
#635=VECTOR('',#1013,1.);
#636=VECTOR('',#1014,1.);
#637=VECTOR('',#1017,1.);
#638=VECTOR('',#1018,1.);
#639=VECTOR('',#1019,1.);
#640=VECTOR('',#1020,1.);
#641=VECTOR('',#1023,1.);
#642=VECTOR('',#1024,1.);
#643=VECTOR('',#1025,1.);
#644=VECTOR('',#1026,1.);
#645=VECTOR('',#1029,1.);
#646=VECTOR('',#1030,1.);
#647=VECTOR('',#1031,1.);
#648=VECTOR('',#1032,1.);
#649=VECTOR('',#1035,1.);
#650=VECTOR('',#1036,1.);
#651=VECTOR('',#1037,1.);
#652=VECTOR('',#1038,1.);
#653=VECTOR('',#1039,1.);
#654=VECTOR('',#1040,1.);
#655=VECTOR('',#1041,1.);
#656=VECTOR('',#1042,1.);
#657=VECTOR('',#1045,1.);
#658=VECTOR('',#1046,1.);
#659=VECTOR('',#1047,1.);
#660=VECTOR('',#1048,1.);
#661=VECTOR('',#1049,1.);
#662=VECTOR('',#1050,1.);
#663=VECTOR('',#1051,1.);
#664=VECTOR('',#1052,1.);
#665=VECTOR('',#1055,1.);
#666=VECTOR('',#1056,1.);
#667=VECTOR('',#1057,1.);
#668=VECTOR('',#1060,1.);
#669=VECTOR('',#1063,1.);
#670=VECTOR('',#1066,1.);
#671=VECTOR('',#1069,1.);
#672=VECTOR('',#1070,1.);
#673=VECTOR('',#1071,1.);
#674=VECTOR('',#1074,1.);
#675=VECTOR('',#1075,1.);
#676=VECTOR('',#1078,1.);
#677=VECTOR('',#1079,1.);
#678=VECTOR('',#1080,1.);
#679=VECTOR('',#1083,1.);
#680=VECTOR('',#1084,1.);
#681=VECTOR('',#1085,1.);
#682=VECTOR('',#1086,1.);
#683=VECTOR('',#1089,1.);
#684=VECTOR('',#1092,1.);
#685=VECTOR('',#1097,1.);
#686=VECTOR('',#1098,1.);
#687=VECTOR('',#1103,1.);
#688=VECTOR('',#1104,1.);
#689=VECTOR('',#1109,1.);
#690=VECTOR('',#1124,1.);
#691=VECTOR('',#1125,1.);
#692=VECTOR('',#1128,1.);
#693=VECTOR('',#1131,1.);
#694=VECTOR('',#1136,1.);
#695=VECTOR('',#1137,1.);
#696=VECTOR('',#1140,1.);
#697=VECTOR('',#1143,1.);
#698=VECTOR('',#1148,1.);
#699=VECTOR('',#1149,1.);
#700=VECTOR('',#1152,1.);
#701=VECTOR('',#1155,1.);
#702=VECTOR('',#1160,1.);
#703=VECTOR('',#1161,1.);
#704=VECTOR('',#1164,1.);
#705=VECTOR('',#1167,1.);
#706=EDGE_LOOP('',(#21,#22,#23,#24));
#707=EDGE_LOOP('',(#25,#26,#27,#28));
#708=EDGE_LOOP('',(#29,#30,#31,#32));
#709=EDGE_LOOP('',(#33,#34,#35,#36));
#710=EDGE_LOOP('',(#37,#38,#39,#40));
#711=EDGE_LOOP('',(#41,#42,#43,#44));
#712=EDGE_LOOP('',(#45,#46,#47,#48));
#713=EDGE_LOOP('',(#49,#50,#51,#52));
#714=EDGE_LOOP('',(#53,#54,#55,#56));
#715=EDGE_LOOP('',(#57,#58,#59,#60));
#716=EDGE_LOOP('',(#61,#62,#63,#64));
#717=EDGE_LOOP('',(#65,#66,#67,#68));
#718=EDGE_LOOP('',(#69,#70,#71,#72));
#719=EDGE_LOOP('',(#73,#74,#75,#76));
#720=EDGE_LOOP('',(#77,#78,#79,#80));
#721=EDGE_LOOP('',(#81,#82,#83,#84));
#722=EDGE_LOOP('',(#85,#86,#87,#88,#89));
#723=EDGE_LOOP('',(#90,#91,#92,#93));
#724=EDGE_LOOP('',(#94,#95,#96,#97,#98));
#725=EDGE_LOOP('',(#99,#100,#101,#102));
#726=EDGE_LOOP('',(#103,#104,#105,#106,#107,#108,#109,#110,#111,#112,#113,
#114,#115,#116,#117,#118));
#727=EDGE_LOOP('',(#119,#120,#121,#122));
#728=EDGE_LOOP('',(#123,#124,#125,#126));
#729=EDGE_LOOP('',(#127,#128,#129,#130,#131,#132,#133,#134,#135,#136,#137,
#138,#139,#140,#141,#142));
#730=EDGE_LOOP('',(#143,#144,#145,#146));
#731=EDGE_LOOP('',(#147,#148,#149,#150,#151,#152,#153,#154));
#732=EDGE_LOOP('',(#155,#156,#157,#158));
#733=EDGE_LOOP('',(#159,#160,#161,#162));
#734=EDGE_LOOP('',(#163,#164,#165,#166));
#735=EDGE_LOOP('',(#167,#168,#169,#170));
#736=EDGE_LOOP('',(#171,#172,#173,#174));
#737=EDGE_LOOP('',(#175,#176,#177,#178));
#738=EDGE_LOOP('',(#179,#180,#181,#182));
#739=EDGE_LOOP('',(#183,#184,#185,#186));
#740=EDGE_LOOP('',(#187,#188,#189,#190));
#741=EDGE_LOOP('',(#191,#192,#193,#194));
#742=EDGE_LOOP('',(#195,#196,#197,#198));
#743=EDGE_LOOP('',(#199,#200,#201,#202));
#744=EDGE_LOOP('',(#203,#204,#205,#206));
#745=EDGE_LOOP('',(#207,#208,#209,#210));
#746=EDGE_LOOP('',(#211,#212,#213,#214));
#747=EDGE_LOOP('',(#215,#216,#217,#218));
#748=EDGE_LOOP('',(#219,#220,#221,#222));
#749=EDGE_LOOP('',(#223,#224,#225,#226));
#750=EDGE_LOOP('',(#227,#228,#229,#230));
#751=EDGE_LOOP('',(#231,#232,#233,#234));
#752=EDGE_LOOP('',(#235,#236,#237,#238));
#753=EDGE_LOOP('',(#239,#240,#241,#242));
#754=EDGE_LOOP('',(#243,#244,#245,#246));
#755=EDGE_LOOP('',(#247,#248,#249,#250));
#756=EDGE_LOOP('',(#251,#252,#253,#254));
#757=EDGE_LOOP('',(#255,#256,#257,#258,#259,#260));
#758=EDGE_LOOP('',(#261,#262,#263,#264,#265,#266));
#759=FACE_BOUND('',#706,.T.);
#760=FACE_BOUND('',#707,.T.);
#761=FACE_BOUND('',#708,.T.);
#762=FACE_BOUND('',#709,.T.);
#763=FACE_BOUND('',#710,.T.);
#764=FACE_BOUND('',#711,.T.);
#765=FACE_BOUND('',#712,.T.);
#766=FACE_BOUND('',#713,.T.);
#767=FACE_BOUND('',#714,.T.);
#768=FACE_BOUND('',#715,.T.);
#769=FACE_BOUND('',#716,.T.);
#770=FACE_BOUND('',#717,.T.);
#771=FACE_BOUND('',#718,.T.);
#772=FACE_BOUND('',#719,.T.);
#773=FACE_BOUND('',#720,.T.);
#774=FACE_BOUND('',#721,.T.);
#775=FACE_BOUND('',#722,.T.);
#776=FACE_BOUND('',#723,.T.);
#777=FACE_BOUND('',#724,.T.);
#778=FACE_BOUND('',#725,.T.);
#779=FACE_BOUND('',#726,.T.);
#780=FACE_BOUND('',#727,.T.);
#781=FACE_BOUND('',#728,.T.);
#782=FACE_BOUND('',#729,.T.);
#783=FACE_BOUND('',#730,.T.);
#784=FACE_BOUND('',#731,.T.);
#785=FACE_BOUND('',#732,.T.);
#786=FACE_BOUND('',#733,.T.);
#787=FACE_BOUND('',#734,.T.);
#788=FACE_BOUND('',#735,.T.);
#789=FACE_BOUND('',#736,.T.);
#790=FACE_BOUND('',#737,.T.);
#791=FACE_BOUND('',#738,.T.);
#792=FACE_BOUND('',#739,.T.);
#793=FACE_BOUND('',#740,.T.);
#794=FACE_BOUND('',#741,.T.);
#795=FACE_BOUND('',#742,.T.);
#796=FACE_BOUND('',#743,.T.);
#797=FACE_BOUND('',#744,.T.);
#798=FACE_BOUND('',#745,.T.);
#799=FACE_BOUND('',#746,.T.);
#800=FACE_BOUND('',#747,.T.);
#801=FACE_BOUND('',#748,.T.);
#802=FACE_BOUND('',#749,.T.);
#803=FACE_BOUND('',#750,.T.);
#804=FACE_BOUND('',#751,.T.);
#805=FACE_BOUND('',#752,.T.);
#806=FACE_BOUND('',#753,.T.);
#807=FACE_BOUND('',#754,.T.);
#808=FACE_BOUND('',#755,.T.);
#809=FACE_BOUND('',#756,.T.);
#810=FACE_BOUND('',#757,.T.);
#811=FACE_BOUND('',#758,.T.);
#812=PLANE('',#908);
#813=PLANE('',#909);
#814=PLANE('',#910);
#815=PLANE('',#911);
#816=PLANE('',#912);
#817=PLANE('',#913);
#818=PLANE('',#914);
#819=PLANE('',#915);
#820=PLANE('',#916);
#821=PLANE('',#917);
#822=PLANE('',#918);
#823=PLANE('',#922);
#824=PLANE('',#923);
#825=PLANE('',#924);
#826=PLANE('',#928);
#827=PLANE('',#929);
#828=PLANE('',#930);
#829=PLANE('',#931);
#830=PLANE('',#932);
#831=PLANE('',#933);
#832=PLANE('',#935);
#833=PLANE('',#938);
#834=PLANE('',#939);
#835=PLANE('',#940);
#836=PLANE('',#941);
#837=PLANE('',#942);
#838=PLANE('',#943);
#839=PLANE('',#944);
#840=PLANE('',#945);
#841=PLANE('',#946);
#842=PLANE('',#947);
#843=PLANE('',#948);
#844=PLANE('',#949);
#845=PLANE('',#950);
#846=PLANE('',#951);
#847=PLANE('',#952);
#848=PLANE('',#953);
#849=PLANE('',#954);
#850=PLANE('',#955);
#851=PLANE('',#956);
#852=ADVANCED_FACE('',(#759,#760,#761),#812,.F.);
#853=ADVANCED_FACE('',(#762,#763,#764),#813,.F.);
#854=ADVANCED_FACE('',(#765,#766,#767),#814,.T.);
#855=ADVANCED_FACE('',(#768,#769,#770),#815,.T.);
#856=ADVANCED_FACE('',(#771),#816,.F.);
#857=ADVANCED_FACE('',(#772),#817,.F.);
#858=ADVANCED_FACE('',(#773),#818,.T.);
#859=ADVANCED_FACE('',(#774,#775),#819,.F.);
#860=ADVANCED_FACE('',(#776,#777),#820,.T.);
#861=ADVANCED_FACE('',(#778),#821,.F.);
#862=ADVANCED_FACE('',(#779),#822,.T.);
#863=ADVANCED_FACE('',(#780),#823,.T.);
#864=ADVANCED_FACE('',(#781),#824,.F.);
#865=ADVANCED_FACE('',(#782),#825,.F.);
#866=ADVANCED_FACE('',(#783),#826,.T.);
#867=ADVANCED_FACE('',(#784),#827,.T.);
#868=ADVANCED_FACE('',(#785),#828,.T.);
#869=ADVANCED_FACE('',(#786),#829,.F.);
#870=ADVANCED_FACE('',(#787),#830,.F.);
#871=ADVANCED_FACE('',(#788),#831,.F.);
#872=ADVANCED_FACE('',(#789),#12,.F.);
#873=ADVANCED_FACE('',(#790),#832,.F.);
#874=ADVANCED_FACE('',(#791),#13,.T.);
#875=ADVANCED_FACE('',(#792),#14,.T.);
#876=ADVANCED_FACE('',(#793),#833,.T.);
#877=ADVANCED_FACE('',(#794),#834,.F.);
#878=ADVANCED_FACE('',(#795),#835,.F.);
#879=ADVANCED_FACE('',(#796),#836,.T.);
#880=ADVANCED_FACE('',(#797),#837,.T.);
#881=ADVANCED_FACE('',(#798),#838,.T.);
#882=ADVANCED_FACE('',(#799),#839,.F.);
#883=ADVANCED_FACE('',(#800),#840,.F.);
#884=ADVANCED_FACE('',(#801),#841,.T.);
#885=ADVANCED_FACE('',(#802),#842,.T.);
#886=ADVANCED_FACE('',(#803),#843,.T.);
#887=ADVANCED_FACE('',(#804),#844,.F.);
#888=ADVANCED_FACE('',(#805),#845,.F.);
#889=ADVANCED_FACE('',(#806),#846,.T.);
#890=ADVANCED_FACE('',(#807),#847,.F.);
#891=ADVANCED_FACE('',(#808),#848,.F.);
#892=ADVANCED_FACE('',(#809),#849,.T.);
#893=ADVANCED_FACE('',(#810),#850,.T.);
#894=ADVANCED_FACE('',(#811),#851,.F.);
#895=CLOSED_SHELL('',(#852,#853,#854,#855,#856,#857,#858,#859,#860,#861,
#862,#863,#864,#865,#866,#867,#868,#869,#870,#871,#872,#873,#874,#875,#876,
#877,#878,#879,#880,#881,#882,#883,#884,#885,#886,#887,#888,#889,#890,#891,
#892,#893,#894));
#896=STYLED_ITEM('',(#897),#904);
#897=PRESENTATION_STYLE_ASSIGNMENT((#898));
#898=SURFACE_STYLE_USAGE(.BOTH.,#899);
#899=SURFACE_SIDE_STYLE('',(#900));
#900=SURFACE_STYLE_FILL_AREA(#901);
#901=FILL_AREA_STYLE('',(#902));
#902=FILL_AREA_STYLE_COLOUR('',#903);
#903=COLOUR_RGB('',0.615686274509804,0.811764705882353,0.929411764705882);
#904=MANIFOLD_SOLID_BREP('Part 1',#895);
#905=SHAPE_DEFINITION_REPRESENTATION(#1429,#906);
#906=SHAPE_REPRESENTATION('Part 1',(#907),#1424);
#907=AXIS2_PLACEMENT_3D('',#1174,#957,#958);
#908=AXIS2_PLACEMENT_3D('',#1175,#959,#960);
#909=AXIS2_PLACEMENT_3D('',#1200,#973,#974);
#910=AXIS2_PLACEMENT_3D('',#1225,#987,#988);
#911=AXIS2_PLACEMENT_3D('',#1250,#1001,#1002);
#912=AXIS2_PLACEMENT_3D('',#1275,#1015,#1016);
#913=AXIS2_PLACEMENT_3D('',#1284,#1021,#1022);
#914=AXIS2_PLACEMENT_3D('',#1293,#1027,#1028);
#915=AXIS2_PLACEMENT_3D('',#1302,#1033,#1034);
#916=AXIS2_PLACEMENT_3D('',#1318,#1043,#1044);
#917=AXIS2_PLACEMENT_3D('',#1334,#1053,#1054);
#918=AXIS2_PLACEMENT_3D('',#1340,#1058,#1059);
#919=AXIS2_PLACEMENT_3D('',#1342,#1061,#1062);
#920=AXIS2_PLACEMENT_3D('',#1344,#1064,#1065);
#921=AXIS2_PLACEMENT_3D('',#1346,#1067,#1068);
#922=AXIS2_PLACEMENT_3D('',#1352,#1072,#1073);
#923=AXIS2_PLACEMENT_3D('',#1355,#1076,#1077);
#924=AXIS2_PLACEMENT_3D('',#1361,#1081,#1082);
#925=AXIS2_PLACEMENT_3D('',#1368,#1087,#1088);
#926=AXIS2_PLACEMENT_3D('',#1370,#1090,#1091);
#927=AXIS2_PLACEMENT_3D('',#1372,#1093,#1094);
#928=AXIS2_PLACEMENT_3D('',#1373,#1095,#1096);
#929=AXIS2_PLACEMENT_3D('',#1376,#1099,#1100);
#930=AXIS2_PLACEMENT_3D('',#1377,#1101,#1102);
#931=AXIS2_PLACEMENT_3D('',#1380,#1105,#1106);
#932=AXIS2_PLACEMENT_3D('',#1381,#1107,#1108);
#933=AXIS2_PLACEMENT_3D('',#1383,#1110,#1111);
#934=AXIS2_PLACEMENT_3D('',#1384,#1112,#1113);
#935=AXIS2_PLACEMENT_3D('',#1385,#1114,#1115);
#936=AXIS2_PLACEMENT_3D('',#1386,#1116,#1117);
#937=AXIS2_PLACEMENT_3D('',#1387,#1118,#1119);
#938=AXIS2_PLACEMENT_3D('',#1388,#1120,#1121);
#939=AXIS2_PLACEMENT_3D('',#1389,#1122,#1123);
#940=AXIS2_PLACEMENT_3D('',#1392,#1126,#1127);
#941=AXIS2_PLACEMENT_3D('',#1394,#1129,#1130);
#942=AXIS2_PLACEMENT_3D('',#1396,#1132,#1133);
#943=AXIS2_PLACEMENT_3D('',#1397,#1134,#1135);
#944=AXIS2_PLACEMENT_3D('',#1400,#1138,#1139);
#945=AXIS2_PLACEMENT_3D('',#1402,#1141,#1142);
#946=AXIS2_PLACEMENT_3D('',#1404,#1144,#1145);
#947=AXIS2_PLACEMENT_3D('',#1405,#1146,#1147);
#948=AXIS2_PLACEMENT_3D('',#1408,#1150,#1151);
#949=AXIS2_PLACEMENT_3D('',#1410,#1153,#1154);
#950=AXIS2_PLACEMENT_3D('',#1412,#1156,#1157);
#951=AXIS2_PLACEMENT_3D('',#1413,#1158,#1159);
#952=AXIS2_PLACEMENT_3D('',#1416,#1162,#1163);
#953=AXIS2_PLACEMENT_3D('',#1418,#1165,#1166);
#954=AXIS2_PLACEMENT_3D('',#1420,#1168,#1169);
#955=AXIS2_PLACEMENT_3D('',#1421,#1170,#1171);
#956=AXIS2_PLACEMENT_3D('',#1422,#1172,#1173);
#957=DIRECTION('',(0.,0.,1.));
#958=DIRECTION('',(1.,0.,0.));
#959=DIRECTION('',(0.,1.,1.06912466225308E-16));
#960=DIRECTION('',(0.,-1.06912466225308E-16,1.));
#961=DIRECTION('',(-1.,0.,0.));
#962=DIRECTION('',(0.,1.06912466225308E-16,-1.));
#963=DIRECTION('',(-1.,0.,0.));
#964=DIRECTION('',(0.,1.06912466225308E-16,-1.));
#965=DIRECTION('',(0.,1.06912466225308E-16,-1.));
#966=DIRECTION('',(-1.,0.,0.));
#967=DIRECTION('',(0.,1.06912466225308E-16,-1.));
#968=DIRECTION('',(-1.,0.,0.));
#969=DIRECTION('',(1.,0.,0.));
#970=DIRECTION('',(0.,1.06912466225308E-16,-1.));
#971=DIRECTION('',(1.,0.,0.));
#972=DIRECTION('',(0.,1.06912466225308E-16,-1.));
#973=DIRECTION('',(0.,-1.,0.));
#974=DIRECTION('',(0.,0.,-1.));
#975=DIRECTION('',(1.,0.,0.));
#976=DIRECTION('',(0.,0.,1.));
#977=DIRECTION('',(1.,0.,0.));
#978=DIRECTION('',(0.,0.,1.));
#979=DIRECTION('',(0.,0.,1.));
#980=DIRECTION('',(-1.,0.,0.));
#981=DIRECTION('',(0.,0.,1.));
#982=DIRECTION('',(-1.,0.,0.));
#983=DIRECTION('',(-1.,0.,0.));
#984=DIRECTION('',(0.,0.,1.));
#985=DIRECTION('',(-1.,0.,0.));
#986=DIRECTION('',(0.,0.,1.));
#987=DIRECTION('',(0.,-1.,0.));
#988=DIRECTION('',(0.,0.,-1.));
#989=DIRECTION('',(0.,0.,1.));
#990=DIRECTION('',(-1.,0.,0.));
#991=DIRECTION('',(0.,0.,1.));
#992=DIRECTION('',(-1.,0.,0.));
#993=DIRECTION('',(0.,0.,1.));
#994=DIRECTION('',(1.,0.,0.));
#995=DIRECTION('',(0.,0.,1.));
#996=DIRECTION('',(1.,0.,0.));
#997=DIRECTION('',(0.,0.,1.));
#998=DIRECTION('',(-1.,0.,0.));
#999=DIRECTION('',(0.,0.,1.));
#1000=DIRECTION('',(-1.,0.,0.));
#1001=DIRECTION('',(0.,1.,-1.06912466225308E-16));
#1002=DIRECTION('',(0.,1.06912466225308E-16,1.));
#1003=DIRECTION('',(0.,-1.06912466225308E-16,-1.));
#1004=DIRECTION('',(-1.,0.,0.));
#1005=DIRECTION('',(0.,-1.06912466225308E-16,-1.));
#1006=DIRECTION('',(-1.,0.,0.));
#1007=DIRECTION('',(0.,-1.06912466225308E-16,-1.));
#1008=DIRECTION('',(-1.,0.,0.));
#1009=DIRECTION('',(0.,-1.06912466225308E-16,-1.));
#1010=DIRECTION('',(-1.,0.,0.));
#1011=DIRECTION('',(0.,-1.06912466225308E-16,-1.));
#1012=DIRECTION('',(1.,0.,0.));
#1013=DIRECTION('',(0.,-1.06912466225308E-16,-1.));
#1014=DIRECTION('',(1.,0.,0.));
#1015=DIRECTION('',(0.,0.,1.));
#1016=DIRECTION('',(1.,0.,0.));
#1017=DIRECTION('',(0.,1.,0.));
#1018=DIRECTION('',(-1.,-1.8454505063583E-16,0.));
#1019=DIRECTION('',(0.,1.,0.));
#1020=DIRECTION('',(-1.,0.,0.));
#1021=DIRECTION('',(0.,0.,1.));
#1022=DIRECTION('',(1.,0.,0.));
#1023=DIRECTION('',(0.,1.,0.));
#1024=DIRECTION('',(1.,1.8454505063583E-16,0.));
#1025=DIRECTION('',(0.,1.,0.));
#1026=DIRECTION('',(-1.,0.,0.));
#1027=DIRECTION('',(0.,0.,1.));
#1028=DIRECTION('',(1.,0.,0.));
#1029=DIRECTION('',(0.,-1.,0.));
#1030=DIRECTION('',(-1.,-1.8454505063583E-16,0.));
#1031=DIRECTION('',(0.,-1.,0.));
#1032=DIRECTION('',(-1.,-1.8454505063583E-16,0.));
#1033=DIRECTION('',(1.8454505063583E-16,-1.,0.));
#1034=DIRECTION('',(1.,1.8454505063583E-16,0.));
#1035=DIRECTION('',(0.,0.,-1.));
#1036=DIRECTION('',(-1.,-1.8454505063583E-16,0.));
#1037=DIRECTION('',(0.,0.,-1.));
#1038=DIRECTION('',(-1.,-1.8454505063583E-16,0.));
#1039=DIRECTION('',(1.,1.8454505063583E-16,0.));
#1040=DIRECTION('',(1.66800334228539E-16,3.07821761262792E-32,-1.));
#1041=DIRECTION('',(0.948683298050514,1.75074807276099E-16,0.316227766016838));
#1042=DIRECTION('',(-5.59179525102564E-16,-1.03193813774572E-31,1.));
#1043=DIRECTION('',(1.8454505063583E-16,-1.,0.));
#1044=DIRECTION('',(1.,1.8454505063583E-16,0.));
#1045=DIRECTION('',(0.,0.,-1.));
#1046=DIRECTION('',(1.,1.8454505063583E-16,0.));
#1047=DIRECTION('',(0.,0.,-1.));
#1048=DIRECTION('',(-1.,-1.8454505063583E-16,0.));
#1049=DIRECTION('',(1.66800334228539E-16,3.07821761262792E-32,-1.));
#1050=DIRECTION('',(1.,1.8454505063583E-16,0.));
#1051=DIRECTION('',(-5.59179525102564E-16,-1.03193813774572E-31,1.));
#1052=DIRECTION('',(0.948683298050514,1.75074807276099E-16,0.316227766016838));
#1053=DIRECTION('',(0.707106781186548,-0.707106781186548,0.));
#1054=DIRECTION('',(0.707106781186548,0.707106781186548,0.));
#1055=DIRECTION('',(0.646761666763555,0.646761666763555,0.404226041727221));
#1056=DIRECTION('',(0.,0.,-1.));
#1057=DIRECTION('',(-0.707106781186548,-0.707106781186548,0.));
#1058=DIRECTION('',(-1.,0.,0.));
#1059=DIRECTION('',(0.,0.,1.));
#1060=DIRECTION('',(0.,0.847998304005088,0.52999894000318));
#1061=DIRECTION('',(1.,0.,0.));
#1062=DIRECTION('',(0.,0.,-1.));
#1063=DIRECTION('',(0.,1.,0.));
#1064=DIRECTION('',(-1.,0.,0.));
#1065=DIRECTION('',(0.,0.,1.));
#1066=DIRECTION('',(0.,-1.,0.));
#1067=DIRECTION('',(1.,0.,0.));
#1068=DIRECTION('',(0.,0.,-1.));
#1069=DIRECTION('',(0.,-0.847998304005088,0.52999894000318));
#1070=DIRECTION('',(0.,0.,-1.));
#1071=DIRECTION('',(0.,1.,0.));
#1072=DIRECTION('',(-0.707106781186548,-0.707106781186548,0.));
#1073=DIRECTION('',(0.707106781186548,-0.707106781186548,0.));
#1074=DIRECTION('',(0.646761666763555,-0.646761666763555,0.404226041727221));
#1075=DIRECTION('',(-0.707106781186548,0.707106781186548,0.));
#1076=DIRECTION('',(-0.707106781186548,0.707106781186548,0.));
#1077=DIRECTION('',(-0.707106781186548,-0.707106781186548,0.));
#1078=DIRECTION('',(0.646761666763555,0.646761666763555,-0.404226041727221));
#1079=DIRECTION('',(0.,0.,-1.));
#1080=DIRECTION('',(0.707106781186548,0.707106781186548,0.));
#1081=DIRECTION('',(-1.,0.,0.));
#1082=DIRECTION('',(0.,0.,1.));
#1083=DIRECTION('',(0.,-0.847998304005088,-0.52999894000318));
#1084=DIRECTION('',(0.,0.,-1.));
#1085=DIRECTION('',(0.,1.,0.));
#1086=DIRECTION('',(0.,0.847998304005088,-0.52999894000318));
#1087=DIRECTION('',(1.,0.,0.));
#1088=DIRECTION('',(0.,0.,-1.));
#1089=DIRECTION('',(0.,-1.,0.));
#1090=DIRECTION('',(-1.,0.,0.));
#1091=DIRECTION('',(0.,0.,1.));
#1092=DIRECTION('',(0.,1.,0.));
#1093=DIRECTION('',(1.,0.,0.));
#1094=DIRECTION('',(0.,0.,-1.));
#1095=DIRECTION('',(0.707106781186548,0.707106781186548,0.));
#1096=DIRECTION('',(-0.707106781186548,0.707106781186548,0.));
#1097=DIRECTION('',(0.646761666763555,-0.646761666763555,-0.404226041727221));
#1098=DIRECTION('',(0.707106781186548,-0.707106781186548,0.));
#1099=DIRECTION('',(0.,0.,1.));
#1100=DIRECTION('',(1.,0.,0.));
#1101=DIRECTION('',(0.,0.,-1.));
#1102=DIRECTION('',(-1.,0.,0.));
#1103=DIRECTION('',(0.,-1.,0.));
#1104=DIRECTION('',(0.,-1.,0.));
#1105=DIRECTION('',(-1.,0.,-1.66800334228539E-16));
#1106=DIRECTION('',(-1.66800334228539E-16,0.,1.));
#1107=DIRECTION('',(0.316227766016838,0.,-0.948683298050514));
#1108=DIRECTION('',(-0.948683298050514,0.,-0.316227766016838));
#1109=DIRECTION('',(0.,-1.,0.));
#1110=DIRECTION('',(1.,0.,5.59179525102564E-16));
#1111=DIRECTION('',(5.59179525102564E-16,0.,-1.));
#1112=DIRECTION('',(1.,0.,0.));
#1113=DIRECTION('',(0.,0.,-1.));
#1114=DIRECTION('',(0.,0.,1.));
#1115=DIRECTION('',(1.,0.,0.));
#1116=DIRECTION('',(-1.,0.,0.));
#1117=DIRECTION('',(0.,0.,1.));
#1118=DIRECTION('',(-1.,0.,0.));
#1119=DIRECTION('',(0.,0.,1.));
#1120=DIRECTION('',(0.,0.,-1.));
#1121=DIRECTION('',(-1.,0.,0.));
#1122=DIRECTION('',(1.,0.,0.));
#1123=DIRECTION('',(0.,0.,-1.));
#1124=DIRECTION('',(0.,-1.,0.));
#1125=DIRECTION('',(0.,-1.,0.));
#1126=DIRECTION('',(0.,0.,-1.));
#1127=DIRECTION('',(-1.,0.,0.));
#1128=DIRECTION('',(0.,-1.,0.));
#1129=DIRECTION('',(1.,0.,0.));
#1130=DIRECTION('',(0.,0.,-1.));
#1131=DIRECTION('',(0.,-1.,0.));
#1132=DIRECTION('',(0.,0.,-1.));
#1133=DIRECTION('',(-1.,0.,0.));
#1134=DIRECTION('',(1.,0.,0.));
#1135=DIRECTION('',(0.,0.,-1.));
#1136=DIRECTION('',(0.,-1.,0.));
#1137=DIRECTION('',(0.,-1.,0.));
#1138=DIRECTION('',(0.,0.,1.));
#1139=DIRECTION('',(1.,0.,0.));
#1140=DIRECTION('',(0.,-1.,0.));
#1141=DIRECTION('',(1.,0.,0.));
#1142=DIRECTION('',(0.,0.,-1.));
#1143=DIRECTION('',(0.,-1.,0.));
#1144=DIRECTION('',(0.,0.,1.));
#1145=DIRECTION('',(1.,0.,0.));
#1146=DIRECTION('',(0.,0.,-1.));
#1147=DIRECTION('',(-1.,0.,0.));
#1148=DIRECTION('',(0.,-1.,0.));
#1149=DIRECTION('',(0.,-1.,0.));
#1150=DIRECTION('',(1.,0.,0.));
#1151=DIRECTION('',(0.,0.,-1.));
#1152=DIRECTION('',(0.,-1.,0.));
#1153=DIRECTION('',(0.,0.,-1.));
#1154=DIRECTION('',(-1.,0.,0.));
#1155=DIRECTION('',(0.,-1.,0.));
#1156=DIRECTION('',(1.,0.,0.));
#1157=DIRECTION('',(0.,0.,-1.));
#1158=DIRECTION('',(0.,0.,1.));
#1159=DIRECTION('',(1.,0.,0.));
#1160=DIRECTION('',(0.,-1.,0.));
#1161=DIRECTION('',(0.,-1.,0.));
#1162=DIRECTION('',(1.,0.,0.));
#1163=DIRECTION('',(0.,0.,-1.));
#1164=DIRECTION('',(0.,-1.,0.));
#1165=DIRECTION('',(0.,0.,1.));
#1166=DIRECTION('',(1.,0.,0.));
#1167=DIRECTION('',(0.,-1.,0.));
#1168=DIRECTION('',(1.,0.,0.));
#1169=DIRECTION('',(0.,0.,-1.));
#1170=DIRECTION('',(9.78086812198234E-17,-0.52999894000318,-0.847998304005088));
#1171=DIRECTION('',(1.,1.8454505063583E-16,0.));
#1172=DIRECTION('',(9.78086812198234E-17,-0.52999894000318,0.847998304005088));
#1173=DIRECTION('',(-1.,-1.8454505063583E-16,0.));
#1174=CARTESIAN_POINT('',(0.,0.,0.));
#1175=CARTESIAN_POINT('',(0.015,0.000982804743734777,-0.0053347829372386));
#1176=CARTESIAN_POINT('',(0.015,0.000982804743734777,-0.00668799225240946));
#1177=CARTESIAN_POINT('',(0.0119586633518338,0.000982804743734777,-0.00668799225240946));
#1178=CARTESIAN_POINT('',(0.00788385886698961,0.000982804743734777,-0.00668799225240946));
#1179=CARTESIAN_POINT('',(0.0119586633518338,0.000982804743734777,-0.0053347829372386));
#1180=CARTESIAN_POINT('',(0.0119586633518338,0.000982804743734777,-0.00837106350809336));
#1181=CARTESIAN_POINT('',(0.015,0.000982804743734777,-0.00837106350809336));
#1182=CARTESIAN_POINT('',(0.00788385886698961,0.000982804743734777,-0.00837106350809336));
#1183=CARTESIAN_POINT('',(0.00788385886698961,0.000982804743734777,-0.0053347829372386));
#1184=CARTESIAN_POINT('',(-0.015,0.000982804743734777,-0.0053347829372386));
#1185=CARTESIAN_POINT('',(-0.015,0.000982804743734777,-0.00432068026917308));
#1186=CARTESIAN_POINT('',(-0.015,0.000982804743734777,-0.00929586871881273));
#1187=CARTESIAN_POINT('',(0.015,0.000982804743734777,-0.00929586871881273));
#1188=CARTESIAN_POINT('',(0.015,0.000982804743734777,-0.00929586871881273));
#1189=CARTESIAN_POINT('',(0.015,0.000982804743734777,-0.0053347829372386));
#1190=CARTESIAN_POINT('',(0.015,0.000982804743734777,-0.00432068026917308));
#1191=CARTESIAN_POINT('',(0.015,0.000982804743734777,-0.00432068026917308));
#1192=CARTESIAN_POINT('',(0.015,0.000982804743734777,-0.00837106350809336));
#1193=CARTESIAN_POINT('',(-0.0119586633518338,0.000982804743734777,-0.00837106350809336));
#1194=CARTESIAN_POINT('',(-0.00788385886698961,0.000982804743734777,-0.00837106350809336));
#1195=CARTESIAN_POINT('',(-0.0119586633518338,0.000982804743734777,-0.0053347829372386));
#1196=CARTESIAN_POINT('',(-0.0119586633518338,0.000982804743734777,-0.00668799225240946));
#1197=CARTESIAN_POINT('',(0.015,0.000982804743734777,-0.00668799225240946));
#1198=CARTESIAN_POINT('',(-0.00788385886698961,0.000982804743734777,-0.00668799225240946));
#1199=CARTESIAN_POINT('',(-0.00788385886698961,0.000982804743734777,-0.0053347829372386));
#1200=CARTESIAN_POINT('',(0.015,0.00368580361828208,-0.00733256440711014));
#1201=CARTESIAN_POINT('',(0.015,0.00368580361828208,-0.00668799225240946));
#1202=CARTESIAN_POINT('',(0.00788385886698961,0.00368580361828208,-0.00668799225240946));
#1203=CARTESIAN_POINT('',(0.0119586633518338,0.00368580361828208,-0.00668799225240946));
#1204=CARTESIAN_POINT('',(0.00788385886698961,0.00368580361828208,-0.00733256440711014));
#1205=CARTESIAN_POINT('',(0.00788385886698961,0.00368580361828208,-0.00837106350809336));
#1206=CARTESIAN_POINT('',(0.015,0.00368580361828208,-0.00837106350809336));
#1207=CARTESIAN_POINT('',(0.0119586633518338,0.00368580361828208,-0.00837106350809336));
#1208=CARTESIAN_POINT('',(0.0119586633518338,0.00368580361828208,-0.00733256440711014));
#1209=CARTESIAN_POINT('',(-0.015,0.00368580361828208,-0.00733256440711014));
#1210=CARTESIAN_POINT('',(-0.015,0.00368580361828208,-0.00929586871881273));
#1211=CARTESIAN_POINT('',(-0.015,0.00368580361828208,-0.00536926009540755));
#1212=CARTESIAN_POINT('',(0.015,0.00368580361828208,-0.00536926009540755));
#1213=CARTESIAN_POINT('',(0.015,0.00368580361828208,-0.00536926009540755));
#1214=CARTESIAN_POINT('',(0.015,0.00368580361828208,-0.00733256440711014));
#1215=CARTESIAN_POINT('',(0.015,0.00368580361828208,-0.00929586871881273));
#1216=CARTESIAN_POINT('',(0.015,0.00368580361828208,-0.00929586871881273));
#1217=CARTESIAN_POINT('',(0.015,0.00368580361828208,-0.00837106350809336));
#1218=CARTESIAN_POINT('',(-0.00788385886698961,0.00368580361828208,-0.00837106350809336));
#1219=CARTESIAN_POINT('',(-0.0119586633518338,0.00368580361828208,-0.00837106350809336));
#1220=CARTESIAN_POINT('',(-0.00788385886698961,0.00368580361828208,-0.00733256440711014));
#1221=CARTESIAN_POINT('',(-0.00788385886698961,0.00368580361828208,-0.00668799225240946));
#1222=CARTESIAN_POINT('',(0.015,0.00368580361828208,-0.00668799225240946));
#1223=CARTESIAN_POINT('',(-0.0119586633518338,0.00368580361828208,-0.00668799225240946));
#1224=CARTESIAN_POINT('',(-0.0119586633518338,0.00368580361828208,-0.00733256440711014));
#1225=CARTESIAN_POINT('',(0.015,-0.00368580361828208,-0.00733256440711014));
#1226=CARTESIAN_POINT('',(-0.015,-0.00368580361828208,-0.00733256440711014));
#1227=CARTESIAN_POINT('',(-0.015,-0.00368580361828208,-0.00929586871881273));
#1228=CARTESIAN_POINT('',(-0.015,-0.00368580361828208,-0.00536926009540755));
#1229=CARTESIAN_POINT('',(0.015,-0.00368580361828208,-0.00929586871881273));
#1230=CARTESIAN_POINT('',(0.015,-0.00368580361828208,-0.00929586871881273));
#1231=CARTESIAN_POINT('',(0.015,-0.00368580361828208,-0.00733256440711014));
#1232=CARTESIAN_POINT('',(0.015,-0.00368580361828208,-0.00536926009540755));
#1233=CARTESIAN_POINT('',(0.015,-0.00368580361828208,-0.00536926009540755));
#1234=CARTESIAN_POINT('',(0.00788385886698961,-0.00368580361828208,-0.00733256440711014));
#1235=CARTESIAN_POINT('',(0.00788385886698961,-0.00368580361828208,-0.00837106350809336));
#1236=CARTESIAN_POINT('',(0.00788385886698961,-0.00368580361828208,-0.00668799225240946));
#1237=CARTESIAN_POINT('',(0.015,-0.00368580361828208,-0.00668799225240946));
#1238=CARTESIAN_POINT('',(0.0119586633518338,-0.00368580361828208,-0.00668799225240946));
#1239=CARTESIAN_POINT('',(0.0119586633518338,-0.00368580361828208,-0.00733256440711014));
#1240=CARTESIAN_POINT('',(0.0119586633518338,-0.00368580361828208,-0.00837106350809336));
#1241=CARTESIAN_POINT('',(0.015,-0.00368580361828208,-0.00837106350809336));
#1242=CARTESIAN_POINT('',(-0.00788385886698961,-0.00368580361828208,-0.00733256440711014));
#1243=CARTESIAN_POINT('',(-0.00788385886698961,-0.00368580361828208,-0.00837106350809336));
#1244=CARTESIAN_POINT('',(-0.00788385886698961,-0.00368580361828208,-0.00668799225240946));
#1245=CARTESIAN_POINT('',(0.015,-0.00368580361828208,-0.00837106350809336));
#1246=CARTESIAN_POINT('',(-0.0119586633518338,-0.00368580361828208,-0.00837106350809336));
#1247=CARTESIAN_POINT('',(-0.0119586633518338,-0.00368580361828208,-0.00733256440711014));
#1248=CARTESIAN_POINT('',(-0.0119586633518338,-0.00368580361828208,-0.00668799225240946));
#1249=CARTESIAN_POINT('',(0.015,-0.00368580361828208,-0.00668799225240946));
#1250=CARTESIAN_POINT('',(0.015,-0.000982804743734777,-0.0053347829372386));
#1251=CARTESIAN_POINT('',(-0.015,-0.000982804743734777,-0.0053347829372386));
#1252=CARTESIAN_POINT('',(-0.015,-0.00098280474373478,-0.00432068026917308));
#1253=CARTESIAN_POINT('',(-0.015,-0.000982804743734778,-0.00929586871881273));
#1254=CARTESIAN_POINT('',(0.015,-0.00098280474373478,-0.00432068026917308));
#1255=CARTESIAN_POINT('',(0.015,-0.00098280474373478,-0.00432068026917308));
#1256=CARTESIAN_POINT('',(0.015,-0.000982804743734777,-0.0053347829372386));
#1257=CARTESIAN_POINT('',(0.015,-0.000982804743734778,-0.00929586871881273));
#1258=CARTESIAN_POINT('',(0.015,-0.000982804743734778,-0.00929586871881273));
#1259=CARTESIAN_POINT('',(0.0119586633518338,-0.000982804743734777,-0.0053347829372386));
#1260=CARTESIAN_POINT('',(0.0119586633518338,-0.000982804743734777,-0.00668799225240946));
#1261=CARTESIAN_POINT('',(0.0119586633518338,-0.000982804743734777,-0.00837106350809336));
#1262=CARTESIAN_POINT('',(0.015,-0.000982804743734777,-0.00668799225240946));
#1263=CARTESIAN_POINT('',(0.00788385886698961,-0.000982804743734777,-0.00668799225240946));
#1264=CARTESIAN_POINT('',(0.00788385886698961,-0.000982804743734777,-0.0053347829372386));
#1265=CARTESIAN_POINT('',(0.00788385886698961,-0.000982804743734777,-0.00837106350809336));
#1266=CARTESIAN_POINT('',(0.015,-0.000982804743734777,-0.00837106350809336));
#1267=CARTESIAN_POINT('',(-0.0119586633518338,-0.000982804743734777,-0.0053347829372386));
#1268=CARTESIAN_POINT('',(-0.0119586633518338,-0.000982804743734777,-0.00668799225240946));
#1269=CARTESIAN_POINT('',(-0.0119586633518338,-0.000982804743734777,-0.00837106350809336));
#1270=CARTESIAN_POINT('',(0.015,-0.000982804743734777,-0.00837106350809336));
#1271=CARTESIAN_POINT('',(-0.00788385886698961,-0.000982804743734777,-0.00837106350809336));
#1272=CARTESIAN_POINT('',(-0.00788385886698961,-0.000982804743734777,-0.0053347829372386));
#1273=CARTESIAN_POINT('',(-0.00788385886698961,-0.000982804743734777,-0.00668799225240946));
#1274=CARTESIAN_POINT('',(0.015,-0.000982804743734777,-0.00668799225240946));
#1275=CARTESIAN_POINT('',(0.,0.,0.));
#1276=CARTESIAN_POINT('',(0.015,1.7347234759768E-18,0.));
#1277=CARTESIAN_POINT('',(0.015,-0.007,0.));
#1278=CARTESIAN_POINT('',(0.015,-0.00697578200814548,0.));
#1279=CARTESIAN_POINT('',(-0.0094,-0.007,0.));
#1280=CARTESIAN_POINT('',(-0.015,-0.007,0.));
#1281=CARTESIAN_POINT('',(-0.015,-1.7347234759768E-18,0.));
#1282=CARTESIAN_POINT('',(-0.015,-0.00697578200814548,0.));
#1283=CARTESIAN_POINT('',(0.015,-0.00697578200814548,0.));
#1284=CARTESIAN_POINT('',(0.,0.,0.));
#1285=CARTESIAN_POINT('',(-0.015,-1.7347234759768E-18,0.));
#1286=CARTESIAN_POINT('',(-0.015,0.00697578200814548,0.));
#1287=CARTESIAN_POINT('',(-0.015,0.007,0.));
#1288=CARTESIAN_POINT('',(-1.29181535445081E-18,0.007,0.));
#1289=CARTESIAN_POINT('',(0.015,0.007,0.));
#1290=CARTESIAN_POINT('',(0.015,1.7347234759768E-18,0.));
#1291=CARTESIAN_POINT('',(0.015,0.00697578200814548,0.));
#1292=CARTESIAN_POINT('',(0.015,0.00697578200814548,0.));
#1293=CARTESIAN_POINT('',(-0.00629320281894107,0.0242,0.00675));
#1294=CARTESIAN_POINT('',(-0.0072,0.0242,0.00675));
#1295=CARTESIAN_POINT('',(-0.0072,0.015,0.00675));
#1296=CARTESIAN_POINT('',(-0.0072,-0.015,0.00675));
#1297=CARTESIAN_POINT('',(-1.7347234759768E-18,-0.015,0.00675));
#1298=CARTESIAN_POINT('',(-0.00538640563788214,-0.015,0.00675));
#1299=CARTESIAN_POINT('',(-0.00538640563788214,0.0242,0.00675));
#1300=CARTESIAN_POINT('',(-0.00538640563788214,0.015,0.00675));
#1301=CARTESIAN_POINT('',(1.7347234759768E-18,0.015,0.00675));
#1302=CARTESIAN_POINT('',(1.7347234759768E-18,0.015,0.02));
#1303=CARTESIAN_POINT('',(0.0094,0.015,0.02));
#1304=CARTESIAN_POINT('',(0.0094,0.015,0.02));
#1305=CARTESIAN_POINT('',(0.0094,0.015,0.005));
#1306=CARTESIAN_POINT('',(1.7347234759768E-18,0.015,0.005));
#1307=CARTESIAN_POINT('',(-0.0094,0.015,0.005));
#1308=CARTESIAN_POINT('',(-0.0094,0.015,0.02));
#1309=CARTESIAN_POINT('',(-0.0094,0.015,0.02));
#1310=CARTESIAN_POINT('',(1.7347234759768E-18,0.015,0.02));
#1311=CARTESIAN_POINT('',(1.7347234759768E-18,0.015,0.01715));
#1312=CARTESIAN_POINT('',(-0.0072,0.015,0.01715));
#1313=CARTESIAN_POINT('',(0.0072,0.015,0.01715));
#1314=CARTESIAN_POINT('',(-0.0072,0.015,0.02));
#1315=CARTESIAN_POINT('',(0.00343635943621179,0.015,0.00969092169136464));
#1316=CARTESIAN_POINT('',(0.0072,0.015,0.0109454685459607));
#1317=CARTESIAN_POINT('',(0.0072,0.015,0.02));
#1318=CARTESIAN_POINT('',(-1.7347234759768E-18,-0.015,0.02));
#1319=CARTESIAN_POINT('',(-0.0094,-0.015,0.02));
#1320=CARTESIAN_POINT('',(-0.0094,-0.015,0.02));
#1321=CARTESIAN_POINT('',(-0.0094,-0.015,0.005));
#1322=CARTESIAN_POINT('',(0.0094,-0.015,0.005));
#1323=CARTESIAN_POINT('',(0.0094,-0.015,0.005));
#1324=CARTESIAN_POINT('',(0.0094,-0.015,0.02));
#1325=CARTESIAN_POINT('',(0.0094,-0.015,0.02));
#1326=CARTESIAN_POINT('',(-1.7347234759768E-18,-0.015,0.02));
#1327=CARTESIAN_POINT('',(-0.0072,-0.015,0.02));
#1328=CARTESIAN_POINT('',(-0.0072,-0.015,0.01715));
#1329=CARTESIAN_POINT('',(-1.7347234759768E-18,-0.015,0.01715));
#1330=CARTESIAN_POINT('',(0.0072,-0.015,0.01715));
#1331=CARTESIAN_POINT('',(0.0072,-0.015,0.02));
#1332=CARTESIAN_POINT('',(0.0072,-0.015,0.0109454685459607));
#1333=CARTESIAN_POINT('',(0.00343635943621178,-0.015,0.00969092169136464));
#1334=CARTESIAN_POINT('',(-0.0122,0.0122,0.02));
#1335=CARTESIAN_POINT('',(-0.00546797385620915,0.0189320261437908,0.00745751633986928));
#1336=CARTESIAN_POINT('',(-0.015,0.0094,0.0015));
#1337=CARTESIAN_POINT('',(-0.015,0.0094,0.02));
#1338=CARTESIAN_POINT('',(-0.015,0.0094,0.02));
#1339=CARTESIAN_POINT('',(-0.0122,0.0122,0.02));
#1340=CARTESIAN_POINT('',(-0.015,-1.7347234759768E-18,0.02));
#1341=CARTESIAN_POINT('',(-0.015,0.0109550561797753,0.00247191011235955));
#1342=CARTESIAN_POINT('',(-0.015,7.32800506700921E-19,0.00058177777100354));
#1343=CARTESIAN_POINT('',(-0.015,0.00233430418100843,-0.00929586871881273));
#1344=CARTESIAN_POINT('',(-0.015,8.03602153384722E-19,0.000581777771003543));
#1345=CARTESIAN_POINT('',(-0.015,-0.00233430418100843,-0.00929586871881273));
#1346=CARTESIAN_POINT('',(-0.015,7.32800506700921E-19,0.00058177777100354));
#1347=CARTESIAN_POINT('',(-0.015,-0.0109550561797753,0.00247191011235955));
#1348=CARTESIAN_POINT('',(-0.015,-0.0094,0.0015));
#1349=CARTESIAN_POINT('',(-0.015,-0.0094,0.02));
#1350=CARTESIAN_POINT('',(-0.015,-0.0094,0.02));
#1351=CARTESIAN_POINT('',(-0.015,-1.7347234759768E-18,0.02));
#1352=CARTESIAN_POINT('',(-0.0122,-0.0122,0.02));
#1353=CARTESIAN_POINT('',(-0.00782091503267974,-0.0165790849673202,0.00598692810457517));
#1354=CARTESIAN_POINT('',(-0.0122,-0.0122,0.02));
#1355=CARTESIAN_POINT('',(0.0122,-0.0122,0.02));
#1356=CARTESIAN_POINT('',(0.010121568627451,-0.014278431372549,0.00454901960784314));
#1357=CARTESIAN_POINT('',(0.015,-0.0094,0.0015));
#1358=CARTESIAN_POINT('',(0.015,-0.0094,0.02));
#1359=CARTESIAN_POINT('',(0.015,-0.0094,0.02));
#1360=CARTESIAN_POINT('',(0.0122,-0.0122,0.02));
#1361=CARTESIAN_POINT('',(0.015,1.7347234759768E-18,0.02));
#1362=CARTESIAN_POINT('',(0.015,0.015,0.005));
#1363=CARTESIAN_POINT('',(0.015,0.0094,0.0015));
#1364=CARTESIAN_POINT('',(0.015,0.0094,0.02));
#1365=CARTESIAN_POINT('',(0.015,0.0094,0.02));
#1366=CARTESIAN_POINT('',(0.015,1.7347234759768E-18,0.02));
#1367=CARTESIAN_POINT('',(0.015,-0.007,1.24412393687077E-18));
#1368=CARTESIAN_POINT('',(0.015,7.32800506700921E-19,0.00058177777100354));
#1369=CARTESIAN_POINT('',(0.015,-0.00233430418100843,-0.00929586871881273));
#1370=CARTESIAN_POINT('',(0.015,8.03602153384722E-19,0.000581777771003543));
#1371=CARTESIAN_POINT('',(0.015,0.00233430418100843,-0.00929586871881273));
#1372=CARTESIAN_POINT('',(0.015,7.32800506700921E-19,0.00058177777100354));
#1373=CARTESIAN_POINT('',(0.0122,0.0122,0.02));
#1374=CARTESIAN_POINT('',(0.00782091503267974,0.0165790849673202,0.00598692810457517));
#1375=CARTESIAN_POINT('',(0.0122,0.0122,0.02));
#1376=CARTESIAN_POINT('',(0.,0.,0.02));
#1377=CARTESIAN_POINT('',(-1.7347234759768E-18,0.0242,0.01715));
#1378=CARTESIAN_POINT('',(0.0072,0.0242,0.01715));
#1379=CARTESIAN_POINT('',(-0.0072,0.0242,0.01715));
#1380=CARTESIAN_POINT('',(-0.0072,0.0242,0.01195));
#1381=CARTESIAN_POINT('',(0.000906797181058933,0.0242,0.00884773427298036));
#1382=CARTESIAN_POINT('',(0.0072,0.0242,0.0109454685459607));
#1383=CARTESIAN_POINT('',(0.0072,0.0242,0.0140477342729804));
#1384=CARTESIAN_POINT('',(-0.0192,8.03602153384722E-19,0.000581777771003543));
#1385=CARTESIAN_POINT('',(0.015,0.00233430418100843,-0.00929586871881273));
#1386=CARTESIAN_POINT('',(0.015,7.32800506700921E-19,0.00058177777100354));
#1387=CARTESIAN_POINT('',(0.015,7.32800506700921E-19,0.00058177777100354));
#1388=CARTESIAN_POINT('',(0.015,-0.00233430418100843,-0.00929586871881273));
#1389=CARTESIAN_POINT('',(0.0119586633518338,0.0125,-0.00752952788025141));
#1390=CARTESIAN_POINT('',(0.0119586633518338,0.0125,-0.00668799225240946));
#1391=CARTESIAN_POINT('',(0.0119586633518338,0.0125,-0.00837106350809336));
#1392=CARTESIAN_POINT('',(0.00992126110941172,0.0125,-0.00837106350809336));
#1393=CARTESIAN_POINT('',(0.00788385886698961,0.0125,-0.00837106350809336));
#1394=CARTESIAN_POINT('',(0.00788385886698961,0.0125,-0.00752952788025141));
#1395=CARTESIAN_POINT('',(0.00788385886698961,0.0125,-0.00668799225240946));
#1396=CARTESIAN_POINT('',(0.00992126110941172,0.0125,-0.00668799225240946));
#1397=CARTESIAN_POINT('',(-0.0119586633518338,0.0125,-0.00752952788025141));
#1398=CARTESIAN_POINT('',(-0.0119586633518338,0.0125,-0.00837106350809336));
#1399=CARTESIAN_POINT('',(-0.0119586633518338,0.0125,-0.00668799225240946));
#1400=CARTESIAN_POINT('',(-0.00992126110941172,0.0125,-0.00668799225240946));
#1401=CARTESIAN_POINT('',(-0.00788385886698961,0.0125,-0.00668799225240946));
#1402=CARTESIAN_POINT('',(-0.00788385886698961,0.0125,-0.00752952788025141));
#1403=CARTESIAN_POINT('',(-0.00788385886698961,0.0125,-0.00837106350809336));
#1404=CARTESIAN_POINT('',(-0.00992126110941172,0.0125,-0.00837106350809336));
#1405=CARTESIAN_POINT('',(0.00992126110941172,0.0125,-0.00668799225240946));
#1406=CARTESIAN_POINT('',(0.00788385886698961,0.0125,-0.00668799225240946));
#1407=CARTESIAN_POINT('',(0.0119586633518338,0.0125,-0.00668799225240946));
#1408=CARTESIAN_POINT('',(0.00788385886698961,0.0125,-0.00752952788025141));
#1409=CARTESIAN_POINT('',(0.00788385886698961,0.0125,-0.00837106350809336));
#1410=CARTESIAN_POINT('',(0.00992126110941172,0.0125,-0.00837106350809336));
#1411=CARTESIAN_POINT('',(0.0119586633518338,0.0125,-0.00837106350809336));
#1412=CARTESIAN_POINT('',(0.0119586633518338,0.0125,-0.00752952788025141));
#1413=CARTESIAN_POINT('',(-0.00992126110941172,0.0125,-0.00837106350809336));
#1414=CARTESIAN_POINT('',(-0.00788385886698961,0.0125,-0.00837106350809336));
#1415=CARTESIAN_POINT('',(-0.0119586633518338,0.0125,-0.00837106350809336));
#1416=CARTESIAN_POINT('',(-0.00788385886698961,0.0125,-0.00752952788025141));
#1417=CARTESIAN_POINT('',(-0.00788385886698961,0.0125,-0.00668799225240946));
#1418=CARTESIAN_POINT('',(-0.00992126110941172,0.0125,-0.00668799225240946));
#1419=CARTESIAN_POINT('',(-0.0119586633518338,0.0125,-0.00668799225240946));
#1420=CARTESIAN_POINT('',(-0.0119586633518338,0.0125,-0.00752952788025141));
#1421=CARTESIAN_POINT('',(1.29181535445081E-18,-0.007,0.));
#1422=CARTESIAN_POINT('',(1.7347234759768E-18,0.015,0.005));
#1423=MECHANICAL_DESIGN_GEOMETRIC_PRESENTATION_REPRESENTATION('',(#896),
#1424);
#1424=(
GEOMETRIC_REPRESENTATION_CONTEXT(3)
GLOBAL_UNCERTAINTY_ASSIGNED_CONTEXT((#1425))
GLOBAL_UNIT_ASSIGNED_CONTEXT((#1428,#1427,#1426))
REPRESENTATION_CONTEXT('Part 1','TOP_LEVEL_ASSEMBLY_PART')
);
#1425=UNCERTAINTY_MEASURE_WITH_UNIT(LENGTH_MEASURE(1.E-8),#1428,
'DISTANCE_ACCURACY_VALUE','Maximum Tolerance applied to model');
#1426=(
NAMED_UNIT(*)
SI_UNIT($,.STERADIAN.)
SOLID_ANGLE_UNIT()
);
#1427=(
NAMED_UNIT(*)
PLANE_ANGLE_UNIT()
SI_UNIT($,.RADIAN.)
);
#1428=(
LENGTH_UNIT()
NAMED_UNIT(*)
SI_UNIT($,.METRE.)
);
#1429=PRODUCT_DEFINITION_SHAPE('','',#1430);
#1430=PRODUCT_DEFINITION('','',#1432,#1431);
#1431=PRODUCT_DEFINITION_CONTEXT('',#1438,'design');
#1432=PRODUCT_DEFINITION_FORMATION_WITH_SPECIFIED_SOURCE('','',#1434,
 .NOT_KNOWN.);
#1433=PRODUCT_RELATED_PRODUCT_CATEGORY('','',(#1434));
#1434=PRODUCT('Part 1','Part 1','Part 1',(#1436));
#1435=PRODUCT_CATEGORY('','');
#1436=PRODUCT_CONTEXT('',#1438,'mechanical');
#1437=APPLICATION_PROTOCOL_DEFINITION('international standard',
'ap242_managed_model_based_3d_engineering',2020,#1438);
#1438=APPLICATION_CONTEXT('managed model based 3d engineering');
ENDSEC;
END-ISO-10303-21;
